Amstelvar-Roman-opsz144.ufo
<glyph name="exclam" format="2">
	<unicode hex="0021"/>
	<advance width="501"/>
	<outline>
		<contour>
			<point x="136" y="94" type="qcurve" smooth="yes"/>
			<point x="136" y="141"/>
			<point x="199" y="206"/>
			<point x="250" y="206" type="qcurve" smooth="yes"/>
			<point x="301" y="206"/>
			<point x="364" y="140"/>
			<point x="364" y="94" type="qcurve" smooth="yes"/>
			<point x="364" y="46"/>
			<point x="301" y="-20"/>
			<point x="250" y="-20" type="qcurve" smooth="yes"/>
			<point x="200" y="-20"/>
			<point x="136" y="46"/>
		</contour>
		<contour>
			<point x="167" y="1250" type="line" smooth="yes"/>
			<point x="154" y="1397"/>
			<point x="193" y="1546"/>
			<point x="251" y="1546" type="qcurve" smooth="yes"/>
			<point x="309" y="1546"/>
			<point x="350" y="1399"/>
			<point x="335" y="1252" type="qcurve" smooth="yes"/>
			<point x="323" y="1130" type="line"/>
			<point x="269" y="731" type="line"/>
			<point x="265" y="404" type="line"/>
			<point x="235" y="404" type="line"/>
			<point x="230" y="731" type="line"/>
			<point x="178" y="1130" type="line"/>
		</contour>
	</outline>
</glyph>
<glyph name="quotedbl" format="2">
	<unicode hex="0022"/>
	<advance width="875"/>
	<outline>
		<contour>
			<point x="233" y="964" type="line"/>
			<point x="148" y="1439" type="line"/>
			<point x="148" y="1487"/>
			<point x="188" y="1558"/>
			<point x="242" y="1558" type="qcurve" smooth="yes"/>
			<point x="296" y="1558"/>
			<point x="336" y="1487"/>
			<point x="336" y="1439" type="qcurve"/>
			<point x="250" y="964" type="line"/>
		</contour>
		<contour>
			<point x="622.5161290323" y="964" type="line"/>
			<point x="537.5161290323" y="1439" type="line"/>
			<point x="537.5161290323" y="1487"/>
			<point x="578.5161290323" y="1558"/>
			<point x="631.5161290323" y="1558" type="qcurve" smooth="yes"/>
			<point x="685.5161290323" y="1558"/>
			<point x="726.5161290323" y="1487"/>
			<point x="726.5161290323" y="1439" type="qcurve"/>
			<point x="639.5161290323" y="964" type="line"/>
		</contour>
	</outline>
</glyph>
<glyph name="parenleft" format="2">
	<unicode hex="0028"/>
	<advance width="581"/>
	<outline>
		<contour>
			<point x="56" y="672" type="qcurve" smooth="yes"/>
			<point x="56" y="946.7822580645"/>
			<point x="367.5161290323" y="1390.9274193548"/>
			<point x="539.2096774194" y="1506" type="qcurve"/>
			<point x="555.2096774194" y="1493" type="line"/>
			<point x="412.5161290323" y="1365.9274193548"/>
			<point x="235" y="948.9596774194"/>
			<point x="235" y="672" type="qcurve" smooth="yes"/>
			<point x="235" y="395.0403225806"/>
			<point x="403.2016129032" y="-15.2822580645"/>
			<point x="555.2096774194" y="-149" type="qcurve"/>
			<point x="539.2096774194" y="-162" type="line"/>
			<point x="357.2016129032" y="-39.2822580645"/>
			<point x="56" y="398.0403225806"/>
		</contour>
	</outline>
</glyph>
<glyph name="parenright" format="2">
	<unicode hex="0029"/>
	<advance width="581"/>
	<outline>
		<contour>
			<point x="538.7580645161" y="672" type="qcurve" smooth="yes"/>
			<point x="538.7580645161" y="398.0403225806"/>
			<point x="227.2419354839" y="-44.9274193548"/>
			<point x="55.5483870968" y="-162" type="qcurve"/>
			<point x="39.5483870968" y="-149" type="line"/>
			<point x="181.1129032258" y="-19.7983870968"/>
			<point x="359.7580645161" y="395.0403225806"/>
			<point x="359.7580645161" y="672" type="qcurve" smooth="yes"/>
			<point x="359.7580645161" y="948.9596774194"/>
			<point x="191.685483871" y="1361.4112903226"/>
			<point x="39.5483870968" y="1493" type="qcurve"/>
			<point x="55.5483870968" y="1506" type="line"/>
			<point x="236.5564516129" y="1385.2822580645"/>
			<point x="538.7580645161" y="946.7822580645"/>
		</contour>
	</outline>
</glyph>
<glyph name="two" format="2">
  <advance width="778"/>
  <unicode hex="0032"/>
  <outline>
    <contour>
      <point x="10" y="0" type="line"/>
      <point x="10" y="132" type="line"/>
      <point x="23" y="260"/>
      <point x="170" y="476"/>
      <point x="294" y="620" type="qcurve" smooth="yes"/>
      <point x="422" y="768"/>
      <point x="523" y="973"/>
      <point x="523" y="1153" type="qcurve" smooth="yes"/>
      <point x="523" y="1337"/>
      <point x="408" y="1478"/>
      <point x="324" y="1478.0" type="qcurve" smooth="yes"/>
      <point x="239" y="1478.0"/>
      <point x="117" y="1386"/>
      <point x="82" y="1308" type="qcurve"/>
      <point x="44" y="1337" type="line"/>
      <point x="81" y="1420"/>
      <point x="249" y="1520"/>
      <point x="387" y="1520" type="qcurve" smooth="yes"/>
      <point x="527" y="1520"/>
      <point x="712" y="1335"/>
      <point x="712" y="1163" type="qcurve" smooth="yes"/>
      <point x="712" y="975"/>
      <point x="427" y="679"/>
      <point x="331" y="593" type="qcurve" smooth="yes"/>
      <point x="210" y="485"/>
      <point x="67" y="280"/>
      <point x="50" y="175" type="qcurve"/>
      <point x="58" y="166" type="line"/>
      <point x="768" y="166" type="line"/>
      <point x="768" y="0" type="line"/>
    </contour>
  </outline>
</glyph>
<glyph name="four" format="2">
  <advance width="945"/>
  <unicode hex="0034"/>
  <outline>
    <contour>
      <point x="2" y="517" type="line"/>
      <point x="589" y="1524" type="line"/>
      <point x="686" y="1484" type="line"/>
      <point x="706" y="1474" type="line"/>
      <point x="700" y="502" type="line"/>
      <point x="700" y="59" type="line"/>
      <point x="877" y="24" type="line"/>
      <point x="877" y="0" type="line"/>
      <point x="339" y="0" type="line"/>
      <point x="339" y="24" type="line"/>
      <point x="534" y="59" type="line"/>
      <point x="534" y="505" type="line"/>
      <point x="540" y="1365" type="line"/>
      <point x="57" y="540" type="line"/>
      <point x="60" y="533" type="line"/>
      <point x="944" y="516" type="line"/>
      <point x="944" y="487" type="line"/>
      <point x="13" y="477" type="line"/>
    </contour>
  </outline>
</glyph>
<glyph name="six" format="2">
  <advance width="971"/>
  <unicode hex="0036"/>
  <outline>
    <contour>
      <point x="55" y="603" type="qcurve" smooth="yes"/>
      <point x="55" y="959"/>
      <point x="414" y="1455"/>
      <point x="713" y="1550" type="qcurve"/>
      <point x="729" y="1521" type="line"/>
      <point x="497" y="1444"/>
      <point x="228" y="981"/>
      <point x="228" y="595" type="qcurve" smooth="yes"/>
      <point x="228" y="290"/>
      <point x="390" y="5"/>
      <point x="520" y="5" type="qcurve" smooth="yes"/>
      <point x="644.0" y="5.0"/>
      <point x="781.0" y="213.0"/>
      <point x="781.0" y="443" type="qcurve" smooth="yes"/>
      <point x="781" y="652"/>
      <point x="647" y="825.0"/>
      <point x="551" y="825.0" type="qcurve" smooth="yes"/>
      <point x="478" y="825"/>
      <point x="385" y="800"/>
      <point x="359" y="776" type="qcurve"/>
      <point x="342" y="800" type="line"/>
      <point x="371" y="834"/>
      <point x="494" y="890"/>
      <point x="579" y="890.0" type="qcurve" smooth="yes"/>
      <point x="722" y="890"/>
      <point x="946" y="665"/>
      <point x="946.0" y="455" type="qcurve" smooth="yes"/>
      <point x="946.0" y="234"/>
      <point x="718.0" y="-24.0"/>
      <point x="514" y="-24" type="qcurve" smooth="yes"/>
      <point x="319" y="-24"/>
      <point x="55" y="311"/>
    </contour>
  </outline>
</glyph>
<glyph name="colon" format="2">
	<unicode hex="003A"/>
	<advance width="573"/>
	<outline>
		<contour>
			<point x="175" y="89" type="qcurve" smooth="yes"/>
			<point x="175" y="134"/>
			<point x="237" y="201"/>
			<point x="286" y="201" type="qcurve" smooth="yes"/>
			<point x="335" y="201"/>
			<point x="398" y="134"/>
			<point x="398" y="89" type="qcurve" smooth="yes"/>
			<point x="398" y="44"/>
			<point x="335" y="-22"/>
			<point x="286" y="-22" type="qcurve" smooth="yes"/>
			<point x="237" y="-22"/>
			<point x="175" y="44"/>
		</contour>
		<contour>
			<point x="175" y="810" type="qcurve" smooth="yes"/>
			<point x="175" y="854"/>
			<point x="237" y="920"/>
			<point x="286" y="920" type="qcurve" smooth="yes"/>
			<point x="335" y="920"/>
			<point x="398" y="854"/>
			<point x="398" y="810" type="qcurve" smooth="yes"/>
			<point x="398" y="764"/>
			<point x="335" y="697"/>
			<point x="286" y="697" type="qcurve" smooth="yes"/>
			<point x="237" y="697"/>
			<point x="175" y="764"/>
		</contour>
	</outline>
</glyph>
<glyph name="question" format="2">
	<unicode hex="003F"/>
	<advance width="823"/>
	<outline>
		<contour>
			<point x="170.2903225806" y="92" type="qcurve" smooth="yes"/>
			<point x="170.2903225806" y="137"/>
			<point x="234.2903225806" y="204"/>
			<point x="284.2903225806" y="204" type="qcurve" smooth="yes"/>
			<point x="334.2903225806" y="204"/>
			<point x="397.2903225806" y="137"/>
			<point x="397.2903225806" y="92" type="qcurve" smooth="yes"/>
			<point x="397.2903225806" y="46"/>
			<point x="334.2903225806" y="-22"/>
			<point x="284.2903225806" y="-22" type="qcurve" smooth="yes"/>
			<point x="234.2903225806" y="-22"/>
			<point x="170.2903225806" y="46"/>
		</contour>
		<contour>
			<point x="16" y="1269" type="qcurve" smooth="yes"/>
			<point x="16" y="1365"/>
			<point x="217" y="1533"/>
			<point x="404" y="1533" type="qcurve" smooth="yes"/>
			<point x="573" y="1533"/>
			<point x="799" y="1342"/>
			<point x="799" y="1169" type="qcurve" smooth="yes"/>
			<point x="799" y="1028"/>
			<point x="630" y="832"/>
			<point x="515" y="768" type="qcurve" smooth="yes"/>
			<point x="388" y="697"/>
			<point x="288.6451612903" y="575.6129032258"/>
			<point x="291.185483871" y="450.7177419355" type="qcurve" smooth="yes"/>
			<point x="294.2903225806" y="402" type="line"/>
			<point x="262.2903225806" y="402" type="line"/>
			<point x="252.185483871" y="521" type="line" smooth="yes"/>
			<point x="243.2338709677" y="611.3870967742"/>
			<point x="361" y="759"/>
			<point x="449" y="837" type="qcurve" smooth="yes"/>
			<point x="523" y="903"/>
			<point x="617" y="1100"/>
			<point x="617" y="1224" type="qcurve" smooth="yes"/>
			<point x="617" y="1366"/>
			<point x="483.2661290323" y="1472"/>
			<point x="382.564516129" y="1472" type="qcurve" smooth="yes"/>
			<point x="255.7096774194" y="1472"/>
			<point x="86" y="1366"/>
			<point x="86" y="1293" type="qcurve" smooth="yes"/>
			<point x="86" y="1287"/>
			<point x="188" y="1225"/>
			<point x="188" y="1190" type="qcurve" smooth="yes"/>
			<point x="188" y="1156"/>
			<point x="146" y="1109"/>
			<point x="107" y="1109" type="qcurve" smooth="yes"/>
			<point x="78" y="1109"/>
			<point x="16" y="1185"/>
		</contour>
	</outline>
</glyph>
<glyph name="A" format="2">
  <advance width="1291"/>
  <unicode hex="0041"/>
  <anchor x="646" y="0" name="bottom"/>
  <anchor x="908" y="0" name="ogonek"/>
  <anchor x="646" y="1500" name="top"/>
  <outline>
    <contour>
      <point x="-47" y="0" type="line"/>
      <point x="-47" y="25" type="line"/>
      <point x="118" y="60" type="line"/>
      <point x="297" y="555" type="line"/>
      <point x="601" y="1506" type="line"/>
      <point x="704" y="1506" type="line"/>
      <point x="1006" y="591" type="line"/>
      <point x="1185" y="60" type="line"/>
      <point x="1331" y="25" type="line"/>
      <point x="1331" y="0" type="line"/>
      <point x="861" y="0" type="line"/>
      <point x="861" y="25" type="line"/>
      <point x="1011" y="56" type="line"/>
      <point x="860" y="545" type="line"/>
      <point x="608" y="1342" type="line"/>
      <point x="334" y="546" type="line"/>
      <point x="175" y="56" type="line"/>
      <point x="382" y="25" type="line"/>
      <point x="382" y="0" type="line"/>
    </contour>
    <contour>
      <point x="618" y="559" type="line"/>
      <point x="930" y="568" type="line"/>
      <point x="941" y="532" type="line"/>
      <point x="618" y="532" type="line"/>
    </contour>
    <contour>
      <point x="311" y="532" type="line"/>
      <point x="321" y="566" type="line"/>
      <point x="618" y="559" type="line"/>
      <point x="618" y="532" type="line"/>
    </contour>
  </outline>
</glyph>
<glyph name="B" format="2">
  <advance width="1136"/>
  <unicode hex="0042"/>
  <anchor x="568.0" y="0" name="bottom"/>
  <anchor x="568.0" y="1500" name="top"/>
  <outline>
    <contour>
      <point x="61" y="0" type="line"/>
      <point x="61" y="25" type="line"/>
      <point x="226" y="61" type="line"/>
      <point x="228" y="784" type="line"/>
      <point x="226" y="1437" type="line"/>
      <point x="61" y="1471" type="line"/>
      <point x="61" y="1500" type="line"/>
      <point x="601.1129032258" y="1500" type="line" smooth="yes"/>
      <point x="799.4032258065" y="1500"/>
      <point x="990.4112903226" y="1315"/>
      <point x="990.4112903226" y="1175" type="qcurve" smooth="yes"/>
      <point x="990.4112903226" y="1038"/>
      <point x="855.4596774194" y="860.435483871"/>
      <point x="739.3548387097" y="838.435483871" type="qcurve"/>
      <point x="739.3548387097" y="831.435483871" type="line"/>
      <point x="883.9758064516" y="808.1532258065"/>
      <point x="1077.2096774194" y="613"/>
      <point x="1077.2096774194" y="446.2096774194" type="qcurve" smooth="yes"/>
      <point x="1077.2096774194" y="250"/>
      <point x="835.3790322581" y="0"/>
      <point x="617.9596774194" y="0" type="qcurve" smooth="yes"/>
    </contour>
    <contour>
      <point x="393" y="49" type="line"/>
      <point x="425" y="28" type="line"/>
      <point x="607.2096774194" y="28" type="line" smooth="yes"/>
      <point x="756.2096774194" y="28"/>
      <point x="902.2096774194" y="224"/>
      <point x="902.2096774194" y="436" type="qcurve" smooth="yes"/>
      <point x="902.2096774194" y="617"/>
      <point x="756.1451612903" y="804"/>
      <point x="633.5241935484" y="804" type="qcurve" smooth="yes"/>
      <point x="391" y="804" type="line"/>
      <point x="391" y="791" type="line"/>
    </contour>
    <contour>
      <point x="391" y="851" type="line"/>
      <point x="391" y="832" type="line"/>
      <point x="575.2903225806" y="832" type="line" smooth="yes"/>
      <point x="694.9112903226" y="832"/>
      <point x="828.2096774194" y="1020"/>
      <point x="828.2096774194" y="1180" type="qcurve" smooth="yes"/>
      <point x="828.2096774194" y="1333"/>
      <point x="700.2096774194" y="1469"/>
      <point x="594.2096774194" y="1469" type="qcurve" smooth="yes"/>
      <point x="422" y="1469" type="line"/>
      <point x="394" y="1453" type="line"/>
    </contour>
  </outline>
</glyph>
<glyph name="C" format="2">
  <advance width="1252"/>
  <unicode hex="0043"/>
  <anchor x="735.0" y="0" name="bottom"/>
  <anchor x="724.0" y="1500" name="top"/>
  <outline>
    <contour>
      <point x="64" y="734" type="qcurve" smooth="yes"/>
      <point x="64" y="1098.3870967742"/>
      <point x="462" y="1518"/>
      <point x="725.3951612903" y="1518" type="qcurve" smooth="yes"/>
      <point x="837" y="1518"/>
      <point x="1041.0161290323" y="1460.3064516129"/>
      <point x="1109.1451612903" y="1413" type="qcurve"/>
      <point x="1146.1451612903" y="1489" type="line"/>
      <point x="1173.1451612903" y="1489" type="line"/>
      <point x="1173.1451612903" y="1067" type="line"/>
      <point x="1145.1451612903" y="1067" type="line"/>
      <point x="1094.1451612903" y="1240" type="line" smooth="yes"/>
      <point x="1054.1451612903" y="1376"/>
      <point x="856" y="1484"/>
      <point x="730.3387096774" y="1484" type="qcurve" smooth="yes"/>
      <point x="505" y="1484"/>
      <point x="242" y="1109"/>
      <point x="243" y="744" type="qcurve" smooth="yes"/>
      <point x="244" y="406"/>
      <point x="553.8225806452" y="27"/>
      <point x="784.2177419355" y="27" type="qcurve" smooth="yes"/>
      <point x="945.9193548387" y="27"/>
      <point x="1176.4516129032" y="170.4112903226"/>
      <point x="1222.1451612903" y="253" type="qcurve"/>
      <point x="1247.1451612903" y="238" type="line"/>
      <point x="1188.2741935484" y="125.4112903226"/>
      <point x="922.7177419355" y="-26"/>
      <point x="732.5967741935" y="-26" type="qcurve" smooth="yes"/>
      <point x="448.5403225806" y="-26"/>
      <point x="64" y="382.3790322581"/>
    </contour>
  </outline>
</glyph>
<glyph name="D" format="2">
  <advance width="1367"/>
  <unicode hex="0044"/>
  <anchor x="615" y="0" name="bottom"/>
  <anchor x="391" y="750.0" name="center"/>
  <anchor x="615" y="1500" name="top"/>
  <outline>
    <contour>
      <point x="61" y="0" type="line"/>
      <point x="61" y="25" type="line"/>
      <point x="226" y="64" type="line"/>
      <point x="228" y="759" type="line"/>
      <point x="226" y="1434" type="line"/>
      <point x="61" y="1471" type="line"/>
      <point x="61" y="1500" type="line"/>
      <point x="653" y="1500" type="line" smooth="yes"/>
      <point x="946" y="1500"/>
      <point x="1303" y="1152"/>
      <point x="1303" y="777" type="qcurve" smooth="yes"/>
      <point x="1303" y="409"/>
      <point x="933.2016129032" y="0"/>
      <point x="628.1129032258" y="0" type="qcurve" smooth="yes"/>
    </contour>
    <contour>
      <point x="392.2822580645" y="42" type="line"/>
      <point x="419.9516129032" y="38"/>
      <point x="555.6048387097" y="32"/>
      <point x="636.1612903226" y="32" type="qcurve" smooth="yes"/>
      <point x="876.9758064516" y="32"/>
      <point x="1123.3951612903" y="403.6129032258"/>
      <point x="1124.6774193548" y="761" type="qcurve" smooth="yes"/>
      <point x="1125.9596774194" y="1107.4435483871"/>
      <point x="851.0564516129" y="1470"/>
      <point x="613.2096774194" y="1470" type="qcurve" smooth="yes"/>
      <point x="543.4758064516" y="1470"/>
      <point x="421.2338709677" y="1458"/>
      <point x="392.2822580645" y="1450" type="qcurve"/>
      <point x="390" y="759" type="line"/>
    </contour>
  </outline>
</glyph>
<glyph name="E" format="2">
  <advance width="1084"/>
  <unicode hex="0045"/>
  <anchor x="602.0" y="0" name="bottom"/>
  <anchor x="1029" y="0" name="ogonek"/>
  <anchor x="565.0" y="1500" name="top"/>
  <outline>
    <contour>
      <point x="61" y="0" type="line"/>
      <point x="61" y="25" type="line"/>
      <point x="226" y="60" type="line"/>
      <point x="228" y="784" type="line"/>
      <point x="226" y="1440" type="line"/>
      <point x="61" y="1474" type="line"/>
      <point x="61" y="1500" type="line"/>
      <point x="975.7016129032" y="1500" type="line"/>
      <point x="975.7016129032" y="1180" type="line"/>
      <point x="952" y="1180" type="line"/>
      <point x="843" y="1470" type="line"/>
      <point x="436" y="1470" type="line"/>
      <point x="392" y="1452" type="line"/>
      <point x="390" y="784" type="line"/>
      <point x="392" y="55" type="line"/>
      <point x="442" y="28" type="line"/>
      <point x="904" y="28" type="line"/>
      <point x="1042.7016129032" y="350" type="line"/>
      <point x="1068.7016129032" y="350" type="line"/>
      <point x="1029.7016129032" y="0" type="line"/>
    </contour>
    <contour>
      <point x="315" y="771" type="line"/>
      <point x="315" y="801" type="line"/>
      <point x="747" y="808" type="line"/>
      <point x="817" y="987" type="line"/>
      <point x="843" y="987" type="line"/>
      <point x="843" y="585" type="line"/>
      <point x="817" y="585" type="line"/>
      <point x="747" y="764" type="line"/>
    </contour>
  </outline>
</glyph>
<glyph name="F" format="2">
  <advance width="968"/>
  <unicode hex="0046"/>
  <anchor x="484.0" y="0" name="bottom"/>
  <anchor x="537.0" y="1500" name="top"/>
  <outline>
    <contour>
      <point x="61" y="0" type="line"/>
      <point x="61" y="25" type="line"/>
      <point x="226" y="62" type="line"/>
      <point x="228" y="767" type="line"/>
      <point x="226" y="1437" type="line"/>
      <point x="61" y="1471" type="line"/>
      <point x="61" y="1500" type="line"/>
      <point x="936.1612903226" y="1500" type="line"/>
      <point x="936.1612903226" y="1170" type="line"/>
      <point x="909" y="1170" type="line"/>
      <point x="823" y="1470" type="line"/>
      <point x="416" y="1470" type="line"/>
      <point x="389" y="1447" type="line"/>
      <point x="391" y="767" type="line"/>
      <point x="393" y="57" type="line"/>
      <point x="578" y="25" type="line"/>
      <point x="578" y="0" type="line"/>
    </contour>
    <contour>
      <point x="308" y="768" type="line"/>
      <point x="308" y="797" type="line"/>
      <point x="714.1612903226" y="802" type="line"/>
      <point x="783" y="974" type="line"/>
      <point x="812.1612903226" y="974" type="line"/>
      <point x="812.1612903226" y="551" type="line"/>
      <point x="786.1612903226" y="551" type="line"/>
      <point x="714.1612903226" y="763" type="line"/>
    </contour>
  </outline>
</glyph>
<glyph name="G" format="2">
  <advance width="1322"/>
  <unicode hex="0047"/>
  <anchor x="709.0" y="0" name="bottom"/>
  <anchor x="693.0" y="1500" name="top"/>
  <outline>
    <contour>
      <point x="65" y="735" type="qcurve" smooth="yes"/>
      <point x="65" y="1083"/>
      <point x="418" y="1518"/>
      <point x="697" y="1518" type="qcurve" smooth="yes"/>
      <point x="812" y="1518"/>
      <point x="1014" y="1456"/>
      <point x="1077" y="1412" type="qcurve"/>
      <point x="1114" y="1489" type="line"/>
      <point x="1142" y="1489" type="line"/>
      <point x="1142" y="1075" type="line"/>
      <point x="1115" y="1075" type="line"/>
      <point x="1054" y="1278" type="line" smooth="yes"/>
      <point x="1023" y="1381"/>
      <point x="829" y="1483"/>
      <point x="693" y="1484" type="qcurve" smooth="yes"/>
      <point x="505" y="1485"/>
      <point x="243" y="1161"/>
      <point x="243" y="756" type="qcurve" smooth="yes"/>
      <point x="243" y="396"/>
      <point x="495" y="9"/>
      <point x="734" y="9" type="qcurve" smooth="yes"/>
      <point x="819" y="9"/>
      <point x="980" y="52"/>
      <point x="1046" y="95" type="qcurve"/>
      <point x="1046" y="617" type="line"/>
      <point x="893" y="652" type="line"/>
      <point x="893" y="677" type="line"/>
      <point x="1311" y="677" type="line"/>
      <point x="1311" y="652" type="line"/>
      <point x="1205" y="617" type="line"/>
      <point x="1205" y="184" type="line"/>
      <point x="1141" y="99"/>
      <point x="882" y="-26"/>
      <point x="710" y="-26" type="qcurve" smooth="yes"/>
      <point x="457" y="-26"/>
      <point x="65" y="379"/>
    </contour>
  </outline>
</glyph>
<glyph name="H" format="2">
  <advance width="1483"/>
  <unicode hex="0048"/>
  <anchor x="741.5" y="0" name="bottom"/>
  <anchor x="742" y="1083.0" name="center"/>
  <anchor x="741.5" y="1500" name="top"/>
  <outline>
    <contour>
      <point x="61" y="0" type="line"/>
      <point x="61" y="25" type="line"/>
      <point x="226" y="60" type="line"/>
      <point x="228" y="775" type="line"/>
      <point x="226" y="1437" type="line"/>
      <point x="61" y="1471" type="line"/>
      <point x="61" y="1500" type="line"/>
      <point x="558" y="1500" type="line"/>
      <point x="558" y="1471" type="line"/>
      <point x="393" y="1437" type="line"/>
      <point x="391" y="775" type="line"/>
      <point x="393" y="60" type="line"/>
      <point x="558" y="25" type="line"/>
      <point x="558" y="0" type="line"/>
    </contour>
    <contour>
      <point x="309" y="766" type="line"/>
      <point x="309" y="798" type="line"/>
      <point x="699" y="795" type="line"/>
      <point x="1167.6774193548" y="798" type="line"/>
      <point x="1167.6774193548" y="766" type="line"/>
      <point x="699" y="766" type="line"/>
    </contour>
    <contour>
      <point x="924.6774193548" y="0" type="line"/>
      <point x="924.6774193548" y="25" type="line"/>
      <point x="1090" y="60" type="line"/>
      <point x="1091.6774193548" y="775" type="line"/>
      <point x="1089.6774193548" y="1437" type="line"/>
      <point x="924.6774193548" y="1471" type="line"/>
      <point x="924.6774193548" y="1500" type="line"/>
      <point x="1421.6774193548" y="1500" type="line"/>
      <point x="1421.6774193548" y="1471" type="line"/>
      <point x="1256.6774193548" y="1437" type="line"/>
      <point x="1254.6774193548" y="775" type="line"/>
      <point x="1257" y="60" type="line"/>
      <point x="1421.6774193548" y="25" type="line"/>
      <point x="1421.6774193548" y="0" type="line"/>
    </contour>
  </outline>
</glyph>
<glyph name="I" format="2">
  <advance width="636"/>
  <unicode hex="0049"/>
  <outline>
    <contour>
      <point x="61.0" y="0.0" type="line"/>
      <point x="61.0" y="25.0" type="line"/>
      <point x="234.0" y="60.0" type="line"/>
      <point x="236.0" y="754.0" type="line"/>
      <point x="234.0" y="1437.0" type="line"/>
      <point x="61.0" y="1471.0" type="line"/>
      <point x="61.0" y="1500.0" type="line"/>
      <point x="575.0" y="1500.0" type="line"/>
      <point x="575.0" y="1471.0" type="line"/>
      <point x="402.0" y="1437.0" type="line"/>
      <point x="400.0" y="754.0" type="line"/>
      <point x="402.0" y="61.0" type="line"/>
      <point x="575.0" y="25.0" type="line"/>
      <point x="575.0" y="0.0" type="line"/>
    </contour>
  </outline>
</glyph>
<glyph name="K" format="2">
  <advance width="1248"/>
  <unicode hex="004B"/>
  <anchor x="694.0" y="0" name="bottom"/>
  <anchor x="684.0" y="1500" name="top"/>
  <outline>
    <contour>
      <point x="61" y="0" type="line"/>
      <point x="61" y="25" type="line"/>
      <point x="226" y="60" type="line"/>
      <point x="228" y="754" type="line"/>
      <point x="226" y="1437" type="line"/>
      <point x="61" y="1471" type="line"/>
      <point x="61" y="1500" type="line"/>
      <point x="558" y="1500" type="line"/>
      <point x="558" y="1471" type="line"/>
      <point x="392" y="1437" type="line"/>
      <point x="387" y="754" type="line"/>
      <point x="392" y="60" type="line"/>
      <point x="558" y="25" type="line"/>
      <point x="558" y="0" type="line"/>
    </contour>
    <contour>
      <point x="319" y="556" type="line"/>
      <point x="316" y="594" type="line"/>
      <point x="994" y="1427" type="line"/>
      <point x="822" y="1471" type="line"/>
      <point x="822" y="1500" type="line"/>
      <point x="1236" y="1500" type="line"/>
      <point x="1236" y="1471" type="line"/>
      <point x="1046" y="1427" type="line"/>
      <point x="594" y="886" type="line"/>
      <point x="575" y="863" type="line"/>
    </contour>
    <contour>
      <point x="518" y="813" type="line"/>
      <point x="614" y="932" type="line"/>
      <point x="1171" y="60" type="line"/>
      <point x="1312.4516129032" y="25" type="line"/>
      <point x="1312.4516129032" y="0" type="line"/>
      <point x="850.9838709677" y="0" type="line"/>
      <point x="850.9838709677" y="25" type="line"/>
      <point x="993" y="60" type="line"/>
    </contour>
  </outline>
</glyph>
<glyph name="L" format="2">
  <advance width="1112"/>
  <unicode hex="004C"/>
  <anchor x="556.0" y="0" name="bottom"/>
  <anchor x="806.0" y="750.0" name="center"/>
  <anchor x="410.0" y="1500" name="top"/>
  <anchor x="738.0" y="920" name="topright"/>
  <outline>
    <contour>
      <point x="61" y="0" type="line"/>
      <point x="61" y="25" type="line"/>
      <point x="226" y="57" type="line"/>
      <point x="228" y="754" type="line"/>
      <point x="226" y="1437" type="line"/>
      <point x="61" y="1471" type="line"/>
      <point x="61" y="1500" type="line"/>
      <point x="586" y="1500" type="line"/>
      <point x="586" y="1471" type="line"/>
      <point x="393" y="1437" type="line"/>
      <point x="391" y="754" type="line"/>
      <point x="393" y="53" type="line"/>
      <point x="458" y="28" type="line"/>
      <point x="912.564516129" y="28" type="line"/>
      <point x="1083.564516129" y="383" type="line"/>
      <point x="1111.564516129" y="383" type="line"/>
      <point x="1064.564516129" y="0" type="line"/>
    </contour>
  </outline>
</glyph>
<glyph name="M" format="2">
  <advance width="1816"/>
  <unicode hex="004D"/>
  <anchor x="908.0" y="0" name="bottom"/>
  <anchor x="908.0" y="1500" name="top"/>
  <outline>
    <contour>
      <point x="61" y="0" type="line"/>
      <point x="61" y="25" type="line"/>
      <point x="253" y="60" type="line"/>
      <point x="255" y="747" type="line"/>
      <point x="255" y="1437" type="line"/>
      <point x="61" y="1471" type="line"/>
      <point x="61" y="1500" type="line"/>
      <point x="444" y="1500" type="line"/>
      <point x="693" y="823" type="line"/>
      <point x="933" y="168" type="line"/>
      <point x="1161" y="813" type="line"/>
      <point x="1404" y="1500" type="line"/>
      <point x="1755" y="1500" type="line"/>
      <point x="1755" y="1471" type="line"/>
      <point x="1590" y="1437" type="line"/>
      <point x="1588" y="751" type="line"/>
      <point x="1590" y="60" type="line"/>
      <point x="1755" y="25" type="line"/>
      <point x="1755" y="0" type="line"/>
      <point x="1234" y="0" type="line"/>
      <point x="1234" y="25" type="line"/>
      <point x="1423" y="60" type="line"/>
      <point x="1425" y="751" type="line"/>
      <point x="1420" y="1433" type="line"/>
      <point x="1188" y="782" type="line"/>
      <point x="919" y="4" type="line"/>
      <point x="819" y="4" type="line"/>
      <point x="546" y="749" type="line"/>
      <point x="291" y="1445" type="line"/>
      <point x="286" y="747" type="line"/>
      <point x="289" y="60" type="line"/>
      <point x="487" y="25" type="line"/>
      <point x="487" y="0" type="line"/>
    </contour>
  </outline>
</glyph>
<glyph name="N" format="2">
  <advance width="1352"/>
  <unicode hex="004E"/>
  <anchor x="676.0" y="0" name="bottom"/>
  <anchor x="676.0" y="1500" name="top"/>
  <outline>
    <contour>
      <point x="61" y="0" type="line"/>
      <point x="61" y="25" type="line"/>
      <point x="243" y="60" type="line"/>
      <point x="247" y="753" type="line"/>
      <point x="245" y="1437" type="line"/>
      <point x="61" y="1471" type="line"/>
      <point x="61" y="1500" type="line"/>
      <point x="413" y="1500" type="line"/>
      <point x="767" y="810" type="line"/>
      <point x="1079" y="225" type="line"/>
      <point x="1079" y="756" type="line"/>
      <point x="1073" y="1437" type="line"/>
      <point x="853" y="1471" type="line"/>
      <point x="853" y="1500" type="line"/>
      <point x="1301" y="1500" type="line"/>
      <point x="1301" y="1471" type="line"/>
      <point x="1113" y="1437" type="line"/>
      <point x="1109" y="756" type="line"/>
      <point x="1109" y="0" type="line"/>
      <point x="1002" y="0" type="line"/>
      <point x="625" y="731" type="line"/>
      <point x="278" y="1402" type="line"/>
      <point x="276" y="751" type="line"/>
      <point x="283" y="60" type="line"/>
      <point x="498" y="25" type="line"/>
      <point x="498" y="0" type="line"/>
    </contour>
  </outline>
</glyph>
<glyph name="O" format="2">
  <advance width="1425"/>
  <unicode hex="004F"/>
  <outline>
    <contour>
      <point x="65.0" y="741.0" type="qcurve" smooth="yes"/>
      <point x="65.0" y="1103"/>
      <point x="457" y="1519"/>
      <point x="712" y="1519.0" type="qcurve" smooth="yes"/>
      <point x="967.0" y="1519.0"/>
      <point x="1360" y="1121"/>
      <point x="1360.0" y="766" type="qcurve" smooth="yes"/>
      <point x="1360" y="382"/>
      <point x="972.0" y="-26.0"/>
      <point x="715.7016129032259" y="-26.0" type="qcurve" smooth="yes"/>
      <point x="459" y="-26"/>
      <point x="65" y="371"/>
    </contour>
    <contour>
      <point x="243.0" y="753" type="qcurve" smooth="yes"/>
      <point x="243" y="377"/>
      <point x="512.5322580645161" y="5.0"/>
      <point x="722.7016129032259" y="5.0" type="qcurve" smooth="yes"/>
      <point x="932.5645161290323" y="5.0"/>
      <point x="1182" y="364.0"/>
      <point x="1182" y="752.0" type="qcurve" smooth="yes"/>
      <point x="1182" y="1111.0"/>
      <point x="918.8709677419355" y="1487.0"/>
      <point x="705.7016129032259" y="1487.0" type="qcurve" smooth="yes"/>
      <point x="494.55645161290323" y="1487.0"/>
      <point x="243.0" y="1140"/>
    </contour>
  </outline>
</glyph>
<glyph name="P" format="2">
  <advance width="1122"/>
  <unicode hex="0050"/>
  <anchor x="561.0" y="0" name="bottom"/>
  <anchor x="561.0" y="1500" name="top"/>
  <outline>
    <contour>
      <point x="61" y="0" type="line"/>
      <point x="61" y="25" type="line"/>
      <point x="226" y="62" type="line"/>
      <point x="228" y="754" type="line"/>
      <point x="226" y="1437" type="line"/>
      <point x="61" y="1471" type="line"/>
      <point x="61" y="1500" type="line"/>
      <point x="623.1532258065" y="1500" type="line" smooth="yes"/>
      <point x="841.8064516129" y="1500"/>
      <point x="1080.0241935484" y="1293.564516129"/>
      <point x="1080.0241935484" y="1085.564516129" type="qcurve" smooth="yes"/>
      <point x="1080.0241935484" y="881.564516129"/>
      <point x="839.6774193548" y="630"/>
      <point x="583.3790322581" y="630" type="qcurve" smooth="yes"/>
      <point x="520.4032258065" y="630"/>
      <point x="356" y="646"/>
      <point x="319" y="657" type="qcurve"/>
      <point x="328" y="686" type="line"/>
      <point x="378.2016129032" y="671.5403225806"/>
      <point x="500.9677419355" y="659"/>
      <point x="580.6612903226" y="659" type="qcurve" smooth="yes"/>
      <point x="741.1693548387" y="659"/>
      <point x="901.0241935484" y="862"/>
      <point x="901.0241935484" y="1093" type="qcurve" smooth="yes"/>
      <point x="901.0241935484" y="1286"/>
      <point x="729.7338709677" y="1472"/>
      <point x="580.0080645161" y="1472" type="qcurve" smooth="yes"/>
      <point x="421" y="1472" type="line"/>
      <point x="393" y="1448" type="line"/>
      <point x="391" y="764" type="line"/>
      <point x="393" y="57" type="line"/>
      <point x="575" y="25" type="line"/>
      <point x="575" y="0" type="line"/>
    </contour>
  </outline>
</glyph>
<glyph name="Q" format="2">
  <advance width="1426"/>
  <unicode hex="0051"/>
  <anchor x="713.0" y="0" name="bottom"/>
  <anchor x="713.0" y="1500" name="top"/>
  <outline>
    <contour>
      <point x="65" y="744.4596774194" type="qcurve" smooth="yes"/>
      <point x="65" y="1092"/>
      <point x="430.1693548387" y="1519"/>
      <point x="712.4193548387" y="1519" type="qcurve" smooth="yes"/>
      <point x="994.6693548387" y="1519"/>
      <point x="1359.8387096774" y="1117"/>
      <point x="1359.8387096774" y="754.435483871" type="qcurve" smooth="yes"/>
      <point x="1359.8387096774" y="398.0080645161"/>
      <point x="987.8790322581" y="-11.3306451613"/>
      <point x="713.8306451613" y="-11.3306451613" type="qcurve" smooth="yes"/>
      <point x="431.2258064516" y="-11.3306451613"/>
      <point x="65" y="397.1532258065"/>
    </contour>
    <contour>
      <point x="243" y="779.7177419355" type="qcurve" smooth="yes"/>
      <point x="243.435483871" y="373.3870967742"/>
      <point x="514.6612903226" y="17.5161290323"/>
      <point x="711.8306451613" y="17.5161290323" type="qcurve" smooth="yes"/>
      <point x="925.8225806452" y="17.5161290323"/>
      <point x="1180.4032258065" y="338.8467741935"/>
      <point x="1181.8387096774" y="758.435483871" type="qcurve" smooth="yes"/>
      <point x="1182.2741935484" y="1118.1532258065"/>
      <point x="914.8709677419" y="1487"/>
      <point x="713.7016129032" y="1487" type="qcurve" smooth="yes"/>
      <point x="498.5564516129" y="1487"/>
      <point x="241.564516129" y="1158.1532258065"/>
    </contour>
    <contour>
      <point x="207" y="-258" type="qcurve"/>
      <point x="188" y="-238" type="line"/>
      <point x="220" y="-197"/>
      <point x="441.7419354839" y="-77"/>
      <point x="495.7419354839" y="-50" type="qcurve"/>
      <point x="763.7419354839" y="201" type="line"/>
      <point x="793.7419354839" y="184" type="line"/>
      <point x="541" y="-67" type="line"/>
      <point x="1135" y="-246" type="line"/>
      <point x="1197" y="-267"/>
      <point x="1302.1935483871" y="-193"/>
      <point x="1344.1935483871" y="-110" type="qcurve"/>
      <point x="1369.1935483871" y="-123" type="line"/>
      <point x="1328.1935483871" y="-217"/>
      <point x="1157.1935483871" y="-367"/>
      <point x="1099.1935483871" y="-384" type="qcurve"/>
      <point x="505.7419354839" y="-194" type="line"/>
      <point x="430.7419354839" y="-168"/>
      <point x="290" y="-188"/>
    </contour>
  </outline>
</glyph>
<glyph name="R" format="2">
  <advance width="1183"/>
  <unicode hex="0052"/>
  <anchor x="592" y="0" name="bottom"/>
  <anchor x="519" y="1500" name="top"/>
  <outline>
    <contour>
      <point x="61" y="0" type="line"/>
      <point x="61" y="25" type="line"/>
      <point x="226" y="61" type="line"/>
      <point x="228" y="813" type="line"/>
      <point x="226" y="1437" type="line"/>
      <point x="61" y="1471" type="line"/>
      <point x="61" y="1500" type="line"/>
      <point x="627" y="1500" type="line" smooth="yes"/>
      <point x="835" y="1500"/>
      <point x="1030.9435483871" y="1317"/>
      <point x="1030.9435483871" y="1138" type="qcurve" smooth="yes"/>
      <point x="1030.9435483871" y="972"/>
      <point x="818.9596774194" y="752"/>
      <point x="640.7661290323" y="752" type="qcurve" smooth="yes"/>
      <point x="574.4032258065" y="752"/>
      <point x="378" y="758"/>
      <point x="329" y="762" type="qcurve"/>
      <point x="331" y="789" type="line"/>
      <point x="559" y="787" type="line" smooth="yes"/>
      <point x="718" y="786"/>
      <point x="862.3790322581" y="980"/>
      <point x="862.3790322581" y="1137" type="qcurve" smooth="yes"/>
      <point x="862.3790322581" y="1309"/>
      <point x="725" y="1470"/>
      <point x="583" y="1470" type="qcurve" smooth="yes"/>
      <point x="428" y="1470" type="line"/>
      <point x="395" y="1448" type="line"/>
      <point x="391" y="809" type="line"/>
      <point x="393" y="61" type="line"/>
      <point x="566" y="25" type="line"/>
      <point x="566" y="0" type="line"/>
    </contour>
    <contour>
      <point x="584.5403225806" y="760" type="line"/>
      <point x="735.5161290323" y="794.7177419355" type="line"/>
      <point x="1018.6048387097" y="288" type="line" smooth="yes"/>
      <point x="1119.9919354839" y="103.6935483871"/>
      <point x="1178" y="34"/>
      <point x="1256" y="25" type="qcurve"/>
      <point x="1256" y="0" type="line"/>
      <point x="1014" y="0" type="line"/>
      <point x="984" y="30" type="line"/>
    </contour>
  </outline>
</glyph>
<glyph name="S" format="2">
  <advance width="978"/>
  <unicode hex="0053"/>
  <anchor x="523.0" y="0" name="bottom"/>
  <anchor x="467.0" y="1500" name="top"/>
  <outline>
    <contour>
      <point x="47" y="1" type="line"/>
      <point x="47" y="423" type="line"/>
      <point x="74" y="423" type="line"/>
      <point x="136.7177419355" y="258" type="line" smooth="yes"/>
      <point x="182.435483871" y="138.1532258065"/>
      <point x="382.685483871" y="5"/>
      <point x="524.6451612903" y="5" type="qcurve" smooth="yes"/>
      <point x="667.0161290323" y="5"/>
      <point x="822.8225806452" y="174.4596774194"/>
      <point x="822.8225806452" y="310" type="qcurve" smooth="yes"/>
      <point x="822.8225806452" y="438.4838709677"/>
      <point x="642.5887096774" y="614.3548387097"/>
      <point x="447.3629032258" y="716.7419354839" type="qcurve" smooth="yes"/>
      <point x="244.1048387097" y="822.2338709677"/>
      <point x="77.7177419355" y="1010.9274193548"/>
      <point x="77.7177419355" y="1158.9516129032" type="qcurve" smooth="yes"/>
      <point x="77.7177419355" y="1318.7983870968"/>
      <point x="291" y="1518"/>
      <point x="468" y="1518" type="qcurve" smooth="yes"/>
      <point x="589" y="1518"/>
      <point x="742" y="1437"/>
      <point x="783" y="1396" type="qcurve"/>
      <point x="831.1048387097" y="1487" type="line"/>
      <point x="853.5403225806" y="1487" type="line"/>
      <point x="853.5403225806" y="1107" type="line"/>
      <point x="829" y="1106" type="line"/>
      <point x="779" y="1256" type="line" smooth="yes"/>
      <point x="743" y="1365"/>
      <point x="589" y="1487"/>
      <point x="465" y="1487" type="qcurve" smooth="yes"/>
      <point x="346" y="1487"/>
      <point x="190" y="1352"/>
      <point x="190" y="1246.8467741935" type="qcurve" smooth="yes"/>
      <point x="190" y="1119.6935483871"/>
      <point x="355.8467741935" y="975.4435483871"/>
      <point x="555.564516129" y="863.4112903226" type="qcurve" smooth="yes"/>
      <point x="736.7419354839" y="761.9435483871"/>
      <point x="945.1048387097" y="550.435483871"/>
      <point x="945.1048387097" y="392.8467741935" type="qcurve" smooth="yes"/>
      <point x="945.1048387097" y="216.1290322581"/>
      <point x="708.935483871" y="-25"/>
      <point x="520.1532258065" y="-25" type="qcurve" smooth="yes"/>
      <point x="393.1451612903" y="-25"/>
      <point x="222.4919354839" y="53"/>
      <point x="154.4112903226" y="123" type="qcurve"/>
      <point x="75" y="1" type="line"/>
    </contour>
  </outline>
</glyph>
<glyph name="T" format="2">
  <advance width="1116"/>
  <unicode hex="0054"/>
  <outline>
    <contour>
      <point x="10.0" y="1165.0" type="line"/>
      <point x="10.0" y="1500.0" type="line"/>
      <point x="1106" y="1500.0" type="line"/>
      <point x="1106" y="1165.0" type="line"/>
      <point x="1079" y="1165.0" type="line"/>
      <point x="971" y="1471.0" type="line"/>
      <point x="684" y="1471.0" type="line"/>
      <point x="639" y="1459.0" type="line"/>
      <point x="639" y="754.0" type="line"/>
      <point x="641" y="61.0" type="line"/>
      <point x="813" y="25.0" type="line"/>
      <point x="813" y="0.0" type="line"/>
      <point x="299" y="0.0" type="line"/>
      <point x="299" y="25.0" type="line"/>
      <point x="473" y="61.0" type="line"/>
      <point x="475" y="754.0" type="line"/>
      <point x="477" y="1459.0" type="line"/>
      <point x="432" y="1471.0" type="line"/>
      <point x="135.0" y="1471.0" type="line"/>
      <point x="37.0" y="1165.0" type="line"/>
    </contour>
  </outline>
</glyph>
<glyph name="U" format="2">
  <advance width="1406"/>
  <unicode hex="0055"/>
  <anchor x="703.0" y="0" name="bottom"/>
  <anchor x="908" y="0" name="ogonek"/>
  <anchor x="703.0" y="1500" name="top"/>
  <anchor x="1408.5725806452" y="1500" name="topright"/>
  <outline>
    <contour>
      <point x="55" y="1471" type="line"/>
      <point x="55" y="1500" type="line"/>
      <point x="552" y="1500" type="line"/>
      <point x="552" y="1471" type="line"/>
      <point x="388" y="1437" type="line"/>
      <point x="383" y="794" type="line"/>
      <point x="386" y="403.4919354839" type="line" smooth="yes"/>
      <point x="388.2822580645" y="203.4919354839"/>
      <point x="554.9112903226" y="21.7177419355"/>
      <point x="750.5161290323" y="21.7177419355" type="qcurve" smooth="yes"/>
      <point x="943.6693548387" y="21.7177419355"/>
      <point x="1161.5483870968" y="226.1129032258"/>
      <point x="1161.7016129032" y="432.1129032258" type="qcurve" smooth="yes"/>
      <point x="1162.5725806452" y="794" type="line"/>
      <point x="1160.5725806452" y="1437" type="line"/>
      <point x="942.5725806452" y="1471" type="line"/>
      <point x="942.5725806452" y="1500" type="line"/>
      <point x="1408.5725806452" y="1500" type="line"/>
      <point x="1408.5725806452" y="1471" type="line"/>
      <point x="1196.5725806452" y="1437" type="line"/>
      <point x="1196.5725806452" y="794" type="line"/>
      <point x="1195.1612903226" y="434.8790322581" type="line" smooth="yes"/>
      <point x="1193.75" y="200.7016129032"/>
      <point x="945.9193548387" y="-25"/>
      <point x="723.0564516129" y="-25" type="qcurve" smooth="yes"/>
      <point x="488.3790322581" y="-25"/>
      <point x="218.435483871" y="200.7661290323"/>
      <point x="219.7177419355" y="426.1612903226" type="qcurve" smooth="yes"/>
      <point x="222" y="794" type="line"/>
      <point x="220" y="1437" type="line"/>
    </contour>
  </outline>
</glyph>
<glyph name="V" format="2">
  <advance width="1241"/>
  <unicode hex="0056"/>
  <anchor x="620.5" y="0" name="bottom"/>
  <anchor x="620.5" y="1500" name="top"/>
  <outline>
    <contour>
      <point x="-46" y="1473" type="line"/>
      <point x="-46" y="1500" type="line"/>
      <point x="407.3064516129" y="1500" type="line"/>
      <point x="407.3064516129" y="1473" type="line"/>
      <point x="260.3064516129" y="1432" type="line"/>
      <point x="464.1935483871" y="817.0725806452" type="line"/>
      <point x="685.4919354839" y="157.1451612903" type="line"/>
      <point x="884.0483870968" y="811.8709677419" type="line"/>
      <point x="1080.5241935484" y="1438" type="line"/>
      <point x="882.5241935484" y="1473" type="line"/>
      <point x="882.5241935484" y="1500" type="line"/>
      <point x="1309.6774193548" y="1500" type="line"/>
      <point x="1309.6774193548" y="1473" type="line"/>
      <point x="1114.6774193548" y="1436" type="line"/>
      <point x="913.3548387097" y="800.1774193548" type="line"/>
      <point x="681.3387096774" y="-6" type="line"/>
      <point x="572.3387096774" y="-6" type="line"/>
      <point x="317.8387096774" y="762.7096774194" type="line"/>
      <point x="89" y="1434" type="line"/>
    </contour>
  </outline>
</glyph>
<glyph name="W" format="2">
  <advance width="1811"/>
  <unicode hex="0057"/>
  <anchor x="905.5" y="0" name="bottom"/>
  <anchor x="905.5" y="1500" name="top"/>
  <outline>
    <contour>
      <point x="-43" y="1473" type="line"/>
      <point x="-43" y="1500" type="line"/>
      <point x="425" y="1500" type="line"/>
      <point x="425" y="1473" type="line"/>
      <point x="259" y="1432" type="line"/>
      <point x="455" y="792" type="line"/>
      <point x="641.0483870968" y="187.7096774194" type="line"/>
      <point x="819.185483871" y="797.4677419355" type="line"/>
      <point x="919.9838709677" y="1164.1774193548" type="line"/>
      <point x="941.9838709677" y="1114" type="line"/>
      <point x="849.6209677419" y="784.9032258065" type="line"/>
      <point x="633.2258064516" y="-6" type="line"/>
      <point x="527.2258064516" y="-6" type="line"/>
      <point x="305.6532258065" y="745.8629032258" type="line"/>
      <point x="92" y="1434" type="line"/>
    </contour>
    <contour>
      <point x="618.1612903226" y="1479" type="line"/>
      <point x="618.1612903226" y="1500" type="line"/>
      <point x="1060" y="1500" type="line"/>
      <point x="1060" y="1479" type="line"/>
      <point x="917" y="1438" type="line"/>
      <point x="1096" y="801" type="line"/>
      <point x="1273.9193548387" y="193.7096774194" type="line"/>
      <point x="1449.9032258065" y="790.9193548387" type="line"/>
      <point x="1631.1451612903" y="1434" type="line"/>
      <point x="1429.1451612903" y="1473" type="line"/>
      <point x="1429.1451612903" y="1500" type="line"/>
      <point x="1875.3225806452" y="1500" type="line"/>
      <point x="1875.3225806452" y="1473" type="line"/>
      <point x="1664.3225806452" y="1433" type="line"/>
      <point x="1478.9274193548" y="781.9193548387" type="line"/>
      <point x="1259.0967741935" y="-6" type="line"/>
      <point x="1160.0967741935" y="-6" type="line"/>
      <point x="951.064516129" y="749.3306451613" type="line"/>
      <point x="752.1612903226" y="1440" type="line"/>
    </contour>
  </outline>
</glyph>
<glyph name="X" format="2">
  <advance width="1185"/>
  <unicode hex="0058"/>
  <anchor x="592.5" y="0" name="bottom"/>
  <anchor x="592.5" y="1500" name="top"/>
  <outline>
    <contour>
      <point x="-54" y="0" type="line"/>
      <point x="-54" y="25" type="line"/>
      <point x="135" y="57" type="line"/>
      <point x="565.0241935484" y="810.6048387097" type="line"/>
      <point x="586.8225806452" y="819.0725806452" type="line"/>
      <point x="950.2096774194" y="1443" type="line"/>
      <point x="759.2096774194" y="1471" type="line"/>
      <point x="759.2096774194" y="1500" type="line"/>
      <point x="1180.2096774194" y="1500" type="line"/>
      <point x="1180.2096774194" y="1471" type="line"/>
      <point x="986.2096774194" y="1442" type="line"/>
      <point x="606.9274193548" y="796.2580645161" type="line"/>
      <point x="586.2580645161" y="788.9193548387" type="line"/>
      <point x="172" y="55" type="line"/>
      <point x="367" y="25" type="line"/>
      <point x="367" y="0" type="line"/>
    </contour>
    <contour>
      <point x="-15" y="1471" type="line"/>
      <point x="-15" y="1500" type="line"/>
      <point x="441.8225806452" y="1500" type="line"/>
      <point x="441.8225806452" y="1471" type="line"/>
      <point x="306.8225806452" y="1439" type="line"/>
      <point x="631.9758064516" y="873.4838709677" type="line"/>
      <point x="1117.2096774194" y="60" type="line"/>
      <point x="1253.2096774194" y="25" type="line"/>
      <point x="1253.2096774194" y="0" type="line"/>
      <point x="780.3870967742" y="0" type="line"/>
      <point x="780.3870967742" y="25" type="line"/>
      <point x="932" y="60" type="line"/>
      <point x="541" y="735" type="line"/>
      <point x="121" y="1440" type="line"/>
    </contour>
  </outline>
</glyph>
<glyph name="Y" format="2">
  <advance width="1138"/>
  <unicode hex="0059"/>
  <anchor x="569.0" y="0" name="bottom"/>
  <anchor x="593.0" y="1500" name="top"/>
  <outline>
    <contour>
      <point x="-61" y="1471" type="line"/>
      <point x="-61" y="1500" type="line"/>
      <point x="392.8225806452" y="1500" type="line"/>
      <point x="392.8225806452" y="1471" type="line"/>
      <point x="257" y="1436" type="line"/>
      <point x="451" y="1074" type="line"/>
      <point x="628" y="735" type="line"/>
      <point x="797" y="1073" type="line"/>
      <point x="978.9677419355" y="1444" type="line"/>
      <point x="781.9677419355" y="1471" type="line"/>
      <point x="781.9677419355" y="1500" type="line"/>
      <point x="1203.9677419355" y="1500" type="line"/>
      <point x="1203.9677419355" y="1471" type="line"/>
      <point x="1016.9677419355" y="1444" type="line"/>
      <point x="821" y="1059" type="line"/>
      <point x="652.9838709677" y="703" type="line"/>
      <point x="654.9838709677" y="60" type="line"/>
      <point x="825.9838709677" y="27" type="line"/>
      <point x="825.9838709677" y="0" type="line"/>
      <point x="313.9838709677" y="0" type="line"/>
      <point x="313.9838709677" y="27" type="line"/>
      <point x="486.9838709677" y="60" type="line"/>
      <point x="488.9838709677" y="672" type="line"/>
      <point x="318" y="1010" type="line"/>
      <point x="70" y="1445" type="line"/>
    </contour>
  </outline>
</glyph>
<glyph name="Z" format="2">
  <advance width="1022"/>
  <unicode hex="005A"/>
  <anchor x="511.0" y="0" name="bottom"/>
  <anchor x="511.0" y="1500" name="top"/>
  <outline>
    <contour>
      <point x="52" y="0" type="line"/>
      <point x="34" y="44" type="line"/>
      <point x="780" y="1464" type="line"/>
      <point x="774" y="1470" type="line"/>
      <point x="197" y="1470" type="line"/>
      <point x="95" y="1124" type="line"/>
      <point x="66" y="1124" type="line"/>
      <point x="66" y="1500" type="line"/>
      <point x="958.564516129" y="1500" type="line"/>
      <point x="958.564516129" y="1460" type="line"/>
      <point x="214.6451612903" y="42" type="line"/>
      <point x="219.6451612903" y="28" type="line"/>
      <point x="842" y="28" type="line"/>
      <point x="982.564516129" y="351" type="line"/>
      <point x="1008.564516129" y="351" type="line"/>
      <point x="968.564516129" y="0" type="line"/>
    </contour>
  </outline>
</glyph>
<glyph name="bracketright" format="2">
	<unicode hex="005D"/>
	<advance width="586"/>
	<outline>
		<contour>
			<point x="34" y="-150" type="line"/>
			<point x="34" y="-121" type="line"/>
			<point x="326.4516129032" y="-108" type="line"/>
			<point x="328.4516129032" y="508" type="line"/>
			<point x="326.4516129032" y="1458" type="line"/>
			<point x="34" y="1471" type="line"/>
			<point x="34" y="1500" type="line"/>
			<point x="473.4516129032" y="1500" type="line"/>
			<point x="473.4516129032" y="1472" type="line"/>
			<point x="461.4516129032" y="1458" type="line"/>
			<point x="455.4516129032" y="508" type="line"/>
			<point x="461.4516129032" y="-108" type="line"/>
			<point x="473.4516129032" y="-122" type="line"/>
			<point x="473.4516129032" y="-150" type="line"/>
		</contour>
	</outline>
</glyph>
<glyph name="a" format="2">
  <advance width="874"/>
  <unicode hex="0061"/>
  <guideline x="379" y="855" angle="90" name="center" identifier="hseObYfMm6"/>
  <anchor x="437.0" y="0" name="bottom"/>
  <anchor x="646" y="0" name="ogonek"/>
  <anchor x="379.0" y="920" name="top"/>
  <outline>
    <contour>
      <point x="33" y="214" type="qcurve" smooth="yes"/>
      <point x="33" y="335"/>
      <point x="301" y="505"/>
      <point x="614" y="568" type="qcurve"/>
      <point x="618" y="546" type="line"/>
      <point x="359" y="489"/>
      <point x="196" y="363"/>
      <point x="196" y="250" type="qcurve" smooth="yes"/>
      <point x="196" y="142"/>
      <point x="284" y="50"/>
      <point x="356" y="50" type="qcurve" smooth="yes"/>
      <point x="423" y="50"/>
      <point x="543" y="128"/>
      <point x="561" y="197" type="qcurve"/>
      <point x="564" y="543" type="line" smooth="yes"/>
      <point x="566" y="757"/>
      <point x="460" y="906"/>
      <point x="378" y="906" type="qcurve" smooth="yes"/>
      <point x="306" y="906"/>
      <point x="203" y="859"/>
      <point x="186" y="830" type="qcurve"/>
      <point x="225" y="808"/>
      <point x="270" y="748"/>
      <point x="272" y="713" type="qcurve" smooth="yes"/>
      <point x="274" y="678"/>
      <point x="227" y="635"/>
      <point x="194" y="635" type="qcurve" smooth="yes"/>
      <point x="160" y="635"/>
      <point x="110" y="691"/>
      <point x="110" y="747" type="qcurve" smooth="yes"/>
      <point x="110" y="823"/>
      <point x="278" y="941"/>
      <point x="395" y="941" type="qcurve" smooth="yes"/>
      <point x="553" y="941"/>
      <point x="713" y="767"/>
      <point x="715" y="554" type="qcurve" smooth="yes"/>
      <point x="720" y="56" type="line"/>
      <point x="839" y="21" type="line"/>
      <point x="839" y="0" type="line"/>
      <point x="600" y="0" type="line"/>
      <point x="574" y="27" type="line"/>
      <point x="565" y="135" type="line"/>
      <point x="537" y="79"/>
      <point x="384" y="-13"/>
      <point x="275" y="-13" type="qcurve" smooth="yes"/>
      <point x="163" y="-13"/>
      <point x="33" y="107"/>
    </contour>
  </outline>
</glyph>
<glyph name="c" format="2">
  <advance width="814"/>
  <unicode hex="0063"/>
  <anchor x="467.0" y="0" name="bottom"/>
  <anchor x="462.0" y="920" name="top"/>
  <outline>
    <contour>
      <point x="48" y="457" type="qcurve" smooth="yes"/>
      <point x="48" y="671"/>
      <point x="283" y="942"/>
      <point x="461" y="942" type="qcurve" smooth="yes"/>
      <point x="539" y="942"/>
      <point x="658" y="891"/>
      <point x="684" y="860" type="qcurve"/>
      <point x="727" y="944" type="line"/>
      <point x="747" y="944" type="line"/>
      <point x="747" y="630" type="line"/>
      <point x="724" y="630" type="line"/>
      <point x="700" y="716" type="line" smooth="yes"/>
      <point x="671" y="818"/>
      <point x="548" y="906"/>
      <point x="465" y="906" type="qcurve" smooth="yes"/>
      <point x="347" y="906"/>
      <point x="209" y="697"/>
      <point x="209" y="469" type="qcurve" smooth="yes"/>
      <point x="209" y="232"/>
      <point x="377" y="47"/>
      <point x="493" y="47" type="qcurve" smooth="yes"/>
      <point x="590" y="47"/>
      <point x="732" y="127"/>
      <point x="784" y="210" type="qcurve"/>
      <point x="802" y="197" type="line"/>
      <point x="763" y="107"/>
      <point x="600" y="-22"/>
      <point x="466" y="-22" type="qcurve" smooth="yes"/>
      <point x="284" y="-22"/>
      <point x="48" y="235"/>
    </contour>
  </outline>
</glyph>
<glyph name="d" format="2">
  <advance width="1054"/>
  <unicode hex="0064"/>
  <anchor x="527.0" y="0" name="bottom"/>
  <anchor x="692.0" y="1158.0" name="center"/>
  <anchor x="527.0" y="1512" name="top"/>
  <anchor x="889" y="920" name="topright"/>
  <outline>
    <contour>
      <point x="51" y="444" type="qcurve" smooth="yes"/>
      <point x="51" y="690"/>
      <point x="298" y="952"/>
      <point x="492" y="952" type="qcurve" smooth="yes"/>
      <point x="566" y="952"/>
      <point x="704" y="903"/>
      <point x="734" y="870" type="qcurve"/>
      <point x="730" y="1437" type="line"/>
      <point x="574" y="1476" type="line"/>
      <point x="574" y="1500" type="line"/>
      <point x="844" y="1512" type="line"/>
      <point x="873" y="1511" type="line"/>
      <point x="890" y="1479" type="line"/>
      <point x="887" y="529" type="line"/>
      <point x="896" y="56" type="line"/>
      <point x="1017" y="21" type="line"/>
      <point x="1017" y="0" type="line"/>
      <point x="780" y="0" type="line"/>
      <point x="754" y="27" type="line"/>
      <point x="743" y="139" type="line"/>
      <point x="713" y="88"/>
      <point x="567" y="-13"/>
      <point x="438" y="-13" type="qcurve" smooth="yes"/>
      <point x="284" y="-13"/>
      <point x="51" y="213"/>
    </contour>
    <contour>
      <point x="214" y="465" type="qcurve" smooth="yes"/>
      <point x="214" y="210"/>
      <point x="359" y="26"/>
      <point x="467" y="26" type="qcurve" smooth="yes"/>
      <point x="568" y="26"/>
      <point x="704" y="119"/>
      <point x="739" y="187" type="qcurve"/>
      <point x="739" y="528" type="line"/>
      <point x="736" y="803" type="line"/>
      <point x="711" y="843"/>
      <point x="598" y="914"/>
      <point x="512" y="914" type="qcurve" smooth="yes"/>
      <point x="380" y="914"/>
      <point x="214" y="687"/>
    </contour>
  </outline>
</glyph>
<glyph name="e" format="2">
  <advance width="872"/>
  <unicode hex="0065"/>
  <anchor x="493.0" y="0" name="bottom"/>
  <anchor x="622" y="0" name="ogonek"/>
  <anchor x="446.0" y="920" name="top"/>
  <outline>
    <contour>
      <point x="48" y="464" type="qcurve" smooth="yes"/>
      <point x="48" y="688"/>
      <point x="289" y="942"/>
      <point x="452" y="942" type="qcurve" smooth="yes"/>
      <point x="629" y="942"/>
      <point x="835" y="721"/>
      <point x="843" y="529" type="qcurve"/>
      <point x="844" y="504" type="line"/>
      <point x="185" y="504" type="line"/>
      <point x="185" y="541" type="line"/>
      <point x="680" y="541" type="line"/>
      <point x="671" y="692"/>
      <point x="561" y="914"/>
      <point x="442" y="914" type="qcurve" smooth="yes"/>
      <point x="347" y="914"/>
      <point x="216" y="720"/>
      <point x="216" y="471" type="qcurve" smooth="yes"/>
      <point x="216" y="221"/>
      <point x="405" y="42"/>
      <point x="531" y="42" type="qcurve" smooth="yes"/>
      <point x="613" y="42"/>
      <point x="770" y="128"/>
      <point x="817" y="189" type="qcurve"/>
      <point x="834" y="176" type="line"/>
      <point x="791" y="99"/>
      <point x="607" y="-22"/>
      <point x="493" y="-22" type="qcurve" smooth="yes"/>
      <point x="301" y="-22"/>
      <point x="48" y="239"/>
    </contour>
  </outline>
</glyph>
<glyph name="i" format="2">
  <advance width="534"/>
  <unicode hex="0069"/>
  <anchor x="267.0" y="0" name="bottom"/>
  <anchor x="267.0" y="920" name="top"/>
  <anchor x="107" y="0" name="ogonek"/>
  <outline>
    <contour>
      <point x="59" y="0" type="line"/>
      <point x="59" y="21" type="line"/>
      <point x="200" y="56" type="line"/>
      <point x="202" y="477" type="line"/>
      <point x="196" y="830" type="line"/>
      <point x="53" y="865" type="line"/>
      <point x="53" y="889" type="line"/>
      <point x="291" y="927" type="line"/>
      <point x="325" y="927" type="line"/>
      <point x="360" y="888" type="line"/>
      <point x="353" y="477" type="line"/>
      <point x="355" y="56" type="line"/>
      <point x="484" y="21" type="line"/>
      <point x="484" y="0" type="line"/>
    </contour>
    <contour>
      <point x="169" y="1230" type="qcurve" smooth="yes"/>
      <point x="169" y="1271"/>
      <point x="226" y="1331"/>
      <point x="271" y="1331" type="qcurve" smooth="yes"/>
      <point x="316" y="1331"/>
      <point x="374" y="1271"/>
      <point x="374" y="1230" type="qcurve" smooth="yes"/>
      <point x="374" y="1188"/>
      <point x="316" y="1128"/>
      <point x="271" y="1128" type="qcurve" smooth="yes"/>
      <point x="226" y="1128"/>
      <point x="169" y="1188"/>
    </contour>
  </outline>
</glyph>
<glyph name="l" format="2">
  <advance width="528"/>
  <unicode hex="006C"/>
  <anchor x="264.0" y="0" name="bottom"/>
  <anchor x="264.0" y="750.0" name="center"/>
  <anchor x="264.0" y="1512" name="top"/>
  <anchor x="343" y="921" name="topright"/>
  <outline>
    <contour>
      <point x="56" y="0" type="line"/>
      <point x="56" y="21" type="line"/>
      <point x="189" y="56" type="line"/>
      <point x="191" y="527" type="line"/>
      <point x="189" y="1436" type="line"/>
      <point x="35" y="1476" type="line"/>
      <point x="35" y="1500" type="line"/>
      <point x="293" y="1512" type="line"/>
      <point x="323" y="1511" type="line"/>
      <point x="344" y="1480" type="line"/>
      <point x="342" y="527" type="line"/>
      <point x="344" y="56" type="line"/>
      <point x="479" y="21" type="line"/>
      <point x="479" y="0" type="line"/>
    </contour>
  </outline>
</glyph>
<glyph name="n" format="2">
  <advance width="1109"/>
  <unicode hex="006E"/>
  <anchor x="554.5" y="0" name="bottom"/>
  <anchor x="554.5" y="920" name="top"/>
  <outline>
    <contour>
      <point x="56" y="0" type="line"/>
      <point x="56" y="21" type="line"/>
      <point x="178" y="56" type="line"/>
      <point x="181" y="469" type="line"/>
      <point x="176" y="830" type="line"/>
      <point x="56" y="865" type="line"/>
      <point x="56" y="889" type="line"/>
      <point x="307" y="923" type="line"/>
      <point x="326" y="912" type="line"/>
      <point x="329" y="778" type="line"/>
      <point x="372.7983870968" y="848"/>
      <point x="548.8870967742" y="942"/>
      <point x="655.6370967742" y="942" type="qcurve" smooth="yes"/>
      <point x="799.9032258065" y="942"/>
      <point x="939.1693548387" y="788"/>
      <point x="939.1693548387" y="666" type="qcurve" smooth="yes"/>
      <point x="939.1693548387" y="594"/>
      <point x="934.4516129032" y="535"/>
      <point x="935.4516129032" y="491" type="qcurve" smooth="yes"/>
      <point x="940.4516129032" y="56" type="line"/>
      <point x="1060.4516129032" y="21" type="line"/>
      <point x="1060.4516129032" y="0" type="line"/>
      <point x="661.4516129032" y="0" type="line"/>
      <point x="661.4516129032" y="21" type="line"/>
      <point x="782.4516129032" y="56" type="line"/>
      <point x="784.4516129032" y="467" type="line"/>
      <point x="784.7338709677" y="681.1774193548" type="line" smooth="yes"/>
      <point x="785.0161290323" y="781.1048387097"/>
      <point x="687.314516129" y="873"/>
      <point x="597.8709677419" y="873" type="qcurve" smooth="yes"/>
      <point x="505.4274193548" y="873"/>
      <point x="365.0806451613" y="795"/>
      <point x="330" y="740" type="qcurve"/>
      <point x="330" y="469" type="line"/>
      <point x="333" y="56" type="line"/>
      <point x="452" y="21" type="line"/>
      <point x="452" y="0" type="line"/>
    </contour>
  </outline>
</glyph>
<glyph name="o" format="2">
  <advance width="1045"/>
  <unicode hex="006F"/>
  <anchor x="522.5" y="0" name="bottom"/>
  <anchor x="522.5" y="460.0" name="center"/>
  <anchor x="673" y="0" name="ogonek"/>
  <anchor x="522.5" y="920" name="top"/>
  <anchor x="678" y="920" name="topright"/>
  <outline>
    <contour>
      <point x="48" y="460" type="qcurve" smooth="yes"/>
      <point x="48" y="673"/>
      <point x="312.8870967742" y="942"/>
      <point x="520.8225806452" y="942" type="qcurve" smooth="yes"/>
      <point x="728.7580645161" y="942"/>
      <point x="996.9274193548" y="679"/>
      <point x="996.9274193548" y="466" type="qcurve" smooth="yes"/>
      <point x="996.9274193548" y="252"/>
      <point x="735.3225806452" y="-20"/>
      <point x="525.3870967742" y="-20" type="qcurve" smooth="yes"/>
      <point x="315.1693548387" y="-20"/>
      <point x="48" y="236"/>
    </contour>
    <contour>
      <point x="214" y="479" type="qcurve" smooth="yes"/>
      <point x="214.2822580645" y="235"/>
      <point x="386.1693548387" y="7"/>
      <point x="519.1048387097" y="7" type="qcurve" smooth="yes"/>
      <point x="660.8870967742" y="7"/>
      <point x="831.9274193548" y="206"/>
      <point x="830.9274193548" y="461" type="qcurve" smooth="yes"/>
      <point x="830.9274193548" y="701"/>
      <point x="653.0403225806" y="913"/>
      <point x="521.3870967742" y="913" type="qcurve" smooth="yes"/>
      <point x="378.7580645161" y="913"/>
      <point x="214" y="711"/>
    </contour>
  </outline>
</glyph>
<glyph name="s" format="2">
  <advance width="721"/>
  <unicode hex="0073"/>
  <anchor x="382" y="0" name="bottom"/>
  <anchor x="328" y="920" name="top"/>
  <outline>
    <contour>
      <point x="39" y="0" type="line"/>
      <point x="39" y="303" type="line"/>
      <point x="64" y="303" type="line"/>
      <point x="103" y="199" type="line" smooth="yes"/>
      <point x="141" y="98"/>
      <point x="275" y="5"/>
      <point x="382" y="5" type="qcurve" smooth="yes"/>
      <point x="480" y="5"/>
      <point x="586" y="105"/>
      <point x="586" y="197" type="qcurve" smooth="yes"/>
      <point x="586" y="284"/>
      <point x="441" y="380"/>
      <point x="307" y="437" type="qcurve" smooth="yes"/>
      <point x="172" y="497"/>
      <point x="66" y="607"/>
      <point x="66" y="703" type="qcurve" smooth="yes"/>
      <point x="66" y="808"/>
      <point x="201" y="942"/>
      <point x="337" y="942" type="qcurve" smooth="yes"/>
      <point x="399" y="942"/>
      <point x="518" y="897"/>
      <point x="542" y="878" type="qcurve"/>
      <point x="594" y="944" type="line"/>
      <point x="617" y="944" type="line"/>
      <point x="617" y="629" type="line"/>
      <point x="594" y="629" type="line"/>
      <point x="572" y="701" type="line" smooth="yes"/>
      <point x="537" y="817"/>
      <point x="400" y="915"/>
      <point x="326" y="915" type="qcurve" smooth="yes"/>
      <point x="245" y="915"/>
      <point x="161" y="843"/>
      <point x="161" y="784" type="qcurve" smooth="yes"/>
      <point x="161" y="717"/>
      <point x="283" y="615"/>
      <point x="413" y="562" type="qcurve" smooth="yes"/>
      <point x="543" y="507"/>
      <point x="682" y="379"/>
      <point x="682" y="256" type="qcurve" smooth="yes"/>
      <point x="682" y="138"/>
      <point x="508" y="-20"/>
      <point x="389" y="-20" type="qcurve" smooth="yes"/>
      <point x="273" y="-20"/>
      <point x="149" y="40"/>
      <point x="121" y="67" type="qcurve"/>
      <point x="61" y="0" type="line"/>
    </contour>
  </outline>
</glyph>
<glyph name="u" format="2">
  <advance width="1040"/>
  <unicode hex="0075"/>
  <outline>
    <contour>
      <point x="42.0" y="865.0" type="line"/>
      <point x="42.0" y="889.0" type="line"/>
      <point x="265.0" y="923.0" type="line"/>
      <point x="300.0" y="923.0" type="line"/>
      <point x="319.0" y="887.0" type="line"/>
      <point x="317.0" y="463.0" type="line"/>
      <point x="317.0" y="274.0" type="line" smooth="yes"/>
      <point x="317.0" y="128.0"/>
      <point x="405.0" y="40.0"/>
      <point x="478.0" y="40.0" type="qcurve" smooth="yes"/>
      <point x="537.0" y="40.0"/>
      <point x="671.0" y="108.0"/>
      <point x="711.0" y="184.0" type="qcurve"/>
      <point x="713.0" y="463.0" type="line"/>
      <point x="711.0" y="835.0" type="line"/>
      <point x="592.0" y="865.0" type="line"/>
      <point x="592.0" y="889.0" type="line"/>
      <point x="811.0" y="923.0" type="line"/>
      <point x="846.0" y="923.0" type="line"/>
      <point x="866.0" y="887.0" type="line"/>
      <point x="864.0" y="463.0" type="line"/>
      <point x="866.0" y="83.0" type="line"/>
      <point x="991.0" y="53.0" type="line"/>
      <point x="991.0" y="31.0" type="line"/>
      <point x="771.0" y="-3.0" type="line"/>
      <point x="736.0" y="24.0" type="line"/>
      <point x="711.0" y="142.0" type="line"/>
      <point x="670.0" y="71.0"/>
      <point x="505.0" y="-10.0"/>
      <point x="414.0" y="-10.0" type="qcurve" smooth="yes"/>
      <point x="290.0" y="-10.0"/>
      <point x="169.0" y="125.0"/>
      <point x="169.0" y="259.0" type="qcurve" smooth="yes"/>
      <point x="169.0" y="339.0"/>
      <point x="169.0" y="457.0"/>
      <point x="169.0" y="463.0" type="qcurve" smooth="yes"/>
      <point x="164.0" y="835.0" type="line"/>
    </contour>
  </outline>
</glyph>
<glyph name="w" format="2">
  <advance width="1328"/>
  <unicode hex="0077"/>
  <outline>
    <contour>
      <point x="-28.0" y="897.0" type="line"/>
      <point x="-28.0" y="920.0" type="line"/>
      <point x="338.0" y="920.0" type="line"/>
      <point x="338.0" y="897.0" type="line"/>
      <point x="226.0" y="860.0" type="line"/>
      <point x="346.0" y="488.0" type="line"/>
      <point x="469.0" y="103.0" type="line"/>
      <point x="574.0" y="396.0" type="line"/>
      <point x="678.0" y="680.0" type="line"/>
      <point x="697.0" y="639.0" type="line"/>
      <point x="599.0" y="383.0" type="line"/>
      <point x="461.0" y="-6.0" type="line"/>
      <point x="359.0" y="-6.0" type="line"/>
      <point x="214.0" y="451.0" type="line"/>
      <point x="77.0" y="862.0" type="line"/>
    </contour>
    <contour>
      <point x="447.0" y="897.0" type="line"/>
      <point x="447.0" y="920.0" type="line"/>
      <point x="810.0" y="920.0" type="line"/>
      <point x="810.0" y="897.0" type="line"/>
      <point x="694.0" y="860.0" type="line"/>
      <point x="823.0" y="459.0" type="line"/>
      <point x="933.0" y="104.0" type="line"/>
      <point x="1044.0" y="458.0" type="line"/>
      <point x="1167.0" y="864.0" type="line"/>
      <point x="1014.0" y="897.0" type="line"/>
      <point x="1014.0" y="920.0" type="line"/>
      <point x="1359.0" y="920.0" type="line"/>
      <point x="1359.0" y="897.0" type="line"/>
      <point x="1204.0" y="862.0" type="line"/>
      <point x="1072.0" y="448.0" type="line"/>
      <point x="934.0" y="-6.0" type="line"/>
      <point x="832.0" y="-6.0" type="line"/>
      <point x="695.0" y="428.0" type="line"/>
      <point x="552.0" y="862.0" type="line"/>
    </contour>
  </outline>
</glyph>
<glyph name="bar" format="2">
	<unicode hex="007C"/>
	<advance width="525"/>
	<outline>
		<contour>
			<point x="232" y="-527" type="line"/>
			<point x="237" y="-70" type="line"/>
			<point x="237" y="238" type="line"/>
			<point x="237" y="818" type="line"/>
			<point x="237" y="1126" type="line"/>
			<point x="232" y="1513" type="line"/>
			<point x="292" y="1535" type="line"/>
			<point x="288" y="1148" type="line"/>
			<point x="288" y="840" type="line"/>
			<point x="288" y="260" type="line"/>
			<point x="288" y="-48" type="line"/>
			<point x="292" y="-505" type="line"/>
		</contour>
	</outline>
</glyph>
<glyph name="brokenbar" format="2">
	<unicode hex="00A6"/>
	<advance width="525"/>
	<outline>
		<contour>
			<point x="236" y="718" type="line"/>
			<point x="237" y="900" type="line"/>
			<point x="237" y="1208" type="line"/>
			<point x="236" y="1510" type="line"/>
			<point x="290" y="1540" type="line"/>
			<point x="289" y="1208" type="line"/>
			<point x="289" y="900" type="line"/>
			<point x="290" y="748" type="line"/>
		</contour>
		<contour>
			<point x="236" y="-530" type="line"/>
			<point x="237" y="-128" type="line"/>
			<point x="237" y="180" type="line"/>
			<point x="236" y="348" type="line"/>
			<point x="290" y="378" type="line"/>
			<point x="289" y="180" type="line"/>
			<point x="289" y="-128" type="line"/>
			<point x="290" y="-510" type="line"/>
		</contour>
	</outline>
</glyph>
<glyph name="dieresis" format="2">
  <advance width="896"/>
  <unicode hex="00A8"/>
  <outline>
    <contour>
      <point x="513.0" y="1120.0" type="qcurve" smooth="yes"/>
      <point x="513.0" y="1161.0"/>
      <point x="565.0" y="1211.0"/>
      <point x="606.0" y="1211.0" type="qcurve" smooth="yes"/>
      <point x="647.0" y="1211.0"/>
      <point x="699.0" y="1161.0"/>
      <point x="699.0" y="1120.0" type="qcurve" smooth="yes"/>
      <point x="699.0" y="1081.0"/>
      <point x="647.0" y="1030.0"/>
      <point x="606.0" y="1030.0" type="qcurve" smooth="yes"/>
      <point x="565.0" y="1030.0"/>
      <point x="513.0" y="1081.0"/>
    </contour>
    <contour>
      <point x="197.0" y="1120.0" type="qcurve" smooth="yes"/>
      <point x="197.0" y="1161.0"/>
      <point x="249.0" y="1211.0"/>
      <point x="290.0" y="1211.0" type="qcurve" smooth="yes"/>
      <point x="331.0" y="1211.0"/>
      <point x="383.0" y="1161.0"/>
      <point x="383.0" y="1120.0" type="qcurve" smooth="yes"/>
      <point x="383.0" y="1081.0"/>
      <point x="331.0" y="1030.0"/>
      <point x="290.0" y="1030.0" type="qcurve" smooth="yes"/>
      <point x="249.0" y="1030.0"/>
      <point x="197.0" y="1081.0"/>
    </contour>
  </outline>
</glyph>
<glyph name="ordfeminine" format="2">
  <advance width="768"/>
  <unicode hex="00AA"/>
  <outline>
    <contour>
      <point x="69.0" y="945.0" type="qcurve" smooth="yes"/>
      <point x="69.0" y="1036.0"/>
      <point x="302.0" y="1188.0"/>
      <point x="531.0" y="1216.0" type="qcurve"/>
      <point x="536.0" y="1170.0" type="line"/>
      <point x="384.0" y="1150.0"/>
      <point x="196.0" y="1070.0"/>
      <point x="196.0" y="953.0" type="qcurve" smooth="yes"/>
      <point x="196.0" y="898.0"/>
      <point x="269.0" y="841.0"/>
      <point x="315.0" y="841.0" type="qcurve" smooth="yes"/>
      <point x="369.0" y="841.0"/>
      <point x="485.0" y="908.0"/>
      <point x="508.0" y="948.0" type="qcurve"/>
      <point x="510.0" y="1265.0" type="line" smooth="yes"/>
      <point x="511.0" y="1375.0"/>
      <point x="438.0" y="1471.0"/>
      <point x="360.0" y="1471.0" type="qcurve" smooth="yes"/>
      <point x="311.0" y="1471.0"/>
      <point x="215.0" y="1438.0"/>
      <point x="198.0" y="1420.0" type="qcurve"/>
      <point x="208.0" y="1404.0"/>
      <point x="241.0" y="1358.0"/>
      <point x="241.0" y="1337.0" type="qcurve" smooth="yes"/>
      <point x="241.0" y="1314.0"/>
      <point x="215.0" y="1283.0"/>
      <point x="193.0" y="1283.0" type="qcurve" smooth="yes"/>
      <point x="164.0" y="1283.0"/>
      <point x="125.0" y="1321.0"/>
      <point x="125.0" y="1345.0" type="qcurve" smooth="yes"/>
      <point x="125.0" y="1429.0"/>
      <point x="272.0" y="1511.0"/>
      <point x="360.0" y="1511.0" type="qcurve" smooth="yes"/>
      <point x="504.0" y="1511.0"/>
      <point x="628.0" y="1375.0"/>
      <point x="629.0" y="1209.0" type="qcurve" smooth="yes"/>
      <point x="633.0" y="824.0" type="line"/>
      <point x="736.0" y="799.0" type="line"/>
      <point x="736.0" y="766.0" type="line"/>
      <point x="531.0" y="766.0" type="line"/>
      <point x="517.0" y="772.0" type="line"/>
      <point x="513.0" y="889.0" type="line"/>
      <point x="482.0" y="848.0"/>
      <point x="347.0" y="756.0"/>
      <point x="270.0" y="756.0" type="qcurve" smooth="yes"/>
      <point x="181.0" y="756.0"/>
      <point x="69.0" y="854.0"/>
    </contour>
  </outline>
</glyph>
<glyph name="guillemetleft" format="2">
	<unicode hex="00AB"/>
	<advance width="1200"/>
	<outline>
		<contour>
			<point x="25" y="625" type="line"/>
			<point x="66" y="650"/>
			<point x="606" y="998"/>
			<point x="633" y="1017" type="qcurve" smooth="yes"/>
			<point x="643" y="1024"/>
			<point x="677" y="986"/>
			<point x="670" y="979" type="qcurve" smooth="yes"/>
			<point x="648" y="961"/>
			<point x="224" y="624"/>
			<point x="210" y="613" type="qcurve"/>
			<point x="222" y="601"/>
			<point x="628" y="266"/>
			<point x="675" y="230" type="qcurve" smooth="yes"/>
			<point x="681" y="224"/>
			<point x="654" y="181"/>
			<point x="647" y="184" type="qcurve" smooth="yes"/>
			<point x="583" y="223"/>
			<point x="100" y="536"/>
			<point x="26" y="584" type="qcurve"/>
		</contour>
		<contour>
			<point x="525" y="614" type="line"/>
			<point x="589" y="655"/>
			<point x="1111" y="1003"/>
			<point x="1129" y="1015" type="qcurve" smooth="yes"/>
			<point x="1138" y="1020"/>
			<point x="1180" y="987"/>
			<point x="1170" y="979" type="qcurve" smooth="yes"/>
			<point x="1152" y="968"/>
			<point x="708" y="631"/>
			<point x="686" y="612" type="qcurve"/>
			<point x="700" y="600"/>
			<point x="1147" y="251"/>
			<point x="1175" y="231" type="qcurve" smooth="yes"/>
			<point x="1179" y="227"/>
			<point x="1154" y="178"/>
			<point x="1146" y="183" type="qcurve" smooth="yes"/>
			<point x="1080" y="217"/>
			<point x="600" y="546"/>
			<point x="525" y="594" type="qcurve"/>
		</contour>
	</outline>
</glyph>
<glyph name="logicalnot" format="2">
  <advance width="879"/>
  <unicode hex="00AC"/>
  <outline>
    <contour>
      <point x="95.0" y="758.0" type="line"/>
      <point x="799.0" y="758.0" type="line"/>
      <point x="799.0" y="350.0" type="line"/>
      <point x="679.0" y="350.0" type="line"/>
      <point x="679.0" y="656.0" type="line"/>
      <point x="95.0" y="656.0" type="line"/>
    </contour>
  </outline>
</glyph>
<glyph name="twosuperior" format="2">
	<unicode hex="00B2"/>
	<advance width="713"/>
	<outline>
		<contour>
			<point x="88" y="768" type="line"/>
			<point x="88" y="850" type="line"/>
			<point x="103.2822580645" y="912.0241935484"/>
			<point x="206" y="1032"/>
			<point x="330" y="1110" type="qcurve" smooth="yes"/>
			<point x="404" y="1157"/>
			<point x="464.1532258065" y="1249"/>
			<point x="465" y="1338" type="qcurve" smooth="yes"/>
			<point x="465.8467741935" y="1408.435483871"/>
			<point x="391" y="1485"/>
			<point x="330" y="1485" type="qcurve" smooth="yes"/>
			<point x="267" y="1485"/>
			<point x="161" y="1418"/>
			<point x="129" y="1349" type="qcurve"/>
			<point x="94" y="1375" type="line"/>
			<point x="126" y="1436"/>
			<point x="267" y="1520"/>
			<point x="365" y="1520" type="qcurve" smooth="yes"/>
			<point x="475" y="1520"/>
			<point x="606" y="1437"/>
			<point x="606" y="1358" type="qcurve" smooth="yes"/>
			<point x="606" y="1255"/>
			<point x="465.3306451613" y="1136.564516129"/>
			<point x="362.3306451613" y="1084.7177419355" type="qcurve" smooth="yes"/>
			<point x="233.9435483871" y="1019.6129032258"/>
			<point x="149.5161290323" y="913.0483870968"/>
			<point x="151.6451612903" y="891" type="qcurve"/>
			<point x="151.6451612903" y="886" type="line"/>
			<point x="619" y="886" type="line"/>
			<point x="619" y="768" type="line"/>
		</contour>
	</outline>
</glyph>
<glyph name="threesuperior" format="2">
  <advance width="592"/>
  <unicode hex="00B3"/>
  <outline>
    <contour>
      <point x="-1.9032258064516139" y="890.0" type="qcurve"/>
      <point x="27.096774193548384" y="922.0" type="line"/>
      <point x="65.09677419354838" y="859.0"/>
      <point x="185.09677419354838" y="799.0"/>
      <point x="258.0967741935484" y="799.0" type="qcurve" smooth="yes"/>
      <point x="336.63709677419354" y="799.0"/>
      <point x="416.508064516129" y="893.5887096774194"/>
      <point x="416.508064516129" y="989.5887096774194" type="qcurve" smooth="yes"/>
      <point x="416.508064516129" y="1063.5887096774193"/>
      <point x="296.0967741935484" y="1158.0"/>
      <point x="197.09677419354838" y="1158.0" type="qcurve" smooth="yes"/>
      <point x="172.09677419354838" y="1158.0" type="line"/>
      <point x="169.09677419354838" y="1187.0" type="line"/>
      <point x="214.09677419354838" y="1191.0" type="line" smooth="yes"/>
      <point x="319.508064516129" y="1200.0"/>
      <point x="399.9193548387097" y="1275.0"/>
      <point x="399.9193548387097" y="1350.0" type="qcurve" smooth="yes"/>
      <point x="399.9193548387097" y="1408.0"/>
      <point x="331.9193548387097" y="1481.0"/>
      <point x="267.9193548387097" y="1481.0" type="qcurve" smooth="yes"/>
      <point x="213.91935483870967" y="1481.0"/>
      <point x="121.09677419354838" y="1437.1048387096773"/>
      <point x="84.09677419354838" y="1394.7983870967741" type="qcurve"/>
      <point x="54.096774193548384" y="1419.0" type="line"/>
      <point x="99.09677419354838" y="1466.0"/>
      <point x="207.09677419354838" y="1520.0"/>
      <point x="284.0967741935484" y="1520.0" type="qcurve" smooth="yes"/>
      <point x="403.0967741935484" y="1520.0"/>
      <point x="532.0967741935484" y="1427.0"/>
      <point x="532.0967741935484" y="1353.0" type="qcurve" smooth="yes"/>
      <point x="532.0967741935484" y="1275.0"/>
      <point x="424.0967741935484" y="1197.0"/>
      <point x="318.0967741935484" y="1175.0" type="qcurve"/>
      <point x="318.0967741935484" y="1172.0" type="line"/>
      <point x="429.0967741935484" y="1169.0"/>
      <point x="555.0967741935484" y="1071.0"/>
      <point x="555.0967741935484" y="997.0" type="qcurve" smooth="yes"/>
      <point x="555.0967741935484" y="877.0"/>
      <point x="395.0967741935484" y="752.0"/>
      <point x="289.0967741935484" y="752.0" type="qcurve" smooth="yes"/>
      <point x="181.09677419354838" y="752.0"/>
      <point x="31.096774193548384" y="831.0"/>
    </contour>
  </outline>
</glyph>
<glyph name="micro" format="2">
	<unicode hex="00B5"/>
	<advance width="1016"/>
	<outline>
		<contour>
			<point x="-39" y="-374" type="line"/>
			<point x="-3" y="-352" type="line"/>
			<point x="36" y="-157"/>
			<point x="102" y="172"/>
			<point x="127" y="293" type="qcurve" smooth="yes"/>
			<point x="236" y="814" type="line"/>
			<point x="100" y="811" type="line"/>
			<point x="96" y="839" type="line"/>
			<point x="327" y="923" type="line"/>
			<point x="372" y="923" type="line"/>
			<point x="394" y="877" type="line"/>
			<point x="261" y="265" type="line" smooth="yes"/>
			<point x="243" y="182"/>
			<point x="309" y="90"/>
			<point x="374" y="90" type="qcurve" smooth="yes"/>
			<point x="453" y="90"/>
			<point x="586" y="180"/>
			<point x="637" y="242" type="qcurve"/>
			<point x="782" y="841" type="line"/>
			<point x="770" y="912" type="line"/>
			<point x="913" y="921" type="line"/>
			<point x="934" y="856" type="line"/>
			<point x="783" y="252" type="line"/>
			<point x="758" y="87" type="line"/>
			<point x="876" y="87" type="line"/>
			<point x="879" y="54" type="line"/>
			<point x="649" y="-6" type="line"/>
			<point x="618" y="41" type="line"/>
			<point x="633" y="191" type="line"/>
			<point x="561" y="105"/>
			<point x="404" y="13"/>
			<point x="318" y="13" type="qcurve" smooth="yes"/>
			<point x="289" y="13"/>
			<point x="236" y="27"/>
			<point x="214" y="40" type="qcurve"/>
			<point x="139" y="-332" type="line"/>
			<point x="228" y="-339" type="line"/>
			<point x="221" y="-380" type="line"/>
			<point x="-33" y="-408" type="line"/>
		</contour>
	</outline>
</glyph>
<glyph name="cedilla" format="2">
  <advance width="896"/>
  <unicode hex="00B8"/>
  <outline>
    <contour>
      <point x="500.0" y="0.0" type="line"/>
      <point x="417.0" y="-155.0" type="line"/>
      <point x="443.0" y="-144.0"/>
      <point x="526.0" y="-125.0"/>
      <point x="554.0" y="-125.0" type="qcurve" smooth="yes"/>
      <point x="629.0" y="-125.0"/>
      <point x="738.0" y="-210.0"/>
      <point x="738.0" y="-296.0" type="qcurve" smooth="yes"/>
      <point x="738.0" y="-392.0"/>
      <point x="601.0" y="-494.0"/>
      <point x="510.0" y="-494.0" type="qcurve" smooth="yes"/>
      <point x="427.0" y="-494.0"/>
      <point x="297.0" y="-437.0"/>
      <point x="248.0" y="-383.0" type="qcurve"/>
      <point x="274.0" y="-355.0" type="line"/>
      <point x="312.0" y="-387.0"/>
      <point x="414.0" y="-423.0"/>
      <point x="463.0" y="-423.0" type="qcurve" smooth="yes"/>
      <point x="530.0" y="-423.0"/>
      <point x="617.0" y="-367.0"/>
      <point x="617.0" y="-308.0" type="qcurve" smooth="yes"/>
      <point x="617.0" y="-251.0"/>
      <point x="543.0" y="-198.0"/>
      <point x="494.0" y="-198.0" type="qcurve" smooth="yes"/>
      <point x="466.0" y="-198.0"/>
      <point x="420.0" y="-212.0"/>
      <point x="404.0" y="-220.0" type="qcurve"/>
      <point x="366.0" y="-159.0" type="line"/>
      <point x="464.0" y="19.0" type="line"/>
    </contour>
  </outline>
</glyph>
<glyph name="onesuperior" format="2">
	<unicode hex="00B9"/>
	<advance width="686"/>
	<outline>
		<contour>
			<point x="124" y="767" type="line"/>
			<point x="124" y="799" type="line"/>
			<point x="289.3064516129" y="829" type="line"/>
			<point x="292.3064516129" y="1154" type="line"/>
			<point x="289.3064516129" y="1401.7661290323" type="line"/>
			<point x="112" y="1427.1774193548" type="line"/>
			<point x="112" y="1459" type="line"/>
			<point x="418.6935483871" y="1513" type="line"/>
			<point x="440.6935483871" y="1498" type="line"/>
			<point x="434.6935483871" y="1154" type="line"/>
			<point x="436.6935483871" y="829" type="line"/>
			<point x="596" y="799" type="line"/>
			<point x="596" y="767" type="line"/>
		</contour>
	</outline>
</glyph>
<glyph name="Thorn" format="2">
	<unicode hex="00DE"/>
	<advance width="1122"/>
	<outline>
		<contour>
			<point x="61" y="0" type="line"/>
			<point x="61" y="25" type="line"/>
			<point x="226" y="62" type="line"/>
			<point x="228" y="754" type="line"/>
			<point x="226" y="1437" type="line"/>
			<point x="61" y="1471" type="line"/>
			<point x="61" y="1500" type="line"/>
			<point x="559" y="1500" type="line"/>
			<point x="559" y="1471" type="line"/>
			<point x="394" y="1437" type="line"/>
			<point x="394" y="1300" type="line"/>
			<point x="623" y="1299" type="line" smooth="yes"/>
			<point x="842" y="1298"/>
			<point x="1080" y="1094"/>
			<point x="1080" y="886" type="qcurve" smooth="yes"/>
			<point x="1080" y="682"/>
			<point x="840" y="430"/>
			<point x="583" y="430" type="qcurve" smooth="yes"/>
			<point x="520" y="430"/>
			<point x="356" y="446"/>
			<point x="319" y="457" type="qcurve"/>
			<point x="328" y="486" type="line"/>
			<point x="378" y="472"/>
			<point x="501" y="459"/>
			<point x="581" y="459" type="qcurve" smooth="yes"/>
			<point x="741" y="459"/>
			<point x="901" y="662"/>
			<point x="901" y="893" type="qcurve" smooth="yes"/>
			<point x="901" y="1086"/>
			<point x="730" y="1272"/>
			<point x="580" y="1272" type="qcurve" smooth="yes"/>
			<point x="393" y="1272" type="line"/>
			<point x="391" y="564" type="line"/>
			<point x="393" y="57" type="line"/>
			<point x="575" y="25" type="line"/>
			<point x="575" y="0" type="line"/>
		</contour>
	</outline>
</glyph>
<glyph name="eth" format="2">
	<unicode hex="00F0"/>
	<advance width="995"/>
	<outline>
		<contour>
			<point x="48" y="455" type="qcurve" smooth="yes"/>
			<point x="48" y="668"/>
			<point x="300" y="932"/>
			<point x="491" y="932" type="qcurve" smooth="yes"/>
			<point x="682" y="932"/>
			<point x="897" y="675"/>
			<point x="897" y="462" type="qcurve"/>
			<point x="774" y="466" type="line"/>
			<point x="768.3548387097" y="708.5403225806"/>
			<point x="598.9435483871" y="903"/>
			<point x="491" y="903" type="qcurve" smooth="yes"/>
			<point x="367" y="903"/>
			<point x="214" y="706"/>
			<point x="214" y="474" type="qcurve" smooth="yes"/>
			<point x="214" y="230"/>
			<point x="365" y="7"/>
			<point x="481" y="7" type="qcurve" smooth="yes"/>
			<point x="616" y="7"/>
			<point x="765" y="240"/>
			<point x="765" y="461" type="qcurve" smooth="yes"/>
			<point x="765" y="920"/>
			<point x="566" y="1420"/>
			<point x="291" y="1519" type="qcurve"/>
			<point x="304" y="1546" type="line"/>
			<point x="630" y="1439"/>
			<point x="923.4112903226" y="883"/>
			<point x="923.4112903226" y="589" type="qcurve" smooth="yes"/>
			<point x="923.4112903226" y="279.7983870968"/>
			<point x="678.2822580645" y="-20"/>
			<point x="487.2822580645" y="-20" type="qcurve" smooth="yes"/>
			<point x="294.2822580645" y="-20"/>
			<point x="48" y="231"/>
		</contour>
		<contour>
			<point x="372.8225806452" y="1165" type="line"/>
			<point x="838.8225806452" y="1485" type="line"/>
			<point x="880.8225806452" y="1433" type="line"/>
			<point x="414.8225806452" y="1113" type="line"/>
		</contour>
	</outline>
</glyph>
<glyph name="divide" format="2">
  <advance width="879"/>
  <unicode hex="00F7"/>
  <outline>
    <contour>
      <point x="67.0" y="576.0" type="line"/>
      <point x="67.0" y="688.0" type="line"/>
      <point x="811.0" y="688.0" type="line"/>
      <point x="811.0" y="576.0" type="line"/>
    </contour>
    <contour>
      <point x="332.0" y="360.0" type="qcurve" smooth="yes"/>
      <point x="332.0" y="403.0"/>
      <point x="392.0" y="467.0"/>
      <point x="439.0" y="467.0" type="qcurve" smooth="yes"/>
      <point x="486.0" y="467.0"/>
      <point x="546.0" y="403.0"/>
      <point x="546.0" y="360.0" type="qcurve" smooth="yes"/>
      <point x="546.0" y="319.0"/>
      <point x="486.0" y="255.0"/>
      <point x="439.0" y="255.0" type="qcurve" smooth="yes"/>
      <point x="392.0" y="255.0"/>
      <point x="332.0" y="319.0"/>
    </contour>
    <contour>
      <point x="332.0" y="905.0" type="qcurve" smooth="yes"/>
      <point x="332.0" y="947.0"/>
      <point x="392.0" y="1011.0"/>
      <point x="439.0" y="1011.0" type="qcurve" smooth="yes"/>
      <point x="486.0" y="1011.0"/>
      <point x="546.0" y="947.0"/>
      <point x="546.0" y="905.0" type="qcurve" smooth="yes"/>
      <point x="546.0" y="863.0"/>
      <point x="486.0" y="799.0"/>
      <point x="439.0" y="799.0" type="qcurve" smooth="yes"/>
      <point x="392.0" y="799.0"/>
      <point x="332.0" y="863.0"/>
    </contour>
  </outline>
</glyph>
<glyph name="Schwa" format="2">
	<unicode hex="018F"/>
	<advance width="1296"/>
	<outline>
		<contour>
			<point x="84" y="1201" type="line"/>
			<point x="148" y="1324"/>
			<point x="415" y="1518"/>
			<point x="625" y="1518" type="qcurve" smooth="yes"/>
			<point x="865" y="1518"/>
			<point x="1231" y="1101"/>
			<point x="1231" y="722" type="qcurve" smooth="yes"/>
			<point x="1231" y="363"/>
			<point x="890" y="-26"/>
			<point x="615" y="-26" type="qcurve" smooth="yes"/>
			<point x="363" y="-26"/>
			<point x="63" y="328"/>
			<point x="55" y="636" type="qcurve" smooth="yes"/>
			<point x="54" y="676" type="line"/>
			<point x="1062" y="676" type="line"/>
			<point x="1062" y="649" type="line"/>
			<point x="647" y="649" type="line"/>
			<point x="227" y="649" type="line"/>
			<point x="227" y="616" type="line" smooth="yes"/>
			<point x="227" y="379"/>
			<point x="436" y="10"/>
			<point x="630" y="10" type="qcurve" smooth="yes"/>
			<point x="817" y="10"/>
			<point x="1051" y="335"/>
			<point x="1051" y="710" type="qcurve" smooth="yes"/>
			<point x="1051" y="1155"/>
			<point x="787" y="1446"/>
			<point x="588" y="1446" type="qcurve" smooth="yes"/>
			<point x="419" y="1446"/>
			<point x="177" y="1288"/>
			<point x="106" y="1188" type="qcurve"/>
		</contour>
	</outline>
</glyph>
<glyph name="schwa" format="2">
	<unicode hex="0259"/>
	<advance width="843"/>
	<outline>
		<contour>
			<point x="795" y="445" type="qcurve" smooth="yes"/>
			<point x="795" y="221"/>
			<point x="576" y="-22"/>
			<point x="395" y="-22" type="qcurve" smooth="yes"/>
			<point x="229" y="-22"/>
			<point x="34" y="199"/>
			<point x="26" y="391" type="qcurve"/>
			<point x="25" y="416" type="line"/>
			<point x="658" y="416" type="line"/>
			<point x="658" y="387" type="line"/>
			<point x="189" y="387" type="line"/>
			<point x="198" y="236"/>
			<point x="297" y="6"/>
			<point x="406" y="6" type="qcurve" smooth="yes"/>
			<point x="506" y="6"/>
			<point x="627" y="203"/>
			<point x="627" y="431" type="qcurve" smooth="yes"/>
			<point x="627" y="701"/>
			<point x="473" y="878"/>
			<point x="343" y="878" type="qcurve" smooth="yes"/>
			<point x="245" y="878"/>
			<point x="97" y="787"/>
			<point x="52" y="731" type="qcurve"/>
			<point x="35" y="744" type="line"/>
			<point x="78" y="821"/>
			<point x="251" y="942"/>
			<point x="365" y="942" type="qcurve" smooth="yes"/>
			<point x="557" y="942"/>
			<point x="795" y="681"/>
		</contour>
	</outline>
</glyph>
<glyph name="caron" format="2">
  <advance width="896"/>
  <unicode hex="02C7"/>
  <outline>
    <contour>
      <point x="449.0" y="1030.0" type="qcurve" smooth="yes"/>
      <point x="419.0" y="1030.0"/>
      <point x="389.0" y="1072.0"/>
      <point x="363.0" y="1114.0" type="qcurve" smooth="yes"/>
      <point x="222.0" y="1339.0" type="line"/>
      <point x="243.0" y="1355.0" type="line"/>
      <point x="449.0" y="1157.0" type="line"/>
      <point x="655.0" y="1355.0" type="line"/>
      <point x="674.0" y="1340.0" type="line"/>
      <point x="535.0" y="1114.0" type="line" smooth="yes"/>
      <point x="503.0" y="1062.0"/>
      <point x="479.0" y="1030.0"/>
    </contour>
  </outline>
</glyph>
<glyph name="breve" format="2">
  <advance width="896"/>
  <unicode hex="02D8"/>
  <outline>
    <contour>
      <point x="692.0" y="1260.0" type="qcurve"/>
      <point x="722.0" y="1247.0" type="line"/>
      <point x="712.0" y="1171.0"/>
      <point x="549.0" y="1030.0"/>
      <point x="449.0" y="1030.0" type="qcurve" smooth="yes"/>
      <point x="349.0" y="1030.0"/>
      <point x="192.0" y="1155.0"/>
      <point x="174.0" y="1244.0" type="qcurve"/>
      <point x="208.0" y="1260.0" type="line"/>
      <point x="233.0" y="1214.0"/>
      <point x="375.0" y="1137.0"/>
      <point x="450.0" y="1136.0" type="qcurve" smooth="yes"/>
      <point x="527.0" y="1137.0"/>
      <point x="671.0" y="1216.0"/>
    </contour>
  </outline>
</glyph>
<glyph name="dotaccent" format="2">
  <advance width="896"/>
  <unicode hex="02D9"/>
  <outline>
    <contour>
      <point x="343.0" y="1133.0" type="qcurve" smooth="yes"/>
      <point x="343.0" y="1178.0"/>
      <point x="402.0" y="1236.0"/>
      <point x="448.0" y="1236.0" type="qcurve" smooth="yes"/>
      <point x="491.0" y="1236.0"/>
      <point x="553.0" y="1174.0"/>
      <point x="553.0" y="1133.0" type="qcurve" smooth="yes"/>
      <point x="553.0" y="1088.0"/>
      <point x="494.0" y="1030.0"/>
      <point x="448.0" y="1030.0" type="qcurve" smooth="yes"/>
      <point x="405.0" y="1030.0"/>
      <point x="343.0" y="1092.0"/>
    </contour>
  </outline>
</glyph>
<glyph name="ring" format="2">
  <advance width="896"/>
  <unicode hex="02DA"/>
  <outline>
    <contour>
      <point x="252.0" y="1225.0" type="qcurve" smooth="yes"/>
      <point x="252.0" y="1310.0"/>
      <point x="362.0" y="1420.0"/>
      <point x="448.0" y="1420.0" type="qcurve" smooth="yes"/>
      <point x="534.0" y="1420.0"/>
      <point x="644.0" y="1310.0"/>
      <point x="644.0" y="1225.0" type="qcurve" smooth="yes"/>
      <point x="644.0" y="1140.0"/>
      <point x="534.0" y="1030.0"/>
      <point x="448.0" y="1030.0" type="qcurve" smooth="yes"/>
      <point x="362.0" y="1030.0"/>
      <point x="252.0" y="1140.0"/>
    </contour>
    <contour>
      <point x="326.0" y="1225.0" type="qcurve" smooth="yes"/>
      <point x="326.0" y="1170.0"/>
      <point x="392.0" y="1103.0"/>
      <point x="448.0" y="1103.0" type="qcurve" smooth="yes"/>
      <point x="507.0" y="1103.0"/>
      <point x="570.0" y="1166.0"/>
      <point x="570.0" y="1225.0" type="qcurve" smooth="yes"/>
      <point x="570.0" y="1280.0"/>
      <point x="504.0" y="1347.0"/>
      <point x="448.0" y="1347.0" type="qcurve" smooth="yes"/>
      <point x="389.0" y="1347.0"/>
      <point x="326.0" y="1284.0"/>
    </contour>
  </outline>
</glyph>
<glyph name="ogonek" format="2">
  <advance width="896"/>
  <unicode hex="02DB"/>
  <outline>
    <contour>
      <point x="348" y="-228" type="qcurve" smooth="yes"/>
      <point x="348" y="-284"/>
      <point x="423" y="-338"/>
      <point x="485" y="-338" type="qcurve" smooth="yes"/>
      <point x="541" y="-338"/>
      <point x="631" y="-309"/>
      <point x="699" y="-264" type="qcurve"/>
      <point x="715" y="-284" type="line"/>
      <point x="676" y="-348"/>
      <point x="529" y="-433"/>
      <point x="449" y="-433" type="qcurve" smooth="yes"/>
      <point x="354" y="-433"/>
      <point x="254" y="-335"/>
      <point x="254" y="-264" type="qcurve" smooth="yes"/>
      <point x="254" y="-186"/>
      <point x="383" y="-40"/>
      <point x="448" y="0" type="qcurve" smooth="yes"/>
      <point x="477" y="18" type="line"/>
      <point x="495" y="0" type="line"/>
      <point x="482" y="-13" type="line" smooth="yes"/>
      <point x="414" y="-81"/>
      <point x="348" y="-182"/>
    </contour>
  </outline>
</glyph>
<glyph name="tilde" format="2">
  <advance width="896"/>
  <unicode hex="02DC"/>
  <outline>
    <contour>
      <point x="153.0" y="1070.0" type="line"/>
      <point x="175.0" y="1120.0"/>
      <point x="281.0" y="1223.0"/>
      <point x="344.0" y="1223.0" type="qcurve" smooth="yes"/>
      <point x="377.0" y="1223.0"/>
      <point x="437.0" y="1201.0"/>
      <point x="467.0" y="1180.0" type="qcurve" smooth="yes"/>
      <point x="492.0" y="1163.0"/>
      <point x="550.0" y="1125.0"/>
      <point x="594.0" y="1125.0" type="qcurve" smooth="yes"/>
      <point x="625.0" y="1125.0"/>
      <point x="675.0" y="1171.0"/>
      <point x="690.0" y="1200.0" type="qcurve"/>
      <point x="726.0" y="1173.0" type="line"/>
      <point x="702.0" y="1113.0"/>
      <point x="617.0" y="1030.0"/>
      <point x="564.0" y="1030.0" type="qcurve" smooth="yes"/>
      <point x="526.0" y="1030.0"/>
      <point x="454.0" y="1057.0"/>
      <point x="427.0" y="1074.0" type="qcurve" smooth="yes"/>
      <point x="400.0" y="1091.0"/>
      <point x="334.0" y="1131.0"/>
      <point x="309.0" y="1131.0" type="qcurve" smooth="yes"/>
      <point x="271.0" y="1131.0"/>
      <point x="195.0" y="1069.0"/>
      <point x="182.0" y="1045.0" type="qcurve"/>
    </contour>
  </outline>
</glyph>
<glyph name="hookabovecomb" format="2">
  <advance width="896"/>
  <unicode hex="0309"/>
  <anchor x="448.0" y="920" name="_top"/>
  <anchor x="448.0" y="1399.0" name="top"/>
  <outline>
    <contour>
      <point x="331.0" y="1030.0" type="line"/>
      <point x="331.0" y="1127.0" type="line"/>
      <point x="367.0" y="1163.0" type="line"/>
      <point x="384.0" y="1158.0"/>
      <point x="416.0" y="1154.0"/>
      <point x="430.0" y="1154.0" type="qcurve" smooth="yes"/>
      <point x="476.0" y="1154.0"/>
      <point x="529.0" y="1204.0"/>
      <point x="529.0" y="1246.0" type="qcurve" smooth="yes"/>
      <point x="529.0" y="1289.0"/>
      <point x="471.0" y="1334.0"/>
      <point x="421.0" y="1334.0" type="qcurve" smooth="yes"/>
      <point x="391.0" y="1334.0"/>
      <point x="312.0" y="1316.0"/>
      <point x="262.0" y="1296.0" type="qcurve"/>
      <point x="248.0" y="1323.0" type="line"/>
      <point x="296.0" y="1360.0"/>
      <point x="410.0" y="1399.0"/>
      <point x="465.0" y="1399.0" type="qcurve" smooth="yes"/>
      <point x="542.0" y="1399.0"/>
      <point x="638.0" y="1320.0"/>
      <point x="638.0" y="1245.0" type="qcurve" smooth="yes"/>
      <point x="638.0" y="1175.0"/>
      <point x="536.0" y="1090.0"/>
      <point x="467.0" y="1091.0" type="qcurve" smooth="yes"/>
      <point x="446.0" y="1091.0"/>
      <point x="397.0" y="1096.0"/>
      <point x="375.0" y="1105.0" type="qcurve"/>
      <point x="375.0" y="1030.0" type="line"/>
    </contour>
  </outline>
</glyph>
<glyph name="breveinvertedcomb" format="2">
  <advance width="896"/>
  <unicode hex="030F"/>
  <anchor x="448.0" y="920" name="_top"/>
  <anchor x="448.0" y="1260.0" name="top"/>
  <outline>
    <contour>
      <point x="208.0" y="1030.0" type="qcurve"/>
      <point x="174.0" y="1046.0" type="line"/>
      <point x="192.0" y="1135.0"/>
      <point x="349.0" y="1260.0"/>
      <point x="449.0" y="1260.0" type="qcurve"/>
      <point x="549.0" y="1260.0"/>
      <point x="712.0" y="1119.0"/>
      <point x="722.0" y="1043.0" type="qcurve"/>
      <point x="692.0" y="1030.0" type="line"/>
      <point x="671.0" y="1074.0"/>
      <point x="527.0" y="1154.0"/>
      <point x="450.0" y="1155.0" type="qcurve"/>
      <point x="375.0" y="1154.0"/>
      <point x="233.0" y="1076.0"/>
    </contour>
  </outline>
</glyph>
<glyph name="dblgravecomb" format="2">
  <advance width="896"/>
  <unicode hex="0311"/>
  <anchor x="448.0" y="920" name="_top"/>
  <anchor x="448.0" y="1338" name="top"/>
  <outline>
    <contour>
      <point x="68" y="1284.0" type="qcurve"/>
      <point x="68" y="1299.0"/>
      <point x="104" y="1338.0"/>
      <point x="123" y="1338.0" type="qcurve" smooth="yes"/>
      <point x="142" y="1338.0"/>
      <point x="186" y="1317.0"/>
      <point x="201" y="1294.0" type="qcurve" smooth="yes"/>
      <point x="360" y="1046.0" type="line"/>
      <point x="340" y="1030.0" type="line"/>
      <point x="101" y="1214.0" type="line" smooth="yes"/>
      <point x="82" y="1228.0"/>
      <point x="68" y="1268.0"/>
    </contour>
    <contour>
      <point x="386" y="1284.0" type="qcurve"/>
      <point x="386" y="1299.0"/>
      <point x="422" y="1338.0"/>
      <point x="441" y="1338.0" type="qcurve" smooth="yes"/>
      <point x="460" y="1338.0"/>
      <point x="504" y="1317.0"/>
      <point x="519" y="1294.0" type="qcurve" smooth="yes"/>
      <point x="678" y="1046.0" type="line"/>
      <point x="658" y="1030.0" type="line"/>
      <point x="419" y="1214.0" type="line" smooth="yes"/>
      <point x="400" y="1228.0"/>
      <point x="386" y="1268.0"/>
    </contour>
  </outline>
</glyph>
<glyph name="horncomb" format="2">
  <advance width="896"/>
  <unicode hex="031B"/>
  <anchor x="0" y="920" name="_topright"/>
  <anchor x="0" y="1190" name="topright"/>
  <outline>
    <contour>
      <point x="0" y="920" type="line"/>
      <point x="48" y="911"/>
      <point x="123" y="902"/>
      <point x="152" y="902" type="qcurve" smooth="yes"/>
      <point x="223" y="902"/>
      <point x="284" y="961"/>
      <point x="284" y="1027" type="qcurve" smooth="yes"/>
      <point x="284" y="1059"/>
      <point x="273" y="1141"/>
      <point x="263" y="1190" type="qcurve"/>
      <point x="300" y="1190" type="line"/>
      <point x="329" y="1133"/>
      <point x="360" y="1042"/>
      <point x="361" y="1004" type="qcurve" smooth="yes"/>
      <point x="362" y="923"/>
      <point x="258" y="834"/>
      <point x="166" y="835" type="qcurve" smooth="yes"/>
      <point x="130" y="836"/>
      <point x="46" y="852"/>
      <point x="0" y="867" type="qcurve"/>
    </contour>
  </outline>
</glyph>
<glyph name="dotbelowcomb" format="2">
  <advance width="896"/>
  <unicode hex="0323"/>
  <anchor x="448.0" y="0" name="_bottom"/>
  <anchor x="448.0" y="-369.0" name="bottom"/>
  <outline>
    <contour>
      <point x="352.0" y="-274.0" type="qcurve" smooth="yes"/>
      <point x="352.0" y="-229.0"/>
      <point x="401.0" y="-180.0"/>
      <point x="448.0" y="-180.0" type="qcurve" smooth="yes"/>
      <point x="492.0" y="-180.0"/>
      <point x="544.0" y="-233.0"/>
      <point x="544.0" y="-274.0" type="qcurve" smooth="yes"/>
      <point x="544.0" y="-320.0"/>
      <point x="495.0" y="-369.0"/>
      <point x="448.0" y="-369.0" type="qcurve" smooth="yes"/>
      <point x="404.0" y="-369.0"/>
      <point x="352.0" y="-316.0"/>
    </contour>
  </outline>
</glyph>
<glyph name="dieresisbelowcomb" format="2">
  <advance width="896"/>
  <unicode hex="0324"/>
  <anchor x="448.0" y="0" name="_bottom"/>
  <anchor x="448.0" y="-352" name="bottom"/>
  <outline>
    <contour>
      <point x="186" y="-267" type="qcurve" smooth="yes"/>
      <point x="186" y="-224"/>
      <point x="231" y="-180"/>
      <point x="274" y="-180" type="qcurve" smooth="yes"/>
      <point x="315" y="-180"/>
      <point x="362" y="-228"/>
      <point x="362" y="-267" type="qcurve" smooth="yes"/>
      <point x="362" y="-308"/>
      <point x="318" y="-352"/>
      <point x="274" y="-352" type="qcurve" smooth="yes"/>
      <point x="233" y="-352"/>
      <point x="186" y="-306"/>
    </contour>
    <contour>
      <point x="534" y="-267" type="qcurve" smooth="yes"/>
      <point x="534" y="-224"/>
      <point x="579" y="-180"/>
      <point x="622" y="-180" type="qcurve" smooth="yes"/>
      <point x="663" y="-180"/>
      <point x="710" y="-228"/>
      <point x="710" y="-267" type="qcurve" smooth="yes"/>
      <point x="710" y="-308"/>
      <point x="666" y="-352"/>
      <point x="622" y="-352" type="qcurve" smooth="yes"/>
      <point x="581" y="-352"/>
      <point x="534" y="-306"/>
    </contour>
  </outline>
</glyph>
<glyph name="commaaccentcomb" format="2">
  <advance width="896"/>
  <unicode hex="0326"/>
  <anchor x="448.0" y="0" name="_bottom"/>
  <anchor x="448.0" y="-562.0" name="bottom"/>
  <outline>
    <contour>
      <point x="330.0" y="-544.0" type="line"/>
      <point x="380.0" y="-505.0"/>
      <point x="443.0" y="-416.0"/>
      <point x="451.0" y="-367.0" type="qcurve"/>
      <point x="408.0" y="-367.0"/>
      <point x="352.0" y="-316.0"/>
      <point x="352.0" y="-275.0" type="qcurve" smooth="yes"/>
      <point x="352.0" y="-233.0"/>
      <point x="404.0" y="-180.0"/>
      <point x="447.0" y="-180.0" type="qcurve" smooth="yes"/>
      <point x="490.0" y="-180.0"/>
      <point x="540.0" y="-237.0"/>
      <point x="540.0" y="-283.0" type="qcurve" smooth="yes"/>
      <point x="540.0" y="-347.0"/>
      <point x="459.0" y="-485.0"/>
      <point x="344.0" y="-562.0" type="qcurve"/>
    </contour>
  </outline>
</glyph>
<glyph name="macronbelowcomb" format="2">
	<unicode hex="0331"/>
	<advance width="896"/>
	<outline>
		<contour>
			<point x="187" y="-275" type="line"/>
			<point x="187" y="-188" type="line"/>
			<point x="709" y="-188" type="line"/>
			<point x="709" y="-275" type="line"/>
		</contour>
	</outline>
</glyph>
<glyph name="tonos" format="2">
	<unicode hex="0384"/>
	<advance width="837"/>
	<outline>
		<contour>
			<point x="368" y="1120" type="line"/>
			<point x="344" y="1128" type="line"/>
			<point x="430" y="1503" type="line"/>
			<point x="566" y="1468" type="line"/>
			<point x="575" y="1447" type="line"/>
		</contour>
	</outline>
</glyph>
<glyph name="dieresistonos" format="2">
  <advance width="1144"/>
  <unicode hex="0385"/>
  <anchor x="554" y="1000" name="_GRKtop"/>
  <outline>
    <contour>
      <point x="282" y="1164" type="qcurve" smooth="yes"/>
      <point x="229" y="1164"/>
      <point x="166" y="1226"/>
      <point x="166" y="1277" type="qcurve" smooth="yes"/>
      <point x="166" y="1332"/>
      <point x="226" y="1391"/>
      <point x="282" y="1391" type="qcurve" smooth="yes"/>
      <point x="335" y="1391"/>
      <point x="398" y="1328"/>
      <point x="398" y="1277" type="qcurve" smooth="yes"/>
      <point x="398" y="1223"/>
      <point x="339" y="1164"/>
    </contour>
    <contour>
      <point x="583" y="1160" type="line"/>
      <point x="487" y="1176" type="line"/>
      <point x="518" y="1611" type="line"/>
      <point x="678" y="1621" type="line"/>
      <point x="712" y="1581" type="line"/>
    </contour>
    <contour>
      <point x="862" y="1164" type="qcurve" smooth="yes"/>
      <point x="809" y="1164"/>
      <point x="746" y="1226"/>
      <point x="746" y="1277" type="qcurve" smooth="yes"/>
      <point x="746" y="1332"/>
      <point x="806" y="1391"/>
      <point x="862" y="1391" type="qcurve" smooth="yes"/>
      <point x="915" y="1391"/>
      <point x="978" y="1328"/>
      <point x="978" y="1277" type="qcurve" smooth="yes"/>
      <point x="978" y="1223"/>
      <point x="919" y="1164"/>
    </contour>
  </outline>
</glyph>
<glyph name="Lambda" format="2">
	<unicode hex="039B"/>
	<advance width="1251"/>
	<outline>
		<contour>
			<point x="-47" y="0" type="line"/>
			<point x="-47" y="25" type="line"/>
			<point x="118" y="60" type="line"/>
			<point x="287" y="555" type="line"/>
			<point x="581" y="1506" type="line"/>
			<point x="684" y="1506" type="line"/>
			<point x="976" y="591" type="line"/>
			<point x="1145" y="60" type="line"/>
			<point x="1291" y="25" type="line"/>
			<point x="1291" y="0" type="line"/>
			<point x="821" y="0" type="line"/>
			<point x="821" y="25" type="line"/>
			<point x="971" y="56" type="line"/>
			<point x="828" y="550" type="line"/>
			<point x="588" y="1342" type="line"/>
			<point x="324" y="546" type="line"/>
			<point x="175" y="56" type="line"/>
			<point x="382" y="25" type="line"/>
			<point x="382" y="0" type="line"/>
		</contour>
	</outline>
</glyph>
<glyph name="Xi" format="2">
	<unicode hex="039E"/>
	<advance width="1248"/>
	<outline>
		<contour>
			<point x="82" y="0" type="line"/>
			<point x="35" y="383" type="line"/>
			<point x="63" y="383" type="line"/>
			<point x="220" y="58" type="line"/>
			<point x="625" y="55" type="line"/>
			<point x="1028" y="58" type="line"/>
			<point x="1185" y="383" type="line"/>
			<point x="1213" y="383" type="line"/>
			<point x="1166" y="0" type="line"/>
		</contour>
		<contour>
			<point x="288" y="555" type="line"/>
			<point x="288" y="957" type="line"/>
			<point x="314" y="957" type="line"/>
			<point x="381" y="783" type="line"/>
			<point x="625" y="773" type="line"/>
			<point x="870" y="783" type="line"/>
			<point x="937" y="957" type="line"/>
			<point x="965" y="957" type="line"/>
			<point x="965" y="555" type="line"/>
			<point x="937" y="555" type="line"/>
			<point x="870" y="729" type="line"/>
			<point x="625" y="739" type="line"/>
			<point x="381" y="729" type="line"/>
			<point x="314" y="555" type="line"/>
		</contour>
		<contour>
			<point x="84" y="1124" type="line"/>
			<point x="84" y="1500" type="line"/>
			<point x="1168" y="1500" type="line"/>
			<point x="1168" y="1124" type="line"/>
			<point x="1139" y="1124" type="line"/>
			<point x="1045" y="1442" type="line"/>
			<point x="624" y="1445" type="line"/>
			<point x="207" y="1442" type="line"/>
			<point x="113" y="1124" type="line"/>
		</contour>
	</outline>
	<guideline x="721" y="1008" angle="90" identifier="GCiNqpylsp"/>
</glyph>
<glyph name="Pi" format="2">
  <advance width="1433"/>
  <unicode hex="03A0"/>
  <outline>
    <contour>
      <point x="61.0" y="0" type="line"/>
      <point x="61.0" y="25" type="line"/>
      <point x="226.0" y="60" type="line"/>
      <point x="228.0" y="775" type="line"/>
      <point x="226.0" y="1437" type="line"/>
      <point x="61.0" y="1471" type="line"/>
      <point x="61.0" y="1500" type="line"/>
      <point x="1372.0" y="1500" type="line"/>
      <point x="1372.0" y="1471" type="line"/>
      <point x="1207.0" y="1437" type="line"/>
      <point x="1205.0" y="775" type="line"/>
      <point x="1207.0" y="60" type="line"/>
      <point x="1372.0" y="25" type="line"/>
      <point x="1372.0" y="0" type="line"/>
      <point x="875.0" y="0" type="line"/>
      <point x="875.0" y="25" type="line"/>
      <point x="1040.0" y="60" type="line"/>
      <point x="1042.0" y="775" type="line"/>
      <point x="1040.0" y="1437" type="line"/>
      <point x="716.0" y="1443" type="line"/>
      <point x="393.0" y="1437" type="line"/>
      <point x="391.0" y="775" type="line"/>
      <point x="393.0" y="60" type="line"/>
      <point x="558.0" y="25" type="line"/>
      <point x="558.0" y="0" type="line"/>
    </contour>
  </outline>
</glyph>
<glyph name="Sigma" format="2">
  <advance width="1016"/>
  <unicode hex="03A3"/>
  <outline>
    <contour>
      <point x="54" y="0" type="line"/>
      <point x="34" y="42" type="line"/>
      <point x="576" y="716" type="line"/>
      <point x="79" y="1459" type="line"/>
      <point x="79" y="1500" type="line"/>
      <point x="971" y="1500" type="line"/>
      <point x="971" y="1124" type="line"/>
      <point x="942" y="1124" type="line"/>
      <point x="840" y="1470" type="line"/>
      <point x="249" y="1470" type="line"/>
      <point x="243" y="1464" type="line"/>
      <point x="722" y="762" type="line"/>
      <point x="722" y="749" type="line"/>
      <point x="144" y="42" type="line"/>
      <point x="149" y="28" type="line"/>
      <point x="836" y="28" type="line"/>
      <point x="977" y="351" type="line"/>
      <point x="1003" y="351" type="line"/>
      <point x="962" y="0" type="line"/>
    </contour>
  </outline>
</glyph>
<glyph name="Phi" format="2">
	<unicode hex="03A6"/>
	<advance width="1609"/>
	<outline>
		<contour>
			<point x="595" y="-19" type="line"/>
			<point x="595" y="6" type="line"/>
			<point x="728" y="41" type="line"/>
			<point x="729" y="221" type="line"/>
			<point x="734" y="221" type="line"/>
			<point x="738" y="756" type="line"/>
			<point x="886" y="756" type="line"/>
			<point x="890" y="221" type="line"/>
			<point x="895" y="221" type="line"/>
			<point x="896" y="42" type="line"/>
			<point x="1029" y="6" type="line"/>
			<point x="1029" y="-19" type="line"/>
		</contour>
		<contour>
			<point x="738" y="756" type="line"/>
			<point x="734" y="1274" type="line"/>
			<point x="729" y="1274" type="line"/>
			<point x="728" y="1458" type="line"/>
			<point x="595" y="1492" type="line"/>
			<point x="595" y="1521" type="line"/>
			<point x="1029" y="1521" type="line"/>
			<point x="1029" y="1492" type="line"/>
			<point x="896" y="1458" type="line"/>
			<point x="895" y="1274" type="line"/>
			<point x="890" y="1274" type="line"/>
			<point x="886" y="756" type="line"/>
		</contour>
		<contour>
			<point x="773" y="205" type="line"/>
			<point x="382" y="205"/>
			<point x="65" y="506"/>
			<point x="65" y="723" type="qcurve" smooth="yes"/>
			<point x="65" y="979"/>
			<point x="419" y="1284"/>
			<point x="773" y="1293" type="qcurve"/>
			<point x="773" y="1261" type="line"/>
			<point x="466" y="1259"/>
			<point x="243" y="973"/>
			<point x="243" y="730" type="qcurve" smooth="yes"/>
			<point x="243" y="523"/>
			<point x="436" y="236"/>
			<point x="773" y="236" type="qcurve"/>
		</contour>
		<contour>
			<point x="836" y="205" type="qcurve"/>
			<point x="836" y="237" type="line"/>
			<point x="1143" y="239"/>
			<point x="1366" y="525"/>
			<point x="1366" y="768" type="qcurve" smooth="yes"/>
			<point x="1366" y="975"/>
			<point x="1173" y="1262"/>
			<point x="836" y="1262" type="qcurve"/>
			<point x="836" y="1293" type="line"/>
			<point x="1227" y="1293"/>
			<point x="1544" y="992"/>
			<point x="1544" y="775" type="qcurve" smooth="yes"/>
			<point x="1544" y="519"/>
			<point x="1190" y="214"/>
		</contour>
	</outline>
</glyph>
<glyph name="beta" format="2">
  <advance width="1126"/>
  <unicode hex="03B2"/>
  <outline>
    <contour>
      <point x="202" y="-460" type="line"/>
      <point x="170" y="-435" type="line"/>
      <point x="176" y="245" type="line"/>
      <point x="178" y="978" type="line"/>
      <point x="178" y="1262"/>
      <point x="415" y="1500"/>
      <point x="596" y="1500" type="qcurve"/>
      <point x="767" y="1500"/>
      <point x="947" y="1314"/>
      <point x="947" y="1178" type="qcurve" smooth="yes"/>
      <point x="947" y="1021"/>
      <point x="737" y="758"/>
      <point x="590" y="729" type="qcurve" smooth="yes"/>
      <point x="475" y="706" type="line"/>
      <point x="450" y="739" type="line"/>
      <point x="494" y="884" type="line"/>
      <point x="598" y="871" type="line" smooth="yes"/>
      <point x="854" y="839"/>
      <point x="1063" y="560"/>
      <point x="1063" y="385" type="qcurve" smooth="yes"/>
      <point x="1063" y="184"/>
      <point x="810" y="-58"/>
      <point x="619" y="-58" type="qcurve"/>
      <point x="503" y="-58"/>
      <point x="327" y="22"/>
      <point x="262" y="126" type="qcurve"/>
      <point x="262" y="212" type="line"/>
      <point x="305.0" y="184" type="line"/>
      <point x="360.0" y="77"/>
      <point x="504.0" y="-17"/>
      <point x="607.0" y="-17" type="qcurve" smooth="yes"/>
      <point x="730.0" y="-17"/>
      <point x="894.0" y="190"/>
      <point x="894.0" y="362" type="qcurve" smooth="yes"/>
      <point x="894.0" y="561"/>
      <point x="671.0" y="755"/>
      <point x="536.0" y="755" type="qcurve"/>
      <point x="549.0" y="807" type="line"/>
      <point x="636.0" y="815"/>
      <point x="804.0" y="1020"/>
      <point x="804.0" y="1171" type="qcurve" smooth="yes"/>
      <point x="804.0" y="1318"/>
      <point x="686.0" y="1459"/>
      <point x="585.0" y="1459" type="qcurve" smooth="yes"/>
      <point x="460.0" y="1459"/>
      <point x="327.0" y="1250"/>
      <point x="327.0" y="1008" type="qcurve"/>
      <point x="327" y="84" type="line"/>
      <point x="348" y="-442" type="line"/>
    </contour>
  </outline>
</glyph>
<glyph name="gamma" format="2">
  <advance width="927"/>
  <unicode hex="03B3"/>
  <guideline x="673" y="-40" angle="0" identifier="g2zcNzszsg"/>
  <outline>
    <contour>
      <point x="440" y="-480" type="line"/>
      <point x="409" y="-455" type="line"/>
      <point x="433" y="-14" type="line"/>
      <point x="451.0" y="-188" type="line"/>
      <point x="610.0" y="378" type="line"/>
      <point x="730.0" y="866.0" type="line"/>
      <point x="877" y="885" type="line"/>
      <point x="909" y="860" type="line"/>
      <point x="730" y="421" type="line"/>
      <point x="521" y="-158" type="line"/>
      <point x="471" y="-158" type="line"/>
      <point x="267" y="406" type="line"/>
      <point x="157" y="708" type="line" smooth="yes"/>
      <point x="148" y="732"/>
      <point x="128" y="750"/>
      <point x="99" y="755" type="qcurve" smooth="yes"/>
      <point x="9" y="774" type="line"/>
      <point x="9" y="861" type="line"/>
      <point x="181" y="892" type="line"/>
      <point x="222" y="892"/>
      <point x="270.0" y="846"/>
      <point x="293.0" y="757" type="qcurve" smooth="yes"/>
      <point x="401.0" y="375" type="line"/>
      <point x="543.0" y="-122" type="line"/>
      <point x="561" y="41" type="line"/>
      <point x="574" y="-461" type="line"/>
    </contour>
  </outline>
</glyph>
<glyph name="delta" format="2">
  <advance width="997"/>
  <unicode hex="03B4"/>
  <outline>
    <contour>
      <point x="497" y="-22" type="qcurve" smooth="yes"/>
      <point x="291" y="-22"/>
      <point x="58" y="209"/>
      <point x="58" y="397" type="qcurve" smooth="yes"/>
      <point x="58" y="580"/>
      <point x="293" y="835"/>
      <point x="486" y="870" type="qcurve"/>
      <point x="571" y="870" type="line"/>
      <point x="571.0" y="901" type="line"/>
      <point x="429.0" y="871"/>
      <point x="225.0" y="615"/>
      <point x="222.0" y="397" type="qcurve" smooth="yes"/>
      <point x="220.0" y="210"/>
      <point x="378.0" y="5"/>
      <point x="498.0" y="5" type="qcurve" smooth="yes"/>
      <point x="632.0" y="5"/>
      <point x="782.0" y="231"/>
      <point x="782.0" y="403" type="qcurve" smooth="yes"/>
      <point x="782.0" y="557"/>
      <point x="626" y="717"/>
      <point x="475" y="794" type="qcurve" smooth="yes"/>
      <point x="324" y="872"/>
      <point x="175" y="1028"/>
      <point x="175" y="1128" type="qcurve" smooth="yes"/>
      <point x="175" y="1259"/>
      <point x="372" y="1415"/>
      <point x="554" y="1415" type="qcurve" smooth="yes"/>
      <point x="666" y="1415"/>
      <point x="869" y="1351"/>
      <point x="897" y="1319" type="qcurve"/>
      <point x="879" y="1064" type="line"/>
      <point x="788" y="1064" type="line"/>
      <point x="749.0" y="1277" type="line"/>
      <point x="725.0" y="1318"/>
      <point x="599.0" y="1363"/>
      <point x="524.0" y="1363" type="qcurve" smooth="yes"/>
      <point x="433.0" y="1363"/>
      <point x="326.0" y="1269"/>
      <point x="326.0" y="1176" type="qcurve" smooth="yes"/>
      <point x="326.0" y="1107"/>
      <point x="402" y="998"/>
      <point x="594" y="888" type="qcurve" smooth="yes"/>
      <point x="761" y="792"/>
      <point x="939" y="565"/>
      <point x="939" y="428" type="qcurve" smooth="yes"/>
      <point x="939" y="228"/>
      <point x="698" y="-22"/>
    </contour>
  </outline>
</glyph>
<glyph name="epsilon" format="2">
  <advance width="951"/>
  <unicode hex="03B5"/>
  <anchor x="520" y="920" name="GRKtop"/>
  <outline>
    <contour>
      <point x="477" y="-22" type="qcurve" smooth="yes"/>
      <point x="293" y="-22"/>
      <point x="77" y="114"/>
      <point x="77" y="238" type="qcurve" smooth="yes"/>
      <point x="77" y="371"/>
      <point x="406" y="528"/>
      <point x="574" y="548" type="qcurve" smooth="yes"/>
      <point x="613" y="552" type="line"/>
      <point x="637" y="519" type="line"/>
      <point x="579" y="373" type="line"/>
      <point x="547" y="379" type="line" smooth="yes"/>
      <point x="364" y="416"/>
      <point x="110" y="553"/>
      <point x="110" y="667" type="qcurve" smooth="yes"/>
      <point x="110" y="786"/>
      <point x="311" y="941"/>
      <point x="502" y="941" type="qcurve" smooth="yes"/>
      <point x="616" y="941"/>
      <point x="788" y="887"/>
      <point x="820" y="854" type="qcurve"/>
      <point x="820" y="601" type="line"/>
      <point x="731" y="601" type="line"/>
      <point x="678.0" y="822" type="line"/>
      <point x="654.0" y="844"/>
      <point x="550.0" y="872"/>
      <point x="497.0" y="872" type="qcurve" smooth="yes"/>
      <point x="386.0" y="872"/>
      <point x="271.0" y="771"/>
      <point x="271.0" y="674" type="qcurve" smooth="yes"/>
      <point x="271.0" y="601"/>
      <point x="376.0" y="495"/>
      <point x="546.0" y="454" type="qcurve"/>
      <point x="541.0" y="443" type="line"/>
      <point x="383.0" y="445"/>
      <point x="249.0" y="337"/>
      <point x="249.0" y="253" type="qcurve" smooth="yes"/>
      <point x="249.0" y="160"/>
      <point x="384.0" y="64"/>
      <point x="484.0" y="64" type="qcurve" smooth="yes"/>
      <point x="609.0" y="64"/>
      <point x="793.0" y="156"/>
      <point x="864.0" y="241" type="qcurve"/>
      <point x="910" y="190" type="line"/>
      <point x="834" y="81"/>
      <point x="603" y="-22"/>
    </contour>
  </outline>
</glyph>
<glyph name="zeta" format="2">
  <advance width="793"/>
  <unicode hex="03B6"/>
  <outline>
    <contour>
      <point x="57" y="322" type="qcurve"/>
      <point x="58" y="470"/>
      <point x="295" y="822"/>
      <point x="651" y="1236" type="qcurve"/>
      <point x="133" y="1228" type="line"/>
      <point x="109" y="1259" type="line"/>
      <point x="123" y="1390" type="line"/>
      <point x="781" y="1372" type="line"/>
      <point x="781" y="1307" type="line"/>
      <point x="413" y="876"/>
      <point x="218" y="461"/>
      <point x="218" y="333" type="qcurve"/>
      <point x="218" y="198"/>
      <point x="385" y="85"/>
      <point x="607" y="76" type="qcurve" smooth="yes"/>
      <point x="631" y="75" type="line" smooth="yes"/>
      <point x="695" y="72"/>
      <point x="742" y="18"/>
      <point x="741" y="-21" type="qcurve"/>
      <point x="709" y="-283" type="line"/>
      <point x="683" y="-283" type="line"/>
      <point x="654" y="-116" type="line" smooth="yes"/>
      <point x="644" y="-56"/>
      <point x="616" y="-30"/>
      <point x="594" y="-29" type="qcurve" smooth="yes"/>
      <point x="561" y="-27" type="line" smooth="yes"/>
      <point x="294" y="-11"/>
      <point x="57" y="156"/>
    </contour>
  </outline>
</glyph>
<glyph name="eta" format="2">
  <advance width="1114"/>
  <unicode hex="03B7"/>
  <anchor x="506" y="885" name="GRKtop"/>
  <outline>
    <contour>
      <point x="824" y="-480" type="line"/>
      <point x="792" y="-455" type="line"/>
      <point x="812" y="274" type="line"/>
      <point x="812.0" y="527.0" type="line" smooth="yes"/>
      <point x="812.0" y="674"/>
      <point x="715.0" y="819"/>
      <point x="622.0" y="819" type="qcurve"/>
      <point x="536.0" y="819"/>
      <point x="401.0" y="707"/>
      <point x="367.0" y="630" type="qcurve"/>
      <point x="366" y="471" type="line"/>
      <point x="375" y="-19" type="line"/>
      <point x="242" y="-37" type="line"/>
      <point x="210" y="-13" type="line"/>
      <point x="219.0" y="629.0" type="line"/>
      <point x="217.0" y="725"/>
      <point x="184.0" y="779"/>
      <point x="146.0" y="788" type="qcurve" smooth="yes"/>
      <point x="88.0" y="803" type="line"/>
      <point x="88" y="861" type="line"/>
      <point x="254" y="892" type="line"/>
      <point x="302" y="892"/>
      <point x="357" y="808"/>
      <point x="368" y="732" type="qcurve"/>
      <point x="369" y="732" type="line"/>
      <point x="403" y="803"/>
      <point x="569" y="904"/>
      <point x="676" y="904" type="qcurve" smooth="yes"/>
      <point x="816" y="904"/>
      <point x="961" y="739"/>
      <point x="965" y="564" type="qcurve" smooth="yes"/>
      <point x="962" y="276" type="line"/>
      <point x="971" y="-462" type="line"/>
    </contour>
  </outline>
</glyph>
<glyph name="theta" format="2">
	<unicode hex="03B8"/>
	<advance width="1069"/>
	<outline>
		<contour>
			<point x="533" y="-20" type="qcurve" smooth="yes"/>
			<point x="298" y="-20"/>
			<point x="73" y="299"/>
			<point x="72" y="665" type="qcurve" smooth="yes"/>
			<point x="71" y="1035"/>
			<point x="309" y="1500"/>
			<point x="539" y="1500" type="qcurve" smooth="yes"/>
			<point x="771" y="1500"/>
			<point x="996" y="1095"/>
			<point x="997" y="718" type="qcurve" smooth="yes"/>
			<point x="998" y="359"/>
			<point x="760" y="-20"/>
		</contour>
		<contour>
			<point x="534" y="7" type="qcurve" smooth="yes"/>
			<point x="690" y="7"/>
			<point x="831" y="317"/>
			<point x="831" y="743" type="qcurve"/>
			<point x="831" y="1112"/>
			<point x="688" y="1459"/>
			<point x="537" y="1459" type="qcurve" smooth="yes"/>
			<point x="374" y="1459"/>
			<point x="238" y="1079"/>
			<point x="238" y="740" type="qcurve"/>
			<point x="238" y="283"/>
			<point x="380" y="7"/>
		</contour>
		<contour>
			<point x="205" y="708" type="line"/>
			<point x="205" y="769" type="line"/>
			<point x="531" y="751" type="line"/>
			<point x="855" y="769" type="line"/>
			<point x="855" y="708" type="line"/>
			<point x="531" y="726" type="line"/>
		</contour>
	</outline>
</glyph>
<glyph name="kappa" format="2">
  <advance width="1002"/>
  <unicode hex="03BA"/>
  <outline>
    <contour>
      <point x="167" y="-1" type="line"/>
      <point x="170" y="448" type="line"/>
      <point x="160" y="903" type="line"/>
      <point x="307" y="921" type="line"/>
      <point x="339" y="896" type="line"/>
      <point x="321" y="430" type="line"/>
      <point x="323" y="-1" type="line"/>
    </contour>
    <contour>
      <point x="240" y="128" type="line"/>
      <point x="240" y="278" type="line"/>
      <point x="639" y="790" type="line" smooth="yes"/>
      <point x="687" y="850"/>
      <point x="785" y="929"/>
      <point x="879" y="931" type="qcurve"/>
      <point x="904" y="899" type="line"/>
      <point x="889" y="761" type="line"/>
      <point x="813" y="761"/>
      <point x="742" y="741"/>
      <point x="705" y="695" type="qcurve" smooth="yes"/>
    </contour>
    <contour>
      <point x="802" y="-8" type="line"/>
      <point x="761" y="-8"/>
      <point x="706" y="28"/>
      <point x="677" y="85" type="qcurve" smooth="yes"/>
      <point x="467" y="492" type="line"/>
      <point x="560" y="599" type="line"/>
      <point x="771.0" y="228.0" type="line" smooth="yes"/>
      <point x="815.0" y="136"/>
      <point x="867.0" y="84"/>
      <point x="905.0" y="84" type="qcurve" smooth="yes"/>
      <point x="962.0" y="84" type="line"/>
      <point x="962" y="31" type="line"/>
    </contour>
  </outline>
</glyph>
<glyph name="lambda" format="2">
  <advance width="926"/>
  <unicode hex="03BB"/>
  <outline>
    <contour>
      <point x="774" y="-8" type="line"/>
      <point x="729" y="-8"/>
      <point x="670" y="37"/>
      <point x="653" y="88" type="qcurve" smooth="yes"/>
      <point x="412" y="800" type="line"/>
      <point x="288" y="1176" type="line" smooth="yes"/>
      <point x="254" y="1279"/>
      <point x="181" y="1325"/>
      <point x="140" y="1329" type="qcurve" smooth="yes"/>
      <point x="47" y="1348" type="line"/>
      <point x="47" y="1385" type="line"/>
      <point x="219" y="1417" type="line"/>
      <point x="293" y="1417"/>
      <point x="378" y="1318"/>
      <point x="408" y="1227" type="qcurve" smooth="yes"/>
      <point x="538" y="837" type="line"/>
      <point x="771" y="149" type="line" smooth="yes"/>
      <point x="785" y="107"/>
      <point x="827" y="51"/>
      <point x="870" y="58" type="qcurve" smooth="yes"/>
      <point x="935" y="58" type="line"/>
      <point x="935" y="31" type="line"/>
    </contour>
    <contour>
      <point x="22" y="-1" type="line"/>
      <point x="-10" y="24" type="line"/>
      <point x="203" y="515" type="line"/>
      <point x="410" y="1014" type="line"/>
      <point x="461" y="862" type="line"/>
      <point x="322" y="488" type="line"/>
      <point x="169" y="18" type="line"/>
    </contour>
  </outline>
</glyph>
<glyph name="mu" format="2">
  <advance width="1077"/>
  <unicode hex="03BC"/>
  <outline>
    <contour>
      <point x="183" y="-480" type="line"/>
      <point x="151" y="-455" type="line"/>
      <point x="160" y="327" type="line"/>
      <point x="151" y="866" type="line"/>
      <point x="298" y="885" type="line"/>
      <point x="330" y="860" type="line"/>
      <point x="312" y="277" type="line"/>
      <point x="312" y="117"/>
      <point x="405" y="17"/>
      <point x="492" y="17" type="qcurve" smooth="yes"/>
      <point x="563" y="17"/>
      <point x="701" y="87"/>
      <point x="749" y="157" type="qcurve"/>
      <point x="749" y="212" type="line"/>
      <point x="743" y="866" type="line"/>
      <point x="890" y="885" type="line"/>
      <point x="922" y="860" type="line"/>
      <point x="901" y="212" type="line"/>
      <point x="902" y="76"/>
      <point x="932" y="13"/>
      <point x="976" y="21" type="qcurve" smooth="yes"/>
      <point x="1028" y="21" type="line"/>
      <point x="1028" y="-6" type="line"/>
      <point x="885" y="-45" type="line"/>
      <point x="825" y="-43"/>
      <point x="767" y="26"/>
      <point x="750" y="97" type="qcurve"/>
      <point x="750" y="97" type="line"/>
      <point x="716" y="45"/>
      <point x="552" y="-57"/>
      <point x="459" y="-57" type="qcurve" smooth="yes"/>
      <point x="406" y="-57"/>
      <point x="311" y="-15"/>
      <point x="291" y="21" type="qcurve"/>
      <point x="330" y="-462" type="line"/>
    </contour>
  </outline>
</glyph>
<glyph name="nu" format="2">
  <advance width="927"/>
  <unicode hex="03BD"/>
  <outline>
    <contour>
      <point x="429" y="2" type="line"/>
      <point x="267" y="444" type="line"/>
      <point x="157" y="745" type="line" smooth="yes"/>
      <point x="148" y="770"/>
      <point x="128" y="788"/>
      <point x="99" y="793" type="qcurve" smooth="yes"/>
      <point x="9" y="812" type="line"/>
      <point x="9" y="898" type="line"/>
      <point x="181" y="930" type="line"/>
      <point x="222" y="930"/>
      <point x="270" y="886"/>
      <point x="293" y="812" type="qcurve" smooth="yes"/>
      <point x="401.0" y="492" type="line"/>
      <point x="512.0" y="91" type="line"/>
      <point x="494.0" y="91" type="line"/>
      <point x="610.0" y="496.0" type="line"/>
      <point x="730" y="904" type="line"/>
      <point x="877" y="922" type="line"/>
      <point x="909" y="897" type="line"/>
      <point x="730" y="458" type="line"/>
      <point x="564" y="2" type="line"/>
    </contour>
  </outline>
</glyph>
<glyph name="xi" format="2">
  <advance width="859"/>
  <unicode hex="03BE"/>
  <outline>
    <contour>
      <point x="664" y="-353" type="line"/>
      <point x="634" y="-182" type="line"/>
      <point x="624" y="-86"/>
      <point x="595" y="-61"/>
      <point x="573" y="-99" type="qcurve"/>
      <point x="542" y="-97" type="line"/>
      <point x="318" y="-36"/>
      <point x="67" y="142"/>
      <point x="67" y="304" type="qcurve" smooth="yes"/>
      <point x="67" y="486"/>
      <point x="381" y="724"/>
      <point x="682" y="778" type="qcurve" smooth="yes"/>
      <point x="713" y="783" type="line"/>
      <point x="738" y="750" type="line"/>
      <point x="695" y="586" type="line"/>
      <point x="660" y="591" type="line" smooth="yes"/>
      <point x="347" y="632"/>
      <point x="136" y="798"/>
      <point x="136" y="928" type="qcurve" smooth="yes"/>
      <point x="136" y="1038"/>
      <point x="256" y="1198"/>
      <point x="404" y="1238" type="qcurve"/>
      <point x="405" y="1230" type="line"/>
      <point x="153" y="1228" type="line"/>
      <point x="129" y="1259" type="line"/>
      <point x="143" y="1390" type="line"/>
      <point x="810" y="1372" type="line"/>
      <point x="810.0" y="1301" type="line"/>
      <point x="523.0" y="1275"/>
      <point x="274.0" y="1097"/>
      <point x="274.0" y="942" type="qcurve" smooth="yes"/>
      <point x="274.0" y="828"/>
      <point x="438.0" y="695"/>
      <point x="686.0" y="684" type="qcurve"/>
      <point x="685.0" y="677" type="line"/>
      <point x="413.0" y="684"/>
      <point x="232.0" y="469"/>
      <point x="232.0" y="328" type="qcurve"/>
      <point x="232.0" y="205"/>
      <point x="390.0" y="53"/>
      <point x="580.0" y="43" type="qcurve" smooth="yes"/>
      <point x="667.0" y="38" type="line" smooth="yes"/>
      <point x="735.0" y="36"/>
      <point x="784.0" y="-30"/>
      <point x="781.0" y="-78" type="qcurve"/>
      <point x="750" y="-313" type="line"/>
    </contour>
  </outline>
</glyph>
<glyph name="pi" format="2">
  <advance width="1125"/>
  <unicode hex="03C0"/>
  <outline>
    <contour>
      <point x="1072" y="761" type="line"/>
      <point x="48" y="781" type="line"/>
      <point x="48" y="868" type="line"/>
      <point x="181" y="912" type="line"/>
      <point x="1062" y="931" type="line"/>
      <point x="1087" y="899" type="line"/>
    </contour>
    <contour>
      <point x="235" y="-1" type="line"/>
      <point x="203" y="24" type="line"/>
      <point x="252" y="434" type="line"/>
      <point x="298" y="845" type="line"/>
      <point x="401" y="845" type="line"/>
      <point x="389" y="428" type="line"/>
      <point x="382" y="18" type="line"/>
    </contour>
    <contour>
      <point x="886" y="-8" type="line"/>
      <point x="818" y="-8"/>
      <point x="755" y="91"/>
      <point x="756" y="262" type="qcurve" smooth="yes"/>
      <point x="760" y="845" type="line"/>
      <point x="888" y="845" type="line"/>
      <point x="890.0" y="277" type="line" smooth="yes"/>
      <point x="890.0" y="177"/>
      <point x="944.0" y="96"/>
      <point x="972.0" y="93" type="qcurve"/>
      <point x="1047.0" y="93" type="line"/>
      <point x="1047" y="31" type="line"/>
    </contour>
  </outline>
</glyph>
<glyph name="sigma" format="2">
  <advance width="1044"/>
  <unicode hex="03C3"/>
  <outline>
    <contour>
      <point x="482" y="-20" type="qcurve" smooth="yes"/>
      <point x="288" y="-20"/>
      <point x="56" y="220"/>
      <point x="56" y="417" type="qcurve" smooth="yes"/>
      <point x="56" y="629"/>
      <point x="322" y="894"/>
      <point x="593" y="906" type="qcurve" smooth="yes"/>
      <point x="985" y="923" type="line"/>
      <point x="1004" y="912" type="line"/>
      <point x="973.0" y="799" type="line"/>
      <point x="674.0" y="808" type="line" smooth="yes"/>
      <point x="440" y="815"/>
      <point x="222" y="615"/>
      <point x="222.0" y="409" type="qcurve" smooth="yes"/>
      <point x="222" y="191"/>
      <point x="379" y="7"/>
      <point x="487.0" y="7" type="qcurve" smooth="yes"/>
      <point x="608" y="7.0"/>
      <point x="762" y="211"/>
      <point x="762.0" y="436" type="qcurve" smooth="yes"/>
      <point x="762.0" y="632"/>
      <point x="681" y="809"/>
      <point x="599.0" y="850" type="qcurve"/>
      <point x="599.0" y="863" type="line"/>
      <point x="648.0" y="863" type="line"/>
      <point x="789.0" y="793"/>
      <point x="924" y="566"/>
      <point x="924" y="441" type="qcurve" smooth="yes"/>
      <point x="924.0" y="241.0"/>
      <point x="681.0" y="-20.0"/>
    </contour>
  </outline>
</glyph>
<glyph name="tau" format="2">
	<unicode hex="03C4"/>
	<advance width="821"/>
	<outline>
		<contour>
			<point x="739" y="799" type="line"/>
			<point x="43" y="803" type="line"/>
			<point x="43" y="827" type="line"/>
			<point x="201" y="896" type="line"/>
			<point x="733" y="923" type="line"/>
			<point x="752" y="912" type="line"/>
		</contour>
		<contour>
			<point x="430" y="-8" type="line"/>
			<point x="371" y="-10"/>
			<point x="290" y="69"/>
			<point x="298" y="145" type="qcurve" smooth="yes"/>
			<point x="366" y="862" type="line"/>
			<point x="443" y="862" type="line"/>
			<point x="449" y="181" type="line" smooth="yes"/>
			<point x="451" y="119"/>
			<point x="509" y="71"/>
			<point x="576" y="60" type="qcurve" smooth="yes"/>
			<point x="637" y="50" type="line"/>
			<point x="637" y="29" type="line"/>
		</contour>
	</outline>
</glyph>
<glyph name="phi" format="2">
	<unicode hex="03C6"/>
	<advance width="1212"/>
	<outline>
		<contour>
			<point x="578" y="-20" type="line"/>
			<point x="319" y="-12"/>
			<point x="48" y="240"/>
			<point x="48" y="440" type="qcurve" smooth="yes"/>
			<point x="48" y="672"/>
			<point x="336" y="942"/>
			<point x="586" y="942" type="qcurve"/>
			<point x="586" y="913" type="line"/>
			<point x="399" y="913"/>
			<point x="214" y="705"/>
			<point x="214" y="452" type="qcurve" smooth="yes"/>
			<point x="214" y="243"/>
			<point x="392" y="9"/>
			<point x="578" y="7" type="qcurve"/>
		</contour>
		<contour>
			<point x="634" y="-20" type="qcurve"/>
			<point x="634" y="7" type="line"/>
			<point x="820" y="9"/>
			<point x="998" y="243"/>
			<point x="998" y="452" type="qcurve" smooth="yes"/>
			<point x="998" y="705"/>
			<point x="813" y="913"/>
			<point x="626" y="913" type="qcurve"/>
			<point x="626" y="942" type="line"/>
			<point x="876" y="942"/>
			<point x="1164" y="672"/>
			<point x="1164" y="440" type="qcurve" smooth="yes"/>
			<point x="1164" y="240"/>
			<point x="893" y="-12"/>
		</contour>
		<contour>
			<point x="542" y="-460" type="line"/>
			<point x="523" y="-449" type="line"/>
			<point x="539" y="-8" type="line"/>
			<point x="536" y="-8" type="line"/>
			<point x="555" y="930" type="line"/>
			<point x="553" y="930" type="line"/>
			<point x="561" y="1501" type="line"/>
			<point x="632" y="1512" type="line"/>
			<point x="651" y="1501" type="line"/>
			<point x="660" y="930" type="line"/>
			<point x="658" y="930" type="line"/>
			<point x="678" y="-8" type="line"/>
			<point x="675" y="-8" type="line"/>
			<point x="690" y="-438" type="line"/>
		</contour>
	</outline>
</glyph>
<glyph name="chi" format="2">
	<unicode hex="03C7"/>
	<advance width="931"/>
	<outline>
		<contour>
			<point x="815" y="-488" type="line"/>
			<point x="771" y="-488"/>
			<point x="722" y="-450"/>
			<point x="708" y="-418" type="qcurve" smooth="yes"/>
			<point x="452" y="159" type="line"/>
			<point x="234" y="600" type="line" smooth="yes"/>
			<point x="179" y="734"/>
			<point x="127" y="779"/>
			<point x="77" y="793" type="qcurve" smooth="yes"/>
			<point x="18" y="807" type="line"/>
			<point x="18" y="860" type="line"/>
			<point x="189" y="891" type="line"/>
			<point x="256" y="891"/>
			<point x="310" y="790"/>
			<point x="350" y="701" type="qcurve" smooth="yes"/>
			<point x="538" y="281" type="line"/>
			<point x="828" y="-317" type="line" smooth="yes"/>
			<point x="842" y="-351"/>
			<point x="871" y="-377"/>
			<point x="897" y="-383" type="qcurve"/>
			<point x="971" y="-383" type="line"/>
			<point x="971" y="-449" type="line"/>
		</contour>
		<contour>
			<point x="58" y="-481" type="line"/>
			<point x="26" y="-456" type="line"/>
			<point x="295" y="-1" type="line"/>
			<point x="442" y="275" type="line"/>
			<point x="497" y="158" type="line"/>
			<point x="395" y="-52" type="line"/>
			<point x="205" y="-462" type="line"/>
		</contour>
		<contour>
			<point x="534" y="196" type="line"/>
			<point x="480" y="312" type="line"/>
			<point x="547" y="455" type="line"/>
			<point x="737" y="866" type="line"/>
			<point x="884" y="884" type="line"/>
			<point x="916" y="859" type="line"/>
			<point x="647" y="405" type="line"/>
		</contour>
	</outline>
</glyph>
<glyph name="psi" format="2">
  <advance width="1256"/>
  <unicode hex="03C8"/>
  <outline>
    <contour>
      <point x="641" y="-10" type="line"/>
      <point x="384" y="-10"/>
      <point x="187" y="173"/>
      <point x="189" y="357" type="qcurve" smooth="yes"/>
      <point x="193" y="680" type="line" smooth="yes"/>
      <point x="194" y="772"/>
      <point x="169" y="841"/>
      <point x="119" y="851" type="qcurve"/>
      <point x="62" y="865" type="line"/>
      <point x="62" y="889" type="line"/>
      <point x="284" y="923" type="line"/>
      <point x="321" y="923"/>
      <point x="348" y="871"/>
      <point x="347" y="794" type="qcurve" smooth="yes"/>
      <point x="342" y="359" type="line" smooth="yes"/>
      <point x="340" y="204"/>
      <point x="458" y="41"/>
      <point x="641" y="41" type="qcurve"/>
    </contour>
    <contour>
      <point x="687" y="-10" type="qcurve"/>
      <point x="687" y="41" type="line"/>
      <point x="886" y="41"/>
      <point x="997" y="273"/>
      <point x="997" y="452" type="qcurve" smooth="yes"/>
      <point x="997" y="596"/>
      <point x="927" y="828"/>
      <point x="873" y="911" type="qcurve"/>
      <point x="936" y="946" type="line"/>
      <point x="1049" y="836"/>
      <point x="1163" y="597"/>
      <point x="1163" y="448" type="qcurve" smooth="yes"/>
      <point x="1163" y="255"/>
      <point x="947" y="-10"/>
    </contour>
    <contour>
      <point x="621.0" y="1411" type="move"/>
      <point x="692.0" y="1422" type="line"/>
      <point x="711.0" y="1411" type="line"/>
      <point x="738.0" y="31" type="line"/>
      <point x="735.0" y="31" type="line"/>
      <point x="755.0" y="-438" type="line"/>
      <point x="597.0" y="-460" type="line"/>
      <point x="578.0" y="-449" type="line"/>
      <point x="599.0" y="31" type="line"/>
      <point x="596.0" y="31" type="line"/>
      <point x="621.0" y="1411" type="line"/>
    </contour>
  </outline>
</glyph>
<glyph name="omega" format="2">
  <advance width="1325"/>
  <unicode hex="03C9"/>
  <anchor x="679" y="920" name="GRKtop"/>
  <outline>
    <contour>
      <point x="410" y="-20" type="qcurve" smooth="yes"/>
      <point x="226" y="-20"/>
      <point x="58" y="221"/>
      <point x="58" y="388" type="qcurve" smooth="yes"/>
      <point x="58" y="585"/>
      <point x="256" y="872"/>
      <point x="385" y="927" type="qcurve"/>
      <point x="457" y="880" type="line"/>
      <point x="359" y="821"/>
      <point x="225" y="567"/>
      <point x="225" y="397" type="qcurve" smooth="yes"/>
      <point x="225" y="233"/>
      <point x="319" y="7"/>
      <point x="407" y="7" type="qcurve" smooth="yes"/>
      <point x="496" y="7"/>
      <point x="606" y="217"/>
      <point x="620" y="355" type="qcurve"/>
      <point x="698" y="355" type="line"/>
      <point x="715" y="207"/>
      <point x="822" y="7"/>
      <point x="904" y="7" type="qcurve" smooth="yes"/>
      <point x="996" y="7"/>
      <point x="1100" y="270"/>
      <point x="1100" y="453" type="qcurve" smooth="yes"/>
      <point x="1100" y="599"/>
      <point x="1015" y="818"/>
      <point x="927" y="911" type="qcurve"/>
      <point x="990" y="946" type="line"/>
      <point x="1110" y="862"/>
      <point x="1267" y="617"/>
      <point x="1267" y="453" type="qcurve" smooth="yes"/>
      <point x="1267" y="255"/>
      <point x="1061" y="-20"/>
      <point x="908" y="-20" type="qcurve" smooth="yes"/>
      <point x="777" y="-20"/>
      <point x="566" y="300"/>
      <point x="566" y="528" type="qcurve"/>
      <point x="566" y="570" type="line"/>
      <point x="731" y="587" type="line"/>
      <point x="750" y="576" type="line"/>
      <point x="750" y="540" type="line"/>
      <point x="750" y="302"/>
      <point x="551" y="-20"/>
    </contour>
  </outline>
</glyph>
<glyph name="Kaisymbol" format="2">
  <advance width="1440"/>
  <unicode hex="03CF"/>
  <outline>
    <contour>
      <point x="713" y="-432" type="qcurve" smooth="yes"/>
      <point x="582" y="-432"/>
      <point x="287" y="-292"/>
      <point x="204" y="-195" type="qcurve"/>
      <point x="221" y="-173" type="line"/>
      <point x="289" y="-225"/>
      <point x="548" y="-320"/>
      <point x="709" y="-320" type="qcurve" smooth="yes"/>
      <point x="950" y="-320"/>
      <point x="1234" y="-123"/>
      <point x="1265" y="0.0" type="qcurve"/>
      <point x="1312" y="0.0" type="line"/>
      <point x="1281.0" y="-189"/>
      <point x="976.0" y="-432.0"/>
    </contour>
    <component base="K"/>
  </outline>
</glyph>
<glyph name="kaisymbol" format="2">
  <advance width="919"/>
  <unicode hex="03D7"/>
  <outline>
    <contour>
      <point x="481.0" y="-458" type="qcurve" smooth="yes"/>
      <point x="314" y="-458"/>
      <point x="81" y="-314"/>
      <point x="-2.0" y="-172" type="qcurve"/>
      <point x="20.0" y="-153" type="line"/>
      <point x="115.0" y="-261"/>
      <point x="328.0" y="-358"/>
      <point x="480.0" y="-358" type="qcurve" smooth="yes"/>
      <point x="683" y="-358"/>
      <point x="927.0" y="-112"/>
      <point x="927.0" y="53" type="qcurve"/>
      <point x="1017.0" y="53" type="line"/>
      <point x="1026.0" y="-146"/>
      <point x="730" y="-458"/>
    </contour>
    <component base="kappa"/>
  </outline>
</glyph>
<glyph name="Lje" format="2">
	<unicode hex="0409"/>
	<advance width="1787"/>
	<outline>
		<contour>
			<point x="1562" y="438" type="qcurve" smooth="yes"/>
			<point x="1562" y="592"/>
			<point x="1419" y="838"/>
			<point x="1238" y="838" type="qcurve" smooth="yes"/>
			<point x="1041" y="838" type="line"/>
			<point x="1041" y="838" type="line"/>
			<point x="1043" y="49" type="line"/>
			<point x="1075" y="28" type="line"/>
			<point x="1234" y="28" type="line" smooth="yes"/>
			<point x="1422" y="28"/>
			<point x="1562" y="270"/>
		</contour>
		<contour>
			<point x="1043" y="1437" type="line"/>
			<point x="1041" y="866" type="line"/>
			<point x="1041" y="866" type="line"/>
			<point x="1238" y="866" type="line" smooth="yes"/>
			<point x="1457" y="866"/>
			<point x="1738" y="655"/>
			<point x="1737" y="438" type="qcurve" smooth="yes"/>
			<point x="1736" y="215"/>
			<point x="1457" y="0"/>
			<point x="1238" y="0" type="qcurve" smooth="yes"/>
			<point x="711" y="0" type="line"/>
			<point x="711" y="25" type="line"/>
			<point x="876" y="60" type="line"/>
			<point x="878" y="775" type="line"/>
			<point x="876" y="1447" type="line"/>
			<point x="849" y="1470" type="line"/>
			<point x="491" y="1470" type="line"/>
			<point x="464" y="1447" type="line"/>
			<point x="427" y="754" type="line" smooth="yes"/>
			<point x="404" y="327"/>
			<point x="300" y="-17"/>
			<point x="129" y="-17" type="qcurve" smooth="yes"/>
			<point x="105" y="-17"/>
			<point x="60" y="-9"/>
			<point x="40" y="0" type="qcurve"/>
			<point x="40" y="123" type="line"/>
			<point x="64" y="115"/>
			<point x="104" y="110"/>
			<point x="125" y="110" type="qcurve" smooth="yes"/>
			<point x="249" y="110"/>
			<point x="358" y="345"/>
			<point x="386" y="838" type="qcurve" smooth="yes"/>
			<point x="420" y="1437" type="line"/>
			<point x="255" y="1474" type="line"/>
			<point x="255" y="1500" type="line"/>
			<point x="1208" y="1500" type="line"/>
			<point x="1208" y="1471" type="line"/>
		</contour>
	</outline>
</glyph>
<glyph name="Tshe" format="2">
	<unicode hex="040B"/>
	<advance width="1583"/>
	<outline>
		<contour>
			<point x="1522" y="25" type="line"/>
			<point x="1522" y="0" type="line"/>
			<point x="1189" y="0" type="line"/>
			<point x="1190" y="456" type="line" smooth="yes"/>
			<point x="1190.4605252084" y="665.9994950388"/>
			<point x="1071.5677655678" y="827"/>
			<point x="916" y="827" type="qcurve" smooth="yes"/>
			<point x="815" y="827"/>
			<point x="626" y="790"/>
			<point x="537" y="760" type="qcurve"/>
			<point x="537" y="787" type="line"/>
			<point x="631" y="821"/>
			<point x="828" y="861"/>
			<point x="941" y="861" type="qcurve" smooth="yes"/>
			<point x="1169" y="861"/>
			<point x="1357" y="676"/>
			<point x="1357" y="449" type="qcurve" smooth="yes"/>
			<point x="1357" y="60" type="line"/>
		</contour>
		<contour>
			<point x="10" y="1165" type="line"/>
			<point x="10" y="1500" type="line"/>
			<point x="1106" y="1500" type="line"/>
			<point x="1106" y="1165" type="line"/>
			<point x="1079" y="1165" type="line"/>
			<point x="971" y="1471" type="line"/>
			<point x="664" y="1471" type="line"/>
			<point x="619" y="1459" type="line"/>
			<point x="619" y="754" type="line"/>
			<point x="621" y="60" type="line"/>
			<point x="793" y="25" type="line"/>
			<point x="793" y="0" type="line"/>
			<point x="279" y="0" type="line"/>
			<point x="279" y="25" type="line"/>
			<point x="453" y="60" type="line"/>
			<point x="455" y="754" type="line"/>
			<point x="457" y="1459" type="line"/>
			<point x="412" y="1471" type="line"/>
			<point x="135" y="1471" type="line"/>
			<point x="37" y="1165" type="line"/>
		</contour>
	</outline>
</glyph>
<glyph name="Be" format="2">
	<unicode hex="0411"/>
	<advance width="1162"/>
	<outline>
		<contour>
			<point x="922" y="432" type="qcurve" smooth="yes"/>
			<point x="922" y="629"/>
			<point x="749" y="804"/>
			<point x="605" y="804" type="qcurve" smooth="yes"/>
			<point x="391" y="804" type="line"/>
			<point x="391" y="804" type="line"/>
			<point x="393" y="49" type="line"/>
			<point x="425" y="28" type="line"/>
			<point x="605" y="28" type="line" smooth="yes"/>
			<point x="760" y="28"/>
			<point x="922" y="215"/>
		</contour>
		<contour>
			<point x="61" y="0" type="line"/>
			<point x="61" y="25" type="line"/>
			<point x="226" y="60" type="line"/>
			<point x="228" y="775" type="line"/>
			<point x="226" y="1437" type="line"/>
			<point x="61" y="1471" type="line"/>
			<point x="61" y="1500" type="line"/>
			<point x="986" y="1500" type="line"/>
			<point x="986" y="1170" type="line"/>
			<point x="959" y="1170" type="line"/>
			<point x="873" y="1470" type="line"/>
			<point x="422" y="1470" type="line"/>
			<point x="394" y="1454" type="line"/>
			<point x="391" y="832" type="line"/>
			<point x="391" y="832" type="line"/>
			<point x="608" y="832" type="line" smooth="yes"/>
			<point x="847" y="832"/>
			<point x="1097" y="618"/>
			<point x="1097" y="432" type="qcurve" smooth="yes"/>
			<point x="1097" y="241"/>
			<point x="848" y="0"/>
			<point x="618" y="0" type="qcurve" smooth="yes"/>
		</contour>
	</outline>
</glyph>
<glyph name="Ghe" format="2">
	<unicode hex="0413"/>
	<advance width="1066"/>
	<outline>
		<contour>
			<point x="61" y="0" type="line"/>
			<point x="61" y="25" type="line"/>
			<point x="226" y="60" type="line"/>
			<point x="228" y="775" type="line"/>
			<point x="226" y="1437" type="line"/>
			<point x="61" y="1471" type="line"/>
			<point x="61" y="1500" type="line"/>
			<point x="1006" y="1500" type="line"/>
			<point x="1006" y="1170" type="line"/>
			<point x="979" y="1170" type="line"/>
			<point x="893" y="1470" type="line"/>
			<point x="416" y="1470" type="line"/>
			<point x="389" y="1447" type="line"/>
			<point x="391" y="775" type="line"/>
			<point x="393" y="57" type="line"/>
			<point x="578" y="25" type="line"/>
			<point x="578" y="0" type="line"/>
		</contour>
	</outline>
</glyph>
<glyph name="De" format="2">
	<unicode hex="0414"/>
	<advance width="1399"/>
	<outline>
		<contour>
			<point x="1324" y="-338" type="line"/>
			<point x="1215" y="0" type="line"/>
			<point x="174" y="0" type="line"/>
			<point x="65" y="-338" type="line"/>
			<point x="40" y="-338" type="line"/>
			<point x="50" y="28" type="line"/>
			<point x="1339" y="28" type="line"/>
			<point x="1349" y="-338" type="line"/>
		</contour>
		<contour>
			<point x="336" y="814" type="qcurve" smooth="yes"/>
			<point x="371" y="1437" type="line"/>
			<point x="206" y="1474" type="line"/>
			<point x="206" y="1500" type="line"/>
			<point x="1316" y="1500" type="line"/>
			<point x="1316" y="1471" type="line"/>
			<point x="1151" y="1437" type="line"/>
			<point x="1149" y="775" type="line"/>
			<point x="1151" y="0" type="line"/>
			<point x="984" y="0" type="line"/>
			<point x="986" y="775" type="line"/>
			<point x="984" y="1447" type="line"/>
			<point x="957" y="1470" type="line"/>
			<point x="442" y="1470" type="line"/>
			<point x="415" y="1447" type="line"/>
			<point x="379" y="813" type="line" smooth="yes"/>
			<point x="363.2077726175" y="534.8813288741"/>
			<point x="298.2636453256" y="157.2493736944"/>
			<point x="248" y="28" type="qcurve"/>
			<point x="182" y="28" type="line"/>
			<point x="241.4536341909" y="160.2330829419"/>
			<point x="320.6628071968" y="540.9979681026"/>
		</contour>
	</outline>
</glyph>
<glyph name="Zhe" format="2">
  <advance width="1834"/>
  <unicode hex="0416"/>
  <guideline x="480" y="796" angle="90" identifier="vQLQteAbfW"/>
  <anchor x="917.0" y="0" name="bottom"/>
  <anchor x="917.0" y="1500" name="top"/>
  <outline>
    <contour>
      <point x="667" y="0" type="line"/>
      <point x="667" y="25" type="line"/>
      <point x="832" y="60" type="line"/>
      <point x="834" y="775" type="line"/>
      <point x="832" y="1437" type="line"/>
      <point x="667" y="1471" type="line"/>
      <point x="667" y="1500" type="line"/>
      <point x="1164" y="1500" type="line"/>
      <point x="1164" y="1471" type="line"/>
      <point x="999" y="1437" type="line"/>
      <point x="996" y="775" type="line"/>
      <point x="999" y="60" type="line"/>
      <point x="1164" y="25" type="line"/>
      <point x="1164" y="0" type="line"/>
    </contour>
    <contour>
      <point x="915" y="766" type="line"/>
      <point x="915" y="798" type="line"/>
      <point x="1086" y="796" type="line"/>
      <point x="1580" y="1427" type="line"/>
      <point x="1408" y="1471" type="line"/>
      <point x="1408" y="1500" type="line"/>
      <point x="1822" y="1500" type="line"/>
      <point x="1822" y="1471" type="line"/>
      <point x="1632" y="1427" type="line"/>
      <point x="1124" y="795" type="line"/>
      <point x="1124" y="766" type="line"/>
    </contour>
    <contour>
      <point x="1081" y="776" type="line"/>
      <point x="1185" y="882" type="line"/>
      <point x="1757" y="60" type="line"/>
      <point x="1898" y="25" type="line"/>
      <point x="1898" y="0" type="line"/>
      <point x="1437" y="0" type="line"/>
      <point x="1437" y="25" type="line"/>
      <point x="1579" y="60" type="line"/>
    </contour>
    <contour>
      <point x="915" y="766" type="line"/>
      <point x="706" y="766" type="line"/>
      <point x="700" y="795" type="line"/>
      <point x="192" y="1427" type="line"/>
      <point x="2" y="1471" type="line"/>
      <point x="2" y="1500" type="line"/>
      <point x="422" y="1500" type="line"/>
      <point x="422" y="1471" type="line"/>
      <point x="250" y="1427" type="line"/>
      <point x="744" y="796" type="line"/>
      <point x="915" y="798" type="line"/>
    </contour>
    <contour>
      <point x="750" y="776" type="line"/>
      <point x="252" y="60" type="line"/>
      <point x="394" y="25" type="line"/>
      <point x="394" y="0" type="line"/>
      <point x="-64" y="0" type="line"/>
      <point x="-64" y="25" type="line"/>
      <point x="77" y="60" type="line"/>
      <point x="649" y="882" type="line"/>
    </contour>
  </outline>
</glyph>
<glyph name="Icyr" format="2">
  <advance width="1493"/>
  <unicode hex="0418"/>
  <guideline x="739" y="930" angle="90" identifier="jpSOnFR6u4"/>
  <guideline x="953" y="742" angle="0" identifier="rmoGi5h6UR"/>
  <anchor x="746.5" y="0" name="bottom"/>
  <anchor x="746.5" y="1500" name="top"/>
  <outline>
    <contour>
      <point x="935" y="0" type="line"/>
      <point x="935" y="25" type="line"/>
      <point x="1100" y="60" type="line"/>
      <point x="1102" y="775" type="line"/>
      <point x="1100" y="1437" type="line"/>
      <point x="935" y="1471" type="line"/>
      <point x="935" y="1500" type="line"/>
      <point x="1432" y="1500" type="line"/>
      <point x="1432" y="1471" type="line"/>
      <point x="1267" y="1437" type="line"/>
      <point x="1265" y="775" type="line"/>
      <point x="1267" y="60" type="line"/>
      <point x="1432" y="25" type="line"/>
      <point x="1432" y="0" type="line"/>
    </contour>
    <contour>
      <point x="61" y="0" type="line"/>
      <point x="61" y="25" type="line"/>
      <point x="226" y="60" type="line"/>
      <point x="228" y="775" type="line"/>
      <point x="226" y="1437" type="line"/>
      <point x="61" y="1471" type="line"/>
      <point x="61" y="1500" type="line"/>
      <point x="558" y="1500" type="line"/>
      <point x="558" y="1471" type="line"/>
      <point x="393" y="1437" type="line"/>
      <point x="391" y="775" type="line"/>
      <point x="393" y="60" type="line"/>
      <point x="558" y="25" type="line"/>
      <point x="558" y="0" type="line"/>
    </contour>
    <contour>
      <point x="392" y="195" type="line"/>
      <point x="359" y="214" type="line"/>
      <point x="744" y="800" type="line"/>
      <point x="1101" y="1362" type="line"/>
      <point x="1134" y="1343" type="line"/>
      <point x="770" y="786" type="line"/>
    </contour>
  </outline>
</glyph>
<glyph name="Ka" format="2">
  <advance width="1248"/>
  <unicode hex="041A"/>
  <guideline x="480" y="796" angle="90" identifier="LxfLwWU0sJ"/>
  <anchor x="694.0" y="0" name="bottom"/>
  <anchor x="684.0" y="1500" name="top"/>
  <outline>
    <contour>
      <point x="61" y="0" type="line"/>
      <point x="61" y="25" type="line"/>
      <point x="226" y="60" type="line"/>
      <point x="228" y="775" type="line"/>
      <point x="226" y="1437" type="line"/>
      <point x="61" y="1471" type="line"/>
      <point x="61" y="1500" type="line"/>
      <point x="558" y="1500" type="line"/>
      <point x="558" y="1471" type="line"/>
      <point x="393" y="1437" type="line"/>
      <point x="391" y="775" type="line"/>
      <point x="393" y="60" type="line"/>
      <point x="558" y="25" type="line"/>
      <point x="558" y="0" type="line"/>
    </contour>
    <contour>
      <point x="309" y="766" type="line"/>
      <point x="309" y="798" type="line"/>
      <point x="480" y="796" type="line"/>
      <point x="994" y="1427" type="line"/>
      <point x="822" y="1471" type="line"/>
      <point x="822" y="1500" type="line"/>
      <point x="1236" y="1500" type="line"/>
      <point x="1236" y="1471" type="line"/>
      <point x="1046" y="1427" type="line"/>
      <point x="518" y="795" type="line"/>
      <point x="518" y="766" type="line"/>
    </contour>
    <contour>
      <point x="475" y="776" type="line"/>
      <point x="576" y="882" type="line"/>
      <point x="1171" y="60" type="line"/>
      <point x="1312" y="25" type="line"/>
      <point x="1312" y="0" type="line"/>
      <point x="851" y="0" type="line"/>
      <point x="851" y="25" type="line"/>
      <point x="993" y="60" type="line"/>
    </contour>
  </outline>
</glyph>
<glyph name="El" format="2">
	<unicode hex="041B"/>
	<advance width="1406"/>
	<outline>
		<contour>
			<point x="386" y="838" type="qcurve" smooth="yes"/>
			<point x="420" y="1437" type="line"/>
			<point x="255" y="1474" type="line"/>
			<point x="255" y="1500" type="line"/>
			<point x="1345" y="1500" type="line"/>
			<point x="1345" y="1471" type="line"/>
			<point x="1180" y="1437" type="line"/>
			<point x="1178" y="775" type="line"/>
			<point x="1180" y="60" type="line"/>
			<point x="1345" y="25" type="line"/>
			<point x="1345" y="0" type="line"/>
			<point x="847" y="0" type="line"/>
			<point x="847" y="25" type="line"/>
			<point x="1013" y="60" type="line"/>
			<point x="1015" y="775" type="line"/>
			<point x="1013" y="1447" type="line"/>
			<point x="986" y="1470" type="line"/>
			<point x="491" y="1470" type="line"/>
			<point x="464" y="1447" type="line"/>
			<point x="427" y="754" type="line" smooth="yes"/>
			<point x="404" y="327"/>
			<point x="300" y="-17"/>
			<point x="129" y="-17" type="qcurve" smooth="yes"/>
			<point x="105" y="-17"/>
			<point x="60" y="-9"/>
			<point x="40" y="0" type="qcurve"/>
			<point x="40" y="123" type="line"/>
			<point x="64" y="115"/>
			<point x="104" y="110"/>
			<point x="125" y="110" type="qcurve" smooth="yes"/>
			<point x="249" y="110"/>
			<point x="358" y="345"/>
		</contour>
	</outline>
</glyph>
<glyph name="Pe" format="2">
	<unicode hex="041F"/>
	<advance width="1473"/>
	<outline>
		<contour>
			<point x="1080" y="1447" type="line"/>
			<point x="1053" y="1470" type="line"/>
			<point x="420" y="1470" type="line"/>
			<point x="393" y="1447" type="line"/>
			<point x="391" y="775" type="line"/>
			<point x="393" y="60" type="line"/>
			<point x="558" y="25" type="line"/>
			<point x="558" y="0" type="line"/>
			<point x="61" y="0" type="line"/>
			<point x="61" y="25" type="line"/>
			<point x="226" y="60" type="line"/>
			<point x="228" y="775" type="line"/>
			<point x="226" y="1437" type="line"/>
			<point x="61" y="1471" type="line"/>
			<point x="61" y="1500" type="line"/>
			<point x="1412" y="1500" type="line"/>
			<point x="1412" y="1471" type="line"/>
			<point x="1247" y="1437" type="line"/>
			<point x="1245" y="775" type="line"/>
			<point x="1247" y="60" type="line"/>
			<point x="1412" y="25" type="line"/>
			<point x="1412" y="0" type="line"/>
			<point x="915" y="0" type="line"/>
			<point x="915" y="25" type="line"/>
			<point x="1080" y="60" type="line"/>
			<point x="1082" y="775" type="line"/>
		</contour>
	</outline>
</glyph>
<glyph name="Ucyr" format="2">
  <advance width="1151"/>
  <unicode hex="0423"/>
  <guideline x="68" y="113" angle="0" identifier="smbNfLK6SQ"/>
  <anchor x="575.5" y="0" name="bottom"/>
  <anchor x="575.5" y="1500" name="top"/>
  <outline>
    <contour>
      <point x="633" y="501" type="qcurve" smooth="yes"/>
      <point x="755" y="800" type="line"/>
      <point x="991" y="1438" type="line"/>
      <point x="793" y="1473" type="line"/>
      <point x="793" y="1500" type="line"/>
      <point x="1220" y="1500" type="line"/>
      <point x="1220" y="1473" type="line"/>
      <point x="1025" y="1436" type="line"/>
      <point x="785" y="782" type="line"/>
      <point x="657" y="453" type="line" smooth="yes"/>
      <point x="575" y="241"/>
      <point x="417" y="-17"/>
      <point x="269" y="-17" type="qcurve" smooth="yes"/>
      <point x="245" y="-17"/>
      <point x="209" y="-10"/>
      <point x="180" y="0" type="qcurve"/>
      <point x="180" y="123" type="line"/>
      <point x="204" y="116"/>
      <point x="248" y="110"/>
      <point x="281" y="110" type="qcurve" smooth="yes"/>
      <point x="396" y="110"/>
      <point x="540" y="273"/>
    </contour>
    <contour>
      <point x="573" y="312" type="line"/>
      <point x="383" y="775" type="line"/>
      <point x="89" y="1434" type="line"/>
      <point x="-46" y="1473" type="line"/>
      <point x="-46" y="1500" type="line"/>
      <point x="407" y="1500" type="line"/>
      <point x="407" y="1473" type="line"/>
      <point x="260" y="1432" type="line"/>
      <point x="514" y="822" type="line"/>
      <point x="657" y="512" type="line"/>
    </contour>
  </outline>
</glyph>
<glyph name="Ef" format="2">
	<unicode hex="0424"/>
	<advance width="1618"/>
	<outline>
		<contour>
			<point x="1578" y="782" type="qcurve" smooth="yes"/>
			<point x="1578" y="524"/>
			<point x="1179" y="225"/>
			<point x="809" y="215" type="qcurve"/>
			<point x="809" y="247" type="line"/>
			<point x="1133" y="249"/>
			<point x="1400" y="553"/>
			<point x="1400" y="771" type="qcurve" smooth="yes"/>
			<point x="1400" y="981"/>
			<point x="1133" y="1264"/>
			<point x="809" y="1264" type="qcurve"/>
			<point x="809" y="1295" type="line"/>
			<point x="1214" y="1295"/>
			<point x="1578" y="1020"/>
		</contour>
		<contour>
			<point x="40" y="728" type="qcurve" smooth="yes"/>
			<point x="40" y="986"/>
			<point x="439" y="1285"/>
			<point x="809" y="1295" type="qcurve"/>
			<point x="809" y="1263" type="line"/>
			<point x="485" y="1261"/>
			<point x="218" y="957"/>
			<point x="218" y="739" type="qcurve" smooth="yes"/>
			<point x="218" y="529"/>
			<point x="485" y="246"/>
			<point x="809" y="246" type="qcurve"/>
			<point x="809" y="215" type="line"/>
			<point x="404" y="215"/>
			<point x="40" y="490"/>
		</contour>
		<contour>
			<point x="552" y="1" type="line"/>
			<point x="725" y="36" type="line"/>
			<point x="726" y="231" type="line"/>
			<point x="726" y="241" type="line"/>
			<point x="727" y="755" type="line"/>
			<point x="891" y="755" type="line"/>
			<point x="892" y="242" type="line"/>
			<point x="892" y="231" type="line"/>
			<point x="893" y="37" type="line"/>
			<point x="1066" y="1" type="line"/>
			<point x="1066" y="-24" type="line"/>
			<point x="552" y="-24" type="line"/>
		</contour>
		<contour>
			<point x="552" y="1491" type="line"/>
			<point x="552" y="1520" type="line"/>
			<point x="1066" y="1520" type="line"/>
			<point x="1066" y="1491" type="line"/>
			<point x="893" y="1457" type="line"/>
			<point x="892" y="1280" type="line"/>
			<point x="892" y="1264" type="line"/>
			<point x="891" y="755" type="line"/>
			<point x="727" y="755" type="line"/>
			<point x="726" y="1266" type="line"/>
			<point x="726" y="1280" type="line"/>
			<point x="725" y="1457" type="line"/>
		</contour>
	</outline>
	<guideline x="1134" y="-24" angle="0" identifier="oq0Tn2pRYd"/>
	<guideline x="1135" y="1520" angle="0" identifier="19bUnJaUS5"/>
</glyph>
<glyph name="Tse" format="2">
	<unicode hex="0426"/>
	<advance width="1495"/>
	<outline>
		<contour>
			<point x="1082" y="775" type="line"/>
			<point x="1080" y="1437" type="line"/>
			<point x="915" y="1471" type="line"/>
			<point x="915" y="1500" type="line"/>
			<point x="1412" y="1500" type="line"/>
			<point x="1412" y="1471" type="line"/>
			<point x="1247" y="1437" type="line"/>
			<point x="1245" y="775" type="line"/>
			<point x="1247" y="28" type="line"/>
			<point x="1435" y="28" type="line"/>
			<point x="1445" y="-338" type="line"/>
			<point x="1420" y="-338" type="line"/>
			<point x="1311" y="0" type="line"/>
			<point x="61" y="0" type="line"/>
			<point x="61" y="25" type="line"/>
			<point x="226" y="60" type="line"/>
			<point x="228" y="775" type="line"/>
			<point x="226" y="1437" type="line"/>
			<point x="61" y="1471" type="line"/>
			<point x="61" y="1500" type="line"/>
			<point x="558" y="1500" type="line"/>
			<point x="558" y="1471" type="line"/>
			<point x="393" y="1437" type="line"/>
			<point x="391" y="775" type="line"/>
			<point x="393" y="53" type="line"/>
			<point x="458" y="28" type="line"/>
			<point x="1015" y="28" type="line"/>
			<point x="1080" y="53" type="line"/>
		</contour>
	</outline>
	<guideline x="1638" y="1367" angle="90" identifier="Ju90KfnAFs"/>
</glyph>
<glyph name="Che" format="2">
	<unicode hex="0427"/>
	<advance width="1382"/>
	<outline>
		<contour>
			<point x="803" y="0" type="line"/>
			<point x="803" y="25" type="line"/>
			<point x="989" y="60" type="line"/>
			<point x="992" y="775" type="line"/>
			<point x="989" y="1437" type="line"/>
			<point x="823" y="1471" type="line"/>
			<point x="823" y="1500" type="line"/>
			<point x="1321" y="1500" type="line"/>
			<point x="1321" y="1471" type="line"/>
			<point x="1156" y="1437" type="line"/>
			<point x="1154" y="775" type="line"/>
			<point x="1156" y="60" type="line"/>
			<point x="1321" y="25" type="line"/>
			<point x="1321" y="0" type="line"/>
		</contour>
		<contour>
			<point x="10" y="1471" type="line"/>
			<point x="10" y="1500" type="line"/>
			<point x="507" y="1500" type="line"/>
			<point x="507" y="1471" type="line"/>
			<point x="342" y="1437" type="line"/>
			<point x="341" y="1094" type="line" smooth="yes"/>
			<point x="340" y="899"/>
			<point x="512" y="744"/>
			<point x="728" y="744" type="qcurve" smooth="yes"/>
			<point x="805" y="744"/>
			<point x="979" y="770"/>
			<point x="1073" y="811" type="qcurve"/>
			<point x="1073" y="774" type="line"/>
			<point x="979" y="732"/>
			<point x="777" y="699"/>
			<point x="681" y="699" type="qcurve" smooth="yes"/>
			<point x="429" y="699"/>
			<point x="175" y="874"/>
			<point x="175" y="1101" type="qcurve" smooth="yes"/>
			<point x="175" y="1437" type="line"/>
		</contour>
	</outline>
	<guideline x="1330" y="777" angle="90" identifier="9CLqHZNG04"/>
</glyph>
<glyph name="Shcha" format="2">
	<unicode hex="0429"/>
	<advance width="2095"/>
	<outline>
		<contour>
			<point x="1911" y="0" type="line"/>
			<point x="61" y="0" type="line"/>
			<point x="61" y="25" type="line"/>
			<point x="226" y="60" type="line"/>
			<point x="228" y="775" type="line"/>
			<point x="226" y="1437" type="line"/>
			<point x="61" y="1471" type="line"/>
			<point x="61" y="1500" type="line"/>
			<point x="558" y="1500" type="line"/>
			<point x="558" y="1471" type="line"/>
			<point x="393" y="1437" type="line"/>
			<point x="391" y="775" type="line"/>
			<point x="393" y="53" type="line"/>
			<point x="458" y="28" type="line"/>
			<point x="888" y="28" type="line"/>
			<point x="953" y="53" type="line"/>
			<point x="955" y="775" type="line"/>
			<point x="953" y="1437" type="line"/>
			<point x="788" y="1471" type="line"/>
			<point x="788" y="1500" type="line"/>
			<point x="1285" y="1500" type="line"/>
			<point x="1285" y="1471" type="line"/>
			<point x="1120" y="1437" type="line"/>
			<point x="1118" y="775" type="line"/>
			<point x="1120" y="53" type="line"/>
			<point x="1185" y="28" type="line"/>
			<point x="1615" y="28" type="line"/>
			<point x="1680" y="53" type="line"/>
			<point x="1682" y="775" type="line"/>
			<point x="1680" y="1437" type="line"/>
			<point x="1515" y="1471" type="line"/>
			<point x="1515" y="1500" type="line"/>
			<point x="2012" y="1500" type="line"/>
			<point x="2012" y="1471" type="line"/>
			<point x="1847" y="1437" type="line"/>
			<point x="1845" y="775" type="line"/>
			<point x="1847" y="28" type="line"/>
			<point x="2035" y="28" type="line"/>
			<point x="2045" y="-338" type="line"/>
			<point x="2020" y="-338" type="line"/>
		</contour>
	</outline>
</glyph>
<glyph name="Soft" format="2">
	<unicode hex="042C"/>
	<advance width="1137"/>
	<outline>
		<contour>
			<point x="588" y="838" type="line" smooth="yes"/>
			<point x="769" y="838"/>
			<point x="912" y="592.0740740741"/>
			<point x="912" y="438" type="qcurve" smooth="yes"/>
			<point x="912" y="269.950617284"/>
			<point x="772" y="28"/>
			<point x="584" y="28" type="qcurve" smooth="yes"/>
			<point x="425" y="28" type="line"/>
			<point x="393" y="49" type="line"/>
			<point x="391" y="755" type="line"/>
			<point x="393" y="1437" type="line"/>
			<point x="558" y="1471" type="line"/>
			<point x="558" y="1500" type="line"/>
			<point x="61" y="1500" type="line"/>
			<point x="61" y="1471" type="line"/>
			<point x="226" y="1437" type="line"/>
			<point x="228" y="775" type="line"/>
			<point x="226" y="60" type="line"/>
			<point x="61" y="25" type="line"/>
			<point x="61" y="0" type="line"/>
			<point x="588" y="0" type="line" smooth="yes"/>
			<point x="807" y="0"/>
			<point x="1085.9884528931" y="215.4596364829"/>
			<point x="1087" y="438" type="qcurve" smooth="yes"/>
			<point x="1087.9884528959" y="655.459637089"/>
			<point x="807" y="866"/>
			<point x="588" y="866" type="qcurve" smooth="yes"/>
			<point x="309" y="866" type="line"/>
			<point x="309" y="838" type="line"/>
		</contour>
	</outline>
</glyph>
<glyph name="Ecyr" format="2">
  <advance width="1376"/>
  <unicode hex="042D"/>
  <guideline x="1147" y="753" angle="90" identifier="Ovo68woMtl"/>
  <guideline x="211" y="787" angle="90" identifier="BltxzGcBtl"/>
  <anchor x="620.0" y="0" name="bottom"/>
  <anchor x="645.0" y="1500" name="top"/>
  <outline>
    <contour>
      <point x="1221" y="741" type="line"/>
      <point x="627" y="734" type="line"/>
      <point x="557" y="555" type="line"/>
      <point x="531" y="555" type="line"/>
      <point x="531" y="957" type="line"/>
      <point x="557" y="957" type="line"/>
      <point x="627" y="778" type="line"/>
      <point x="1221" y="771" type="line"/>
    </contour>
    <contour>
      <point x="620" y="5" type="qcurve" smooth="yes"/>
      <point x="887" y="5"/>
      <point x="1132" y="390"/>
      <point x="1132" y="745" type="qcurve" smooth="yes"/>
      <point x="1132" y="1065"/>
      <point x="882" y="1484"/>
      <point x="645" y="1484" type="qcurve" smooth="yes"/>
      <point x="477" y="1484"/>
      <point x="281" y="1343"/>
      <point x="233" y="1180" type="qcurve" smooth="yes"/>
      <point x="200" y="1067" type="line"/>
      <point x="172" y="1067" type="line"/>
      <point x="172" y="1489" type="line"/>
      <point x="199" y="1489" type="line"/>
      <point x="236" y="1413" type="line"/>
      <point x="299" y="1454"/>
      <point x="502" y="1519"/>
      <point x="645" y="1519" type="qcurve" smooth="yes"/>
      <point x="959" y="1519"/>
      <point x="1311" y="1097"/>
      <point x="1311" y="752" type="qcurve" smooth="yes"/>
      <point x="1311" y="423"/>
      <point x="950.0462427746" y="-31"/>
      <point x="621" y="-31" type="qcurve" smooth="yes"/>
      <point x="497.3185595568" y="-31"/>
      <point x="316" y="54"/>
      <point x="258" y="122" type="qcurve"/>
      <point x="178" y="0" type="line"/>
      <point x="150" y="0" type="line"/>
      <point x="150" y="423" type="line"/>
      <point x="177" y="423" type="line"/>
      <point x="220" y="309" type="line" smooth="yes"/>
      <point x="271" y="173"/>
      <point x="456" y="5"/>
    </contour>
  </outline>
</glyph>
<glyph name="Yu" format="2">
  <advance width="1985"/>
  <unicode hex="042E"/>
  <guideline x="732" y="785" angle="90" identifier="6nH5tb4DEh"/>
  <anchor x="814" y="0" name="bottom"/>
  <anchor x="814" y="1500" name="top"/>
  <outline>
    <contour>
      <point x="61" y="0" type="line"/>
      <point x="61" y="25" type="line"/>
      <point x="226" y="60" type="line"/>
      <point x="228" y="775" type="line"/>
      <point x="226" y="1437" type="line"/>
      <point x="61" y="1471" type="line"/>
      <point x="61" y="1500" type="line"/>
      <point x="558" y="1500" type="line"/>
      <point x="558" y="1471" type="line"/>
      <point x="393" y="1437" type="line"/>
      <point x="391" y="775" type="line"/>
      <point x="393" y="60" type="line"/>
      <point x="558" y="25" type="line"/>
      <point x="558" y="0" type="line"/>
    </contour>
    <contour>
      <point x="309" y="766" type="line"/>
      <point x="309" y="798" type="line"/>
      <point x="734" y="795" type="line"/>
      <point x="734" y="766" type="line"/>
    </contour>
    <contour>
      <point x="645" y="741" type="qcurve" smooth="yes"/>
      <point x="645" y="1103"/>
      <point x="1031" y="1519"/>
      <point x="1282" y="1519" type="qcurve" smooth="yes"/>
      <point x="1533" y="1519"/>
      <point x="1920" y="1121"/>
      <point x="1920" y="766" type="qcurve" smooth="yes"/>
      <point x="1920" y="382"/>
      <point x="1538" y="-26"/>
      <point x="1286" y="-26" type="qcurve" smooth="yes"/>
      <point x="1033" y="-26"/>
      <point x="645" y="371"/>
    </contour>
    <contour>
      <point x="822" y="753" type="qcurve" smooth="yes"/>
      <point x="822" y="377"/>
      <point x="1087" y="5"/>
      <point x="1293" y="5" type="qcurve" smooth="yes"/>
      <point x="1498" y="5"/>
      <point x="1743" y="364"/>
      <point x="1743" y="752" type="qcurve" smooth="yes"/>
      <point x="1743" y="1111"/>
      <point x="1485" y="1487"/>
      <point x="1276" y="1487" type="qcurve" smooth="yes"/>
      <point x="1070" y="1487"/>
      <point x="822" y="1140"/>
    </contour>
  </outline>
</glyph>
<glyph name="Ya" format="2">
  <advance width="1260"/>
  <unicode hex="042F"/>
  <anchor x="651" y="0" name="bottom"/>
  <anchor x="724" y="1500" name="top"/>
  <outline>
    <contour>
      <point x="1199" y="0" type="line"/>
      <point x="1199" y="25" type="line"/>
      <point x="1034" y="60" type="line"/>
      <point x="1032" y="775" type="line"/>
      <point x="1034" y="1437" type="line"/>
      <point x="1199" y="1471" type="line"/>
      <point x="1199" y="1500" type="line"/>
      <point x="687" y="1500" type="line" smooth="yes"/>
      <point x="452" y="1500"/>
      <point x="210" y="1294"/>
      <point x="210" y="1105" type="qcurve" smooth="yes"/>
      <point x="210" y="933"/>
      <point x="434" y="719"/>
      <point x="634" y="719" type="qcurve"/>
      <point x="644" y="710" type="line"/>
      <point x="957" y="720" type="line"/>
      <point x="957" y="749" type="line"/>
      <point x="696" y="747" type="line" smooth="yes"/>
      <point x="541" y="746"/>
      <point x="378" y="939"/>
      <point x="378" y="1102" type="qcurve" smooth="yes"/>
      <point x="378" y="1282"/>
      <point x="541" y="1470"/>
      <point x="686" y="1470" type="qcurve" smooth="yes"/>
      <point x="832" y="1470" type="line"/>
      <point x="865" y="1448" type="line"/>
      <point x="869" y="775" type="line"/>
      <point x="867" y="60" type="line"/>
      <point x="701" y="25" type="line"/>
      <point x="701" y="0" type="line"/>
    </contour>
    <contour>
      <point x="674" y="726" type="line"/>
      <point x="527" y="757" type="line"/>
      <point x="161" y="135" type="line" smooth="yes"/>
      <point x="122" y="68"/>
      <point x="61" y="31"/>
      <point x="10" y="25" type="qcurve"/>
      <point x="10" y="0" type="line"/>
      <point x="252" y="0" type="line"/>
      <point x="282" y="30" type="line"/>
    </contour>
  </outline>
</glyph>
<glyph name="ve" format="2">
	<unicode hex="0432"/>
	<advance width="946"/>
	<outline>
		<contour>
			<point x="60" y="920" type="line"/>
			<point x="522" y="920" type="line" smooth="yes"/>
			<point x="674" y="920"/>
			<point x="834" y="808"/>
			<point x="834" y="713" type="qcurve" smooth="yes"/>
			<point x="834" y="624"/>
			<point x="725" y="500"/>
			<point x="617" y="479" type="qcurve"/>
			<point x="617" y="475" type="line"/>
			<point x="751" y="462"/>
			<point x="896" y="349"/>
			<point x="896" y="250" type="qcurve" smooth="yes"/>
			<point x="896" y="132"/>
			<point x="729" y="0"/>
			<point x="528" y="0" type="qcurve" smooth="yes"/>
			<point x="60" y="0" type="line"/>
			<point x="60" y="21" type="line"/>
			<point x="182" y="56" type="line"/>
			<point x="184" y="470" type="line"/>
			<point x="182" y="864" type="line"/>
			<point x="60" y="899" type="line"/>
		</contour>
		<contour>
			<point x="336" y="28" type="line"/>
			<point x="522" y="28" type="line" smooth="yes"/>
			<point x="624" y="28"/>
			<point x="730" y="138"/>
			<point x="730" y="250" type="qcurve" smooth="yes"/>
			<point x="730" y="347"/>
			<point x="632" y="452"/>
			<point x="513" y="452" type="qcurve" smooth="yes"/>
			<point x="259" y="452" type="line"/>
			<point x="259" y="488" type="line"/>
			<point x="491" y="488" type="line" smooth="yes"/>
			<point x="581" y="488"/>
			<point x="672" y="591"/>
			<point x="672" y="684" type="qcurve" smooth="yes"/>
			<point x="672" y="797"/>
			<point x="578" y="892"/>
			<point x="495" y="892" type="qcurve" smooth="yes"/>
			<point x="336" y="892" type="line"/>
			<point x="334" y="470" type="line"/>
		</contour>
	</outline>
	<guideline x="302" y="625" angle="90" identifier="FqbstdQzDn"/>
	<guideline x="953" y="554" angle="90" identifier="zbbKiP68t3"/>
</glyph>
<glyph name="de" format="2">
	<unicode hex="0434"/>
	<advance width="1045"/>
	<outline>
		<contour>
			<point x="307" y="864" type="line"/>
			<point x="185" y="899" type="line"/>
			<point x="185" y="920" type="line"/>
			<point x="964" y="920" type="line"/>
			<point x="964" y="899" type="line"/>
			<point x="842" y="864" type="line"/>
			<point x="840" y="465" type="line"/>
			<point x="842" y="0" type="line"/>
			<point x="687" y="0" type="line"/>
			<point x="690" y="465" type="line"/>
			<point x="687" y="892" type="line"/>
			<point x="345" y="892" type="line"/>
			<point x="305" y="474" type="line" smooth="yes"/>
			<point x="293" y="349"/>
			<point x="244" y="103"/>
			<point x="214" y="14" type="qcurve"/>
			<point x="166" y="14" type="line"/>
			<point x="207" y="103"/>
			<point x="258" y="367"/>
			<point x="270" y="490" type="qcurve" smooth="yes"/>
		</contour>
		<contour>
			<point x="968" y="-318" type="line"/>
			<point x="842" y="0" type="line"/>
			<point x="173" y="0" type="line"/>
			<point x="45" y="-318" type="line"/>
			<point x="20" y="-318" type="line"/>
			<point x="30" y="28" type="line"/>
			<point x="985" y="28" type="line"/>
			<point x="995" y="-318" type="line"/>
		</contour>
	</outline>
	<guideline x="302" y="625" angle="90" identifier="jHuxcyi1x5"/>
	<guideline x="953" y="554" angle="90" identifier="b1mHk7wgTR"/>
	<guideline x="627" y="553" angle="90" identifier="m4aYe0x4PZ"/>
</glyph>
<glyph name="zhe" format="2">
  <advance width="1389"/>
  <unicode hex="0436"/>
  <guideline x="241" y="553" angle="90" identifier="8KgqZm3A67"/>
  <anchor x="694.5" y="0" name="bottom"/>
  <anchor x="694.5" y="920" name="top"/>
  <outline>
    <contour>
      <point x="855" y="459" type="line"/>
      <point x="945" y="567" type="line"/>
      <point x="1326" y="58" type="line"/>
      <point x="1414" y="21" type="line"/>
      <point x="1414" y="0" type="line"/>
      <point x="1142" y="0" type="line"/>
      <point x="1142" y="16" type="line"/>
      <point x="1154" y="59" type="line"/>
    </contour>
    <contour>
      <point x="692" y="485" type="line"/>
      <point x="861" y="482" type="line"/>
      <point x="1187" y="867" type="line"/>
      <point x="1073" y="897" type="line"/>
      <point x="1073" y="920" type="line"/>
      <point x="1349" y="920" type="line"/>
      <point x="1349" y="897" type="line"/>
      <point x="1232" y="867" type="line"/>
      <point x="869" y="448" type="line"/>
      <point x="692" y="446" type="line"/>
    </contour>
    <contour>
      <point x="529" y="459" type="line"/>
      <point x="230" y="59" type="line"/>
      <point x="242" y="16" type="line"/>
      <point x="242" y="0" type="line"/>
      <point x="-25" y="0" type="line"/>
      <point x="-25" y="21" type="line"/>
      <point x="63" y="58" type="line"/>
      <point x="441" y="563" type="line"/>
    </contour>
    <contour>
      <point x="692" y="485" type="line"/>
      <point x="692" y="446" type="line"/>
      <point x="504" y="448" type="line"/>
      <point x="142" y="867" type="line"/>
      <point x="25" y="897" type="line"/>
      <point x="25" y="920" type="line"/>
      <point x="311" y="920" type="line"/>
      <point x="311" y="897" type="line"/>
      <point x="197" y="867" type="line"/>
      <point x="523" y="482" type="line"/>
    </contour>
    <contour>
      <point x="767" y="465" type="line"/>
      <point x="770" y="56" type="line"/>
      <point x="889" y="21" type="line"/>
      <point x="889" y="0" type="line"/>
      <point x="493" y="0" type="line"/>
      <point x="493" y="21" type="line"/>
      <point x="615" y="56" type="line"/>
      <point x="617" y="465" type="line"/>
      <point x="615" y="864" type="line"/>
      <point x="493" y="899" type="line"/>
      <point x="493" y="920" type="line"/>
      <point x="889" y="920" type="line"/>
      <point x="889" y="899" type="line"/>
      <point x="770" y="864" type="line"/>
    </contour>
  </outline>
</glyph>
<glyph name="ze" format="2">
	<unicode hex="0437"/>
	<advance width="849"/>
	<outline>
		<contour>
			<point x="438" y="-20" type="qcurve" smooth="yes"/>
			<point x="356" y="-20"/>
			<point x="222.8048863115" y="22.9910698881"/>
			<point x="183" y="56" type="qcurve"/>
			<point x="140" y="-22" type="line"/>
			<point x="120" y="-22" type="line"/>
			<point x="120" y="292" type="line"/>
			<point x="143" y="292" type="line"/>
			<point x="160" y="231" type="line" smooth="yes"/>
			<point x="189" y="129"/>
			<point x="317" y="6"/>
			<point x="431" y="6" type="qcurve" smooth="yes"/>
			<point x="532" y="6"/>
			<point x="643" y="122"/>
			<point x="643" y="240" type="qcurve" smooth="yes"/>
			<point x="643" y="335"/>
			<point x="547" y="446"/>
			<point x="457" y="446" type="qcurve" smooth="yes"/>
			<point x="328" y="446" type="line"/>
			<point x="328" y="484" type="line"/>
			<point x="456" y="484" type="line" smooth="yes"/>
			<point x="529" y="484"/>
			<point x="595" y="601"/>
			<point x="595" y="698" type="qcurve" smooth="yes"/>
			<point x="595" y="805"/>
			<point x="514" y="915"/>
			<point x="428" y="915" type="qcurve" smooth="yes"/>
			<point x="338.9090909091" y="915"/>
			<point x="214" y="809"/>
			<point x="183" y="698" type="qcurve" smooth="yes"/>
			<point x="164" y="630" type="line"/>
			<point x="141" y="630" type="line"/>
			<point x="141" y="944" type="line"/>
			<point x="161" y="944" type="line"/>
			<point x="204" y="860" type="line"/>
			<point x="240.464459474" y="896.464459474"/>
			<point x="366" y="942"/>
			<point x="444" y="942" type="qcurve" smooth="yes"/>
			<point x="593" y="942"/>
			<point x="757" y="822"/>
			<point x="757" y="720" type="qcurve" smooth="yes"/>
			<point x="757" y="629"/>
			<point x="649" y="500"/>
			<point x="548" y="475" type="qcurve"/>
			<point x="548" y="471" type="line"/>
			<point x="679" y="453"/>
			<point x="809" y="339"/>
			<point x="809" y="240" type="qcurve" smooth="yes"/>
			<point x="809" y="122"/>
			<point x="616" y="-20"/>
		</contour>
	</outline>
</glyph>
<glyph name="icyr" format="2">
  <advance width="1134"/>
  <unicode hex="0438"/>
  <guideline x="302" y="625" angle="90" identifier="jHuxcyi1x5"/>
  <guideline x="973" y="554" angle="90" identifier="b1mHk7wgTR"/>
  <guideline x="627" y="553" angle="90" identifier="m4aYe0x4PZ"/>
  <guideline x="641" y="891" angle="90" identifier="cgCypNhhfk"/>
  <anchor x="567.0" y="0" name="bottom"/>
  <anchor x="567.0" y="920" name="top"/>
  <outline>
    <contour>
      <point x="302" y="173" type="line"/>
      <point x="570" y="504" type="line"/>
      <point x="799" y="799" type="line"/>
      <point x="832" y="781" type="line"/>
      <point x="591" y="483" type="line"/>
      <point x="335" y="155" type="line"/>
    </contour>
    <contour>
      <point x="184" y="465" type="line"/>
      <point x="182" y="864" type="line"/>
      <point x="60" y="899" type="line"/>
      <point x="60" y="920" type="line"/>
      <point x="456" y="920" type="line"/>
      <point x="456" y="899" type="line"/>
      <point x="337" y="864" type="line"/>
      <point x="334" y="465" type="line"/>
      <point x="337" y="56" type="line"/>
      <point x="456" y="21" type="line"/>
      <point x="456" y="0" type="line"/>
      <point x="60" y="0" type="line"/>
      <point x="60" y="21" type="line"/>
      <point x="182" y="56" type="line"/>
    </contour>
    <contour>
      <point x="949" y="465" type="line"/>
      <point x="952" y="56" type="line"/>
      <point x="1074" y="21" type="line"/>
      <point x="1074" y="0" type="line"/>
      <point x="678" y="0" type="line"/>
      <point x="678" y="21" type="line"/>
      <point x="797" y="56" type="line"/>
      <point x="800" y="465" type="line"/>
      <point x="797" y="864" type="line"/>
      <point x="678" y="899" type="line"/>
      <point x="678" y="920" type="line"/>
      <point x="1074" y="920" type="line"/>
      <point x="1074" y="899" type="line"/>
      <point x="952" y="864" type="line"/>
    </contour>
  </outline>
</glyph>
<glyph name="ka" format="2">
  <advance width="956"/>
  <unicode hex="043A"/>
  <guideline x="241" y="553" angle="90" identifier="lmgRx0QBdK"/>
  <guideline x="786" y="880" angle="0" identifier="nFoPGEsufr"/>
  <anchor x="478.0" y="0" name="bottom"/>
  <anchor x="478.0" y="920" name="top"/>
  <outline>
    <contour>
      <point x="422" y="459" type="line"/>
      <point x="512" y="567" type="line"/>
      <point x="893" y="58" type="line"/>
      <point x="981" y="21" type="line"/>
      <point x="981" y="0" type="line"/>
      <point x="709" y="0" type="line"/>
      <point x="709" y="16" type="line"/>
      <point x="721" y="59" type="line"/>
    </contour>
    <contour>
      <point x="259" y="485" type="line"/>
      <point x="428" y="482" type="line"/>
      <point x="754" y="867" type="line"/>
      <point x="640" y="897" type="line"/>
      <point x="640" y="920" type="line"/>
      <point x="916" y="920" type="line"/>
      <point x="916" y="897" type="line"/>
      <point x="799" y="867" type="line"/>
      <point x="436" y="448" type="line"/>
      <point x="259" y="446" type="line"/>
    </contour>
    <contour>
      <point x="184" y="465" type="line"/>
      <point x="182" y="864" type="line"/>
      <point x="60" y="899" type="line"/>
      <point x="60" y="920" type="line"/>
      <point x="456" y="920" type="line"/>
      <point x="456" y="899" type="line"/>
      <point x="337" y="864" type="line"/>
      <point x="334" y="465" type="line"/>
      <point x="337" y="56" type="line"/>
      <point x="456" y="21" type="line"/>
      <point x="456" y="0" type="line"/>
      <point x="60" y="0" type="line"/>
      <point x="60" y="21" type="line"/>
      <point x="182" y="56" type="line"/>
    </contour>
  </outline>
</glyph>
<glyph name="el" format="2">
	<unicode hex="043B"/>
	<advance width="1024"/>
	<outline>
		<contour>
			<point x="316" y="864" type="line"/>
			<point x="194" y="899" type="line"/>
			<point x="194" y="920" type="line"/>
			<point x="964" y="920" type="line"/>
			<point x="964" y="899" type="line"/>
			<point x="842" y="864" type="line"/>
			<point x="839" y="465" type="line"/>
			<point x="842" y="56" type="line"/>
			<point x="964" y="21" type="line"/>
			<point x="964" y="0" type="line"/>
			<point x="568" y="0" type="line"/>
			<point x="568" y="21" type="line"/>
			<point x="687" y="56" type="line"/>
			<point x="689" y="465" type="line"/>
			<point x="687" y="892" type="line"/>
			<point x="354" y="892" type="line"/>
			<point x="311" y="439" type="line" smooth="yes"/>
			<point x="287" y="182"/>
			<point x="212" y="-17"/>
			<point x="110" y="-17" type="qcurve" smooth="yes"/>
			<point x="89" y="-17"/>
			<point x="56" y="-11"/>
			<point x="30" y="-2" type="qcurve"/>
			<point x="30" y="113" type="line"/>
			<point x="52" y="106"/>
			<point x="88" y="101"/>
			<point x="107" y="101" type="qcurve" smooth="yes"/>
			<point x="190" y="101"/>
			<point x="256" y="267"/>
			<point x="275" y="454" type="qcurve" smooth="yes"/>
		</contour>
	</outline>
	<guideline x="302" y="625" angle="90" identifier="jHuxcyi1x5"/>
	<guideline x="953" y="554" angle="90" identifier="b1mHk7wgTR"/>
	<guideline x="627" y="553" angle="90" identifier="m4aYe0x4PZ"/>
</glyph>
<glyph name="em" format="2">
	<unicode hex="043C"/>
	<advance width="1358"/>
	<outline>
		<contour>
			<point x="374" y="920" type="line"/>
			<point x="541" y="497" type="line"/>
			<point x="693" y="134" type="line"/>
			<point x="840" y="477" type="line"/>
			<point x="1019" y="920" type="line"/>
			<point x="1298" y="920" type="line"/>
			<point x="1298" y="899" type="line"/>
			<point x="1176" y="864" type="line"/>
			<point x="1173" y="465" type="line"/>
			<point x="1176" y="56" type="line"/>
			<point x="1298" y="21" type="line"/>
			<point x="1298" y="0" type="line"/>
			<point x="902" y="0" type="line"/>
			<point x="902" y="21" type="line"/>
			<point x="1021" y="56" type="line"/>
			<point x="1023" y="465" type="line"/>
			<point x="1021" y="839" type="line"/>
			<point x="863" y="463" type="line"/>
			<point x="678" y="-6" type="line"/>
			<point x="570" y="-6" type="line"/>
			<point x="400" y="426" type="line"/>
			<point x="220" y="839" type="line"/>
			<point x="217" y="465" type="line"/>
			<point x="220" y="56" type="line"/>
			<point x="358" y="21" type="line"/>
			<point x="358" y="0" type="line"/>
			<point x="60" y="0" type="line"/>
			<point x="60" y="21" type="line"/>
			<point x="182" y="56" type="line"/>
			<point x="184" y="465" type="line"/>
			<point x="182" y="864" type="line"/>
			<point x="60" y="899" type="line"/>
			<point x="60" y="920" type="line"/>
		</contour>
	</outline>
	<guideline x="1285" y="878" angle="0" identifier="6e2z48lNZ1"/>
</glyph>
<glyph name="pe" format="2">
	<unicode hex="043F"/>
	<advance width="1114"/>
	<outline>
		<contour>
			<point x="184" y="465" type="line"/>
			<point x="182" y="864" type="line"/>
			<point x="60" y="899" type="line"/>
			<point x="60" y="920" type="line"/>
			<point x="1054" y="920" type="line"/>
			<point x="1054" y="899" type="line"/>
			<point x="932" y="864" type="line"/>
			<point x="929" y="465" type="line"/>
			<point x="932" y="56" type="line"/>
			<point x="1054" y="21" type="line"/>
			<point x="1054" y="0" type="line"/>
			<point x="658" y="0" type="line"/>
			<point x="658" y="21" type="line"/>
			<point x="777" y="56" type="line"/>
			<point x="779" y="465" type="line"/>
			<point x="777" y="892" type="line"/>
			<point x="336" y="892" type="line"/>
			<point x="334" y="465" type="line"/>
			<point x="337" y="56" type="line"/>
			<point x="456" y="21" type="line"/>
			<point x="456" y="0" type="line"/>
			<point x="60" y="0" type="line"/>
			<point x="60" y="21" type="line"/>
			<point x="182" y="56" type="line"/>
		</contour>
	</outline>
	<guideline x="302" y="625" angle="90" identifier="jHuxcyi1x5"/>
	<guideline x="953" y="554" angle="90" identifier="b1mHk7wgTR"/>
	<guideline x="627" y="553" angle="90" identifier="m4aYe0x4PZ"/>
</glyph>
<glyph name="sha" format="2">
	<unicode hex="0448"/>
	<advance width="1625"/>
	<outline>
		<contour>
			<point x="184" y="465" type="line"/>
			<point x="182" y="864" type="line"/>
			<point x="60" y="899" type="line"/>
			<point x="60" y="920" type="line"/>
			<point x="456" y="920" type="line"/>
			<point x="456" y="899" type="line"/>
			<point x="337" y="864" type="line"/>
			<point x="334" y="465" type="line"/>
			<point x="336" y="28" type="line"/>
			<point x="735" y="28" type="line"/>
			<point x="737" y="465" type="line"/>
			<point x="734" y="864" type="line"/>
			<point x="615" y="899" type="line"/>
			<point x="615" y="920" type="line"/>
			<point x="1008" y="920" type="line"/>
			<point x="1008" y="899" type="line"/>
			<point x="889" y="864" type="line"/>
			<point x="887" y="465" type="line"/>
			<point x="889" y="28" type="line"/>
			<point x="1288" y="28" type="line"/>
			<point x="1290" y="465" type="line"/>
			<point x="1288" y="864" type="line"/>
			<point x="1169" y="899" type="line"/>
			<point x="1169" y="920" type="line"/>
			<point x="1565" y="920" type="line"/>
			<point x="1565" y="899" type="line"/>
			<point x="1443" y="864" type="line"/>
			<point x="1440" y="465" type="line"/>
			<point x="1442" y="56" type="line"/>
			<point x="1565" y="21" type="line"/>
			<point x="1565" y="0" type="line"/>
			<point x="60" y="0" type="line"/>
			<point x="60" y="21" type="line"/>
			<point x="182" y="56" type="line"/>
		</contour>
	</outline>
	<guideline x="302" y="625" angle="90" identifier="NJObwdl7Zg"/>
	<guideline x="953" y="554" angle="90" identifier="1530lh32tn"/>
	<guideline x="627" y="553" angle="90" identifier="24e3XVDPIE"/>
</glyph>
<glyph name="hard" format="2">
	<unicode hex="044A"/>
	<advance width="1111"/>
	<outline>
		<contour>
			<point x="641" y="920" type="line"/>
			<point x="641" y="899" type="line"/>
			<point x="522" y="864" type="line"/>
			<point x="519" y="465" type="line"/>
			<point x="521" y="28" type="line"/>
			<point x="679" y="28" type="line" smooth="yes"/>
			<point x="812" y="28"/>
			<point x="915" y="167"/>
			<point x="915" y="272" type="qcurve" smooth="yes"/>
			<point x="915" y="378"/>
			<point x="812" y="516"/>
			<point x="679" y="516" type="qcurve" smooth="yes"/>
			<point x="444" y="516" type="line"/>
			<point x="444" y="551" type="line"/>
			<point x="679" y="551" type="line" smooth="yes"/>
			<point x="883" y="551"/>
			<point x="1081" y="400"/>
			<point x="1081" y="272" type="qcurve" smooth="yes"/>
			<point x="1081" y="148"/>
			<point x="883" y="0"/>
			<point x="679" y="0" type="qcurve" smooth="yes"/>
			<point x="245" y="0" type="line"/>
			<point x="245" y="21" type="line"/>
			<point x="367" y="56" type="line"/>
			<point x="369" y="465" type="line"/>
			<point x="367" y="892" type="line"/>
			<point x="169" y="892" type="line"/>
			<point x="77" y="660" type="line"/>
			<point x="50" y="660" type="line"/>
			<point x="50" y="920" type="line"/>
		</contour>
	</outline>
	<guideline x="302" y="625" angle="90" identifier="0glbwjr6f1"/>
	<guideline x="953" y="554" angle="90" identifier="41A0uQDzZV"/>
	<guideline x="627" y="553" angle="90" identifier="rA3XBl1QkZ"/>
	<guideline x="302" y="625" angle="90" identifier="9bXjTXCOsd"/>
	<guideline x="953" y="554" angle="90" identifier="70YHiu6Ygv"/>
	<guideline x="627" y="553" angle="90" identifier="lr0dX83lJL"/>
</glyph>
